<svg xmlns="http://www.w3.org/2000/svg" xmlns:xlink="http://www.w3.org/1999/xlink" width="108" height="108" viewBox="0 0 108 108">
  <defs>
    <filter id="Fondo" x="0" y="0" width="108" height="108" filterUnits="userSpaceOnUse">
      <feOffset dy="3" input="SourceAlpha"/>
      <feGaussianBlur stdDeviation="3" result="blur"/>
      <feFlood flood-opacity="0.161"/>
      <feComposite operator="in" in2="blur"/>
      <feComposite in="SourceGraphic"/>
    </filter>
  </defs>
  <g id="Grupo_1144254" data-name="Grupo 1144254" transform="translate(-746 -1157)">
    <g transform="matrix(1, 0, 0, 1, 746, 1157)" filter="url(#Fondo)">
      <g id="Fondo-2" data-name="Fondo" transform="translate(9 6)" fill="#e5f0f6" stroke="#1172b3" stroke-width="3">
        <circle cx="45" cy="45" r="45" stroke="none"/>
        <circle cx="45" cy="45" r="43.5" fill="none"/>
      </g>
    </g>
    <g id="protect-family-protection-insurance-health" transform="translate(768 1179.998)">
      <path id="Trazado_979069" data-name="Trazado 979069" d="M56,10V28a21.681,21.681,0,0,1-6.4,15.37L46,46.98,36,56.99,32,61l-4-4.01L18,46.98l-3.6-3.61A21.681,21.681,0,0,1,8,28V10L32,3Z" fill="#fee9ab"/>
      <path id="Trazado_979070" data-name="Trazado 979070" d="M56,10V28a21.681,21.681,0,0,1-6.4,15.37L46,46.98,36,56.99,32,61l-2-2,2-2.01L42,46.98l3.6-3.61A21.681,21.681,0,0,0,52,28V10L30,3.58,32,3Z" fill="#ffde55"/>
      <path id="Trazado_979071" data-name="Trazado 979071" d="M33,25v4a2.968,2.968,0,0,1-2,2.82A2.968,2.968,0,0,1,29,29V25a2.968,2.968,0,0,1,2-2.82,2.838,2.838,0,0,1,1.12.7A2.993,2.993,0,0,1,33,25Z" fill="#ffc477"/>
      <path id="Trazado_979072" data-name="Trazado 979072" d="M35,25v4a3,3,0,0,1-3,3c-.1,0-.21-.01-.31-.02a2.7,2.7,0,0,1-.28-.04,2.769,2.769,0,0,1-.41-.12A2.968,2.968,0,0,0,33,29V25a2.993,2.993,0,0,0-.88-2.12,2.838,2.838,0,0,0-1.12-.7,2.769,2.769,0,0,1,.41-.12c.1-.02.19-.03.28-.04A2.965,2.965,0,0,1,35,25Z" fill="#ffa733"/>
      <path id="Trazado_979073" data-name="Trazado 979073" d="M35,25v2H33.21a3.993,3.993,0,0,1-2.22-.67L29,25a3,3,0,0,1,6,0Z" fill="#806749"/>
      <path id="Trazado_979074" data-name="Trazado 979074" d="M35,25v4a3,3,0,0,1-3,3c-.1,0-.21-.01-.31-.02a2.7,2.7,0,0,1-.28-.04,2.769,2.769,0,0,1-.41-.12A2.968,2.968,0,0,0,33,29V25a2.993,2.993,0,0,0-.88-2.12,2.838,2.838,0,0,0-1.12-.7,2.769,2.769,0,0,1,.41-.12c.1-.02.19-.03.28-.04A2.965,2.965,0,0,1,35,25Z" fill="#ffa733"/>
      <path id="Trazado_979075" data-name="Trazado 979075" d="M38,40v4H26V36a4,4,0,0,1,4-4h4a4,4,0,0,1,4,4Z" fill="#57a4ff"/>
      <path id="Trazado_979076" data-name="Trazado 979076" d="M38,36v8H34V36a4,4,0,0,0-4-4h4A4,4,0,0,1,38,36Z" fill="#006df0"/>
      <path id="Trazado_979077" data-name="Trazado 979077" d="M35,25v2H33.21a1.477,1.477,0,0,1-.21-.01V25a2.993,2.993,0,0,0-.88-2.12,2.838,2.838,0,0,0-1.12-.7,2.769,2.769,0,0,1,.41-.12c.1-.02.19-.03.28-.04A2.965,2.965,0,0,1,35,25Z" fill="#6a563d"/>
      <path id="Trazado_979078" data-name="Trazado 979078" d="M46,18v4a4,4,0,0,1-8,0V18a3.671,3.671,0,0,1,.12-.94A4,4,0,0,1,46,18Z" fill="#ffc477"/>
      <path id="Trazado_979079" data-name="Trazado 979079" d="M50,23l2,3H42a4,4,0,0,0,4-4V18a4,4,0,0,0-4-4h3a5,5,0,0,1,5,5Z" fill="#806749"/>
      <path id="Trazado_979080" data-name="Trazado 979080" d="M49,30V40H38V36a4,4,0,0,0-4-4H32a3,3,0,0,0,3-3,3,3,0,0,1,3-3h7.09A4,4,0,0,1,49,30Z" fill="#ea348b"/>
      <path id="Trazado_979081" data-name="Trazado 979081" d="M49,30V40H45V30a4,4,0,0,0-3.91-4h4A4,4,0,0,1,49,30Z" fill="#c61469"/>
      <path id="Trazado_979082" data-name="Trazado 979082" d="M46,40v6.98L36,56.99V44h2V40Z" fill="#c0ab91"/>
      <path id="Trazado_979083" data-name="Trazado 979083" d="M46,18v1H43.42a6.108,6.108,0,0,1-2.69-.63l-2.61-1.31A4,4,0,0,1,46,18Z" fill="#806749"/>
      <path id="Trazado_979084" data-name="Trazado 979084" d="M36,50v6.99L32,61V50Z" fill="#ffc477"/>
      <path id="Trazado_979085" data-name="Trazado 979085" d="M32,50H28V44h8v6Z" fill="#898890"/>
      <path id="Trazado_979086" data-name="Trazado 979086" d="M32,50V61l-4-4.01V50Z" fill="#ffc477"/>
      <path id="Trazado_979087" data-name="Trazado 979087" d="M32,32H30a4,4,0,0,0-4,4v4H15V30a4,4,0,0,1,4-4h7a3,3,0,0,1,3,3A3,3,0,0,0,32,32Z" fill="#91dc5a"/>
      <path id="Trazado_979088" data-name="Trazado 979088" d="M28,50v6.99L18,46.98V40h8v4h2Z" fill="#c0ab91"/>
      <path id="Trazado_979089" data-name="Trazado 979089" d="M26,20v2a4,4,0,0,1-8,0V20Z" fill="#ffc477"/>
      <path id="Trazado_979090" data-name="Trazado 979090" d="M26,18v2H18V18a4,4,0,0,1,8,0Z" fill="#806749"/>
      <path id="Trazado_979091" data-name="Trazado 979091" d="M26,20v2a4,4,0,0,1-4,4,3.657,3.657,0,0,1-1-.13A3.992,3.992,0,0,0,24,22V20Z" fill="#ffa733"/>
      <path id="Trazado_979092" data-name="Trazado 979092" d="M26,18v2H24V18a4.025,4.025,0,0,0-1.17-2.83A4.078,4.078,0,0,0,21,14.13,3.657,3.657,0,0,1,22,14a3.995,3.995,0,0,1,4,4Z" fill="#6a563d"/>
      <path id="Trazado_979093" data-name="Trazado 979093" d="M46,18v4a4,4,0,0,1-4,4,3.657,3.657,0,0,1-1-.13A3.992,3.992,0,0,0,44,22V18a4.025,4.025,0,0,0-1.17-2.83,3.97,3.97,0,0,0-1.84-1.04A3.73,3.73,0,0,1,42,14a3.995,3.995,0,0,1,4,4Z" fill="#ffa733"/>
      <path id="Trazado_979094" data-name="Trazado 979094" d="M46,18v1H44V18a4.025,4.025,0,0,0-1.17-2.83,3.97,3.97,0,0,0-1.84-1.04A3.73,3.73,0,0,1,42,14a3.995,3.995,0,0,1,4,4Z" fill="#5f4d37"/>
      <path id="Trazado_979095" data-name="Trazado 979095" d="M52,26H50l-2-3V19a5,5,0,0,0-5-5h2a5,5,0,0,1,5,5v4Z" fill="#5f4d37"/>
      <path id="Trazado_979096" data-name="Trazado 979096" d="M56.28,9.04l-24-7a1.064,1.064,0,0,0-.56,0l-24,7A1,1,0,0,0,7,10V28a22.672,22.672,0,0,0,6.69,16.07v.01l17.6,17.63a1.014,1.014,0,0,0,1.42,0l17.6-17.64A22.672,22.672,0,0,0,57,28V10a1,1,0,0,0-.72-.96ZM27,54.58l-8-8.02V41h6v3a1,1,0,0,0,1,1h1ZM25,21v1a3,3,0,1,1-6,0V21Zm-6-2V18a3,3,0,0,1,6,0v1Zm7,8a2.006,2.006,0,0,1,2,2,3.965,3.965,0,0,0,.67,2.2A5,5,0,0,0,25,36v3H16V30a3.009,3.009,0,0,1,3-3Zm1,9a3.009,3.009,0,0,1,3-3h4a3.009,3.009,0,0,1,3,3v7H27Zm3.44-8.84a4.959,4.959,0,0,0,2.77.84H34v1a2,2,0,0,1-4,0V26.87Zm-.37-2.65A2,2,0,0,1,34,25v1h-.79a2.97,2.97,0,0,1-1.66-.5Zm10.22-5.25a7.031,7.031,0,0,0,3.13.74H45v2a3,3,0,0,1-6,0V18.62Zm-.91-2.69A2.989,2.989,0,0,1,45,18H43.42a4.956,4.956,0,0,1-2.24-.53ZM45,27a3.009,3.009,0,0,1,3,3v9H39V36a5,5,0,0,0-3.67-4.8A3.965,3.965,0,0,0,36,29a2.006,2.006,0,0,1,2-2Zm1.12-11.82A4,4,0,0,1,49,19v4a.967.967,0,0,0,.17.55L50.13,25H45.97A4.924,4.924,0,0,0,47,22V18a4.963,4.963,0,0,0-.88-2.82ZM31,58.58l-2-2V51h2Zm4-2-2,2V51h2ZM35,49H33V47H31v2H29V45h6Zm10-2.44-8,8.02V45h1a1,1,0,0,0,1-1V41h6ZM55,28a20.674,20.674,0,0,1-6.11,14.66L47,44.56V41h2a1,1,0,0,0,1-1V30a4.924,4.924,0,0,0-1.03-3H52a.984.984,0,0,0,.88-.53.963.963,0,0,0-.05-1.02L51,22.7V19a6,6,0,0,0-6-6H42a5,5,0,0,0-5,5v4a4.924,4.924,0,0,0,1.03,3H38a3.906,3.906,0,0,0-2,.56V25a4,4,0,1,0-8,0v.56A3.906,3.906,0,0,0,26,25h-.03A4.924,4.924,0,0,0,27,22V18a5,5,0,0,0-10,0v4a4.934,4.934,0,0,0,1.1,3.09A5,5,0,0,0,14,30V40a1,1,0,0,0,1,1h2v3.56l-1.89-1.9A20.674,20.674,0,0,1,9,28V10.75L32,4.04l23,6.71Z"/>
    </g>
  </g>
</svg>
