<svg xmlns="http://www.w3.org/2000/svg" xmlns:xlink="http://www.w3.org/1999/xlink" width="108" height="108" viewBox="0 0 108 108">
  <defs>
    <filter id="Fondo" x="0" y="0" width="108" height="108" filterUnits="userSpaceOnUse">
      <feOffset dy="3" input="SourceAlpha"/>
      <feGaussianBlur stdDeviation="3" result="blur"/>
      <feFlood flood-opacity="0.161"/>
      <feComposite operator="in" in2="blur"/>
      <feComposite in="SourceGraphic"/>
    </filter>
  </defs>
  <g id="Grupo_1144268" data-name="Grupo 1144268" transform="translate(-1166 -1157)">
    <g id="Grupo_1144265" data-name="Grupo 1144265">
      <g transform="matrix(1, 0, 0, 1, 1166, 1157)" filter="url(#Fondo)">
        <g id="Fondo-2" data-name="Fondo" transform="translate(9 6)" fill="#e5f0f6" stroke="#1172b3" stroke-width="3">
          <circle cx="45" cy="45" r="45" stroke="none"/>
          <circle cx="45" cy="45" r="43.5" fill="none"/>
        </g>
      </g>
    </g>
    <g id="Grupo_1144264" data-name="Grupo 1144264" transform="translate(1188.572 1157.395)">
      <g id="Grupo_1144262" data-name="Grupo 1144262" transform="translate(1.127 21.643)">
        <g id="Grupo_1144255" data-name="Grupo 1144255" transform="translate(32.428 0)">
          <path id="Trazado_979097" data-name="Trazado 979097" d="M301.711,45.836V53.26a.368.368,0,0,1-.513.339l-1.4-.6a5.524,5.524,0,0,0-3.813-.2,6.073,6.073,0,0,1-2.838.18h0a6.084,6.084,0,0,1-3.489-1.94l-9.191-10.29a2.013,2.013,0,0,1,.16-2.842,2.038,2.038,0,0,1,.814-.446l.041-.088a4.8,4.8,0,0,0-1.125-1.512l-.868-.171-5.2-3.5a2.164,2.164,0,0,1,2.146-3.747l8.866,4.282a6.489,6.489,0,0,1,1.55,1.051l9.325,8.538a20.349,20.349,0,0,0,5.295,3.17.366.366,0,0,1,.239.345Z" transform="translate(-273.332 -28.235)" fill="#e19974"/>
          <path id="Trazado_979098" data-name="Trazado 979098" d="M335.014,91.548a1.227,1.227,0,0,1-1.735.034L327.367,85.9a2.022,2.022,0,0,0-1.947-.49l-.027-.041a3.843,3.843,0,0,0-1.169-1.225l-.753-.507a4.51,4.51,0,0,1,5.6.492l5.911,5.686A1.227,1.227,0,0,1,335.014,91.548Z" transform="translate(-317.317 -76.176)" fill="#dc8758"/>
        </g>
        <g id="Grupo_1144256" data-name="Grupo 1144256" transform="translate(0 0)">
          <path id="Trazado_979099" data-name="Trazado 979099" d="M9.183,45.836V53.26A.368.368,0,0,0,9.7,53.6l1.4-.6a5.524,5.524,0,0,1,3.813-.2,6.073,6.073,0,0,0,2.838.18h0a6.083,6.083,0,0,0,3.489-1.94l9.191-10.29a2.013,2.013,0,0,0-.16-2.842,2.039,2.039,0,0,0-.814-.446l-.041-.088a4.8,4.8,0,0,1,1.125-1.512l.868-.171,5.2-3.5a2.164,2.164,0,0,0-2.146-3.747l-8.866,4.282a6.49,6.49,0,0,0-1.551,1.051l-9.325,8.538a20.349,20.349,0,0,1-5.295,3.17.366.366,0,0,0-.239.345Z" transform="translate(-9.183 -28.235)" fill="#e19974"/>
          <path id="Trazado_979100" data-name="Trazado 979100" d="M93.743,91.548a1.227,1.227,0,0,0,1.735.034L101.39,85.9a2.022,2.022,0,0,1,1.947-.49l.027-.041a3.843,3.843,0,0,1,1.169-1.225l.753-.507a4.51,4.51,0,0,0-5.6.492l-5.911,5.686A1.227,1.227,0,0,0,93.743,91.548Z" transform="translate(-83.062 -76.176)" fill="#dc8758"/>
        </g>
        <path id="Trazado_979101" data-name="Trazado 979101" d="M172.841,177.521V159.263a10.351,10.351,0,0,1,8.522-10.155s1.18.116,1.79.116a10.3,10.3,0,0,1,8.943,10.039v18.258H172.841Z" transform="translate(-152.75 -134.269)" fill="#857e87"/>
        <path id="Trazado_979102" data-name="Trazado 979102" d="M254.364,158.141V176.4h-3.581V161.5l-.607-1.7.607-1.654a10.353,10.353,0,0,0-8.521-10.155,10.336,10.336,0,0,1,12.1,10.155Z" transform="translate(-213.648 -133.147)" fill="#766e7a"/>
        <path id="Trazado_979103" data-name="Trazado 979103" d="M153.238,363.083l-6.256,9.287h-9.2l-1.024-.761-.818.761h-9.2l-6.671-8.045,5.355-4.987a5.922,5.922,0,0,1,2.589-1.5l3.836-1.061,4.567,3.565a.6.6,0,0,0,.883,0l4.569-3.565,3.838,1.061Z" transform="translate(-106.459 -316.446)" fill="#fc7080"/>
        <path id="Trazado_979104" data-name="Trazado 979104" d="M226.051,307.7l-4.569,4.875a.6.6,0,0,1-.883,0l-4.567-4.875.56-.155a1.183,1.183,0,0,0,.869-1.142v-.971l.3-.95-.3-3.651h7.162l-.438,3.628.438.972v.972a1.184,1.184,0,0,0,.869,1.142Z" transform="translate(-190.638 -267.365)" fill="#ffd18d"/>
        <path id="Trazado_979105" data-name="Trazado 979105" d="M234.834,300.829v4.6l-.668.447a5.156,5.156,0,0,1-2.878.874h-.074a5.155,5.155,0,0,1-2.876-.874l-.667-.446v-4.6Z" transform="translate(-200.849 -267.364)" fill="#fbbd80"/>
        <path id="Trazado_979106" data-name="Trazado 979106" d="M215.519,204.074a8.722,8.722,0,0,1-3.872,7.249l-1.3.872a2.841,2.841,0,0,1-3.1,0l-1.3-.872a8.724,8.724,0,0,1-3.871-7.249l.006-3.545a1.6,1.6,0,0,1,.078-.5,1.654,1.654,0,0,1,.554-.81,1.625,1.625,0,0,1,.564-.3,9.5,9.5,0,0,0,3.683-1.788,2.569,2.569,0,0,1,3.676,0,9.483,9.483,0,0,0,3.682,1.788,1.655,1.655,0,0,1,.566.3,1.675,1.675,0,0,1,.553.8,1.7,1.7,0,0,1,.078.505Z" transform="translate(-178.391 -175.724)" fill="#ffd18d"/>
        <g id="Grupo_1144258" data-name="Grupo 1144258" transform="translate(6.571 50.146)">
          <g id="Grupo_1144257" data-name="Grupo 1144257">
            <path id="Trazado_979107" data-name="Trazado 979107" d="M76.793,440.386v1.733a.368.368,0,0,1-.368.368H63.08a.369.369,0,0,1-.368-.368v-1.733a4.191,4.191,0,0,1,.223-1.357,3.637,3.637,0,0,1,.636-1.145,2.83,2.83,0,0,1,1.262-.889l.851-.286h8.137l.851.286a2.662,2.662,0,0,1,.678.346,3.083,3.083,0,0,1,.586.543A3.936,3.936,0,0,1,76.793,440.386Z" transform="translate(-62.712 -436.709)" fill="#64b9fc"/>
          </g>
        </g>
        <g id="Grupo_1144259" data-name="Grupo 1144259" transform="translate(9.544 45.429)">
          <path id="Trazado_979108" data-name="Trazado 979108" d="M95.059,403.006a4.443,4.443,0,0,1-8.137,0l.49-.165.8-.27a.554.554,0,0,0,.236-.158c.181-.016.395-.316.395-.518l-.017-3.606h4.113v3.606c0,.2.364.479.59.519a.555.555,0,0,0,.235.158l.8.27Z" transform="translate(-86.922 -398.289)" fill="#ffd18d"/>
          <path id="Trazado_979109" data-name="Trazado 979109" d="M87.412,435.369l-.49.164" transform="translate(-86.922 -430.817)" fill="#ffd18d"/>
          <path id="Trazado_979110" data-name="Trazado 979110" d="M149.7,435.533l-.49-.164" transform="translate(-141.565 -430.817)" fill="#ffd18d"/>
        </g>
        <path id="Trazado_979111" data-name="Trazado 979111" d="M65.9,291.817l-4.31.447H51.793a1.075,1.075,0,0,1-1.072-1.072V285.8a8.546,8.546,0,0,1,6.793-8.337,11.643,11.643,0,0,1,1.989.088c4.682,0,7.395,4.637,7.395,8.249l.069,4.946A1.075,1.075,0,0,1,65.9,291.817Z" transform="translate(-45.622 -246.835)" fill="#b57a68"/>
        <path id="Trazado_979112" data-name="Trazado 979112" d="M116.294,284.8v5.393a1.075,1.075,0,0,1-1.072,1.072h-7.4a5.048,5.048,0,0,0,5.033-5.033V284.8a8.546,8.546,0,0,0-6.795-8.336,8.363,8.363,0,0,1,1.719-.177,8.538,8.538,0,0,1,8.514,8.512Z" transform="translate(-94.169 -245.837)" fill="#aa6a51"/>
        <path id="Trazado_979113" data-name="Trazado 979113" d="M104.453,402.413l-.016.011a4.541,4.541,0,0,1-5.048,0l-.017-.011a.775.775,0,0,0,.188-.518v-3.606h4.7v3.606A.77.77,0,0,0,104.453,402.413Z" transform="translate(-88.3 -352.86)" fill="#fbbd80"/>
        <path id="Trazado_979114" data-name="Trazado 979114" d="M87.068,333.57a2.01,2.01,0,0,1,1.445,1.929,6.7,6.7,0,0,1-2.974,5.567l-1,.67a2.087,2.087,0,0,1-2.318,0l-1-.67a6.7,6.7,0,0,1-2.974-5.567v-2.292a1.758,1.758,0,0,1,2.54-1.582C81.305,331.891,84.913,332.939,87.068,333.57Z" transform="translate(-69.767 -294.214)" fill="#ffd18d"/>
        <g id="Grupo_1144260" data-name="Grupo 1144260" transform="translate(40.899 45.729)">
          <path id="Trazado_979115" data-name="Trazado 979115" d="M354.923,406.465c-2.126,1.019-5.043,2.376-6.294,4.46a11.17,11.17,0,0,0-6.3-4.459c.037-.049.075-.1.114-.145a2.841,2.841,0,0,1,1.263-.889l2.144-.721a.554.554,0,0,0,.234-.158.646.646,0,0,0,.381-.518v-3.306h4.186v3.306c0,.2.5.529.5.529a.582.582,0,0,0,.252.147l2.143.721a2.659,2.659,0,0,1,.678.346,3.036,3.036,0,0,1,.584.543C354.849,406.368,354.886,406.415,354.923,406.465Z" transform="translate(-342.332 -400.729)" fill="#e19974"/>
        </g>
        <g id="Grupo_1144261" data-name="Grupo 1144261" transform="translate(40.155 51.448)">
          <path id="Trazado_979116" data-name="Trazado 979116" d="M343.313,451.794H336.64a.368.368,0,0,1-.368-.368v-1.733a4.191,4.191,0,0,1,.223-1.357,3.78,3.78,0,0,1,.368-.776c.048-.077.1-.152.152-.225C339.169,447.1,343.313,449.351,343.313,451.794Z" transform="translate(-336.272 -447.318)" fill="#91deb6"/>
          <path id="Trazado_979117" data-name="Trazado 979117" d="M399.916,447.335c-2.158-.228-6.294,2.022-6.294,4.46h6.672a.368.368,0,0,0,.368-.368v-1.733a4.028,4.028,0,0,0-.589-2.128" transform="translate(-386.581 -447.319)" fill="#91deb6"/>
        </g>
        <path id="Trazado_979118" data-name="Trazado 979118" d="M336.4,289.208h-8.078a4.06,4.06,0,0,1-4.048-4.048v-1.651a8.546,8.546,0,0,1,6.672-8.311s1.21.073,1.841.073c4.682,0,7.681,3.555,7.681,8.237v1.651A4.077,4.077,0,0,1,336.4,289.208Z" transform="translate(-285.596 -244.881)" fill="#ffe077"/>
        <path id="Trazado_979119" data-name="Trazado 979119" d="M388.976,282.061v1.651a4.06,4.06,0,0,1-4.048,4.049h-3.685a4.061,4.061,0,0,0,4.049-4.049v-1.651a8.549,8.549,0,0,0-6.67-8.31,8.529,8.529,0,0,1,10.354,8.31Z" transform="translate(-333.268 -243.433)" fill="#ffc263"/>
        <path id="Trazado_979120" data-name="Trazado 979120" d="M378,404.553l-.016.011a4.543,4.543,0,0,1-5.049,0l-.016-.011a.77.77,0,0,0,.189-.518v-3.306h4.7v3.306A.775.775,0,0,0,378,404.553Z" transform="translate(-328.268 -355)" fill="#dc8758"/>
        <path id="Trazado_979121" data-name="Trazado 979121" d="M356.938,332.247a5.694,5.694,0,0,1-2.594-.623,1.758,1.758,0,0,0-2.54,1.582V335.5a6.7,6.7,0,0,0,2.974,5.567l1,.67a2.084,2.084,0,0,0,2.318,0l1-.67a6.7,6.7,0,0,0,2.973-5.567v-2.292a1.758,1.758,0,0,0-2.54-1.582A5.7,5.7,0,0,1,356.938,332.247Z" transform="translate(-309.742 -294.213)" fill="#e19974"/>
      </g>
      <g id="Grupo_1144263" data-name="Grupo 1144263" transform="translate(0 20.721)">
        <path id="Trazado_979122" data-name="Trazado 979122" d="M.921,120.005a.921.921,0,0,0,.291-.048,20.866,20.866,0,0,0,5.865-3.449l3.144-2.879a.921.921,0,0,0-1.244-1.358l-3.144,2.879a19.2,19.2,0,0,1-5.2,3.06.921.921,0,0,0,.291,1.794Z" transform="translate(0 -100.821)"/>
        <path id="Trazado_979123" data-name="Trazado 979123" d="M9.654,47.3a7.032,7.032,0,0,0,4.019-2.234l9.189-10.287a2.933,2.933,0,0,0-.255-4.162,3.055,3.055,0,0,1,.309-.241l5.95-4A3.085,3.085,0,0,0,25.8,21.03l-8.866,4.282a7.405,7.405,0,0,0-1.771,1.2L12.157,29.27A.921.921,0,0,0,13.4,30.629l3.011-2.757a5.562,5.562,0,0,1,1.329-.9l8.864-4.282a1.241,1.241,0,0,1,1.369.191,1.246,1.246,0,0,1-.136,1.962l-5.949,4a4.89,4.89,0,0,0-1.125,1.045,2.935,2.935,0,0,0-2.144.811l-6.8,6.537h0A.92.92,0,1,0,13.1,38.564h0l6.8-6.537a1.1,1.1,0,0,1,1.506-.022,1.093,1.093,0,0,1,.086,1.544L12.3,43.837a5.157,5.157,0,0,1-5.37,1.493,6.462,6.462,0,0,0-4.45.234L.57,46.382a.921.921,0,1,0,.725,1.693l1.91-.818a4.619,4.619,0,0,1,3.18-.167,7.027,7.027,0,0,0,3.269.208Z" transform="translate(-0.01 -20.722)"/>
        <path id="Trazado_979124" data-name="Trazado 979124" d="M267.191,26.37l5.95,4a3.074,3.074,0,0,1,.309.241,2.932,2.932,0,0,0-.255,4.162l6.083,6.811a.921.921,0,0,0,1.374-1.227l-6.083-6.811a1.093,1.093,0,0,1,.085-1.543,1.116,1.116,0,0,1,.743-.285,1.1,1.1,0,0,1,.762.308l6.8,6.536h0a.92.92,0,1,0,1.276-1.326h0l-6.8-6.536a2.906,2.906,0,0,0-2.15-.817,4.917,4.917,0,0,0-1.118-1.04l-5.95-4a1.244,1.244,0,0,1,1.233-2.154l8.865,4.282a5.523,5.523,0,0,1,1.329.9l9.325,8.537a20.858,20.858,0,0,0,5.866,3.449.921.921,0,1,0,.582-1.747,19.2,19.2,0,0,1-5.2-3.06l-9.325-8.537a7.372,7.372,0,0,0-1.771-1.2l-8.865-4.282a3.085,3.085,0,0,0-3.062,5.34Z" transform="translate(-233.192 -20.721)"/>
        <path id="Trazado_979125" data-name="Trazado 979125" d="M410.447,207.466l-1.91-.817a6.451,6.451,0,0,0-4.449-.233,5.162,5.162,0,0,1-5.371-1.494l-.237-.265a.921.921,0,1,0-1.373,1.227l.237.266a7,7,0,0,0,7.289,2.026,4.608,4.608,0,0,1,3.179.167l1.91.818a.921.921,0,0,0,.725-1.693Z" transform="translate(-348.151 -181.806)"/>
        <path id="Trazado_979126" data-name="Trazado 979126" d="M92.9,158.534a9.4,9.4,0,0,0-12.221-.952v-6.019a11.233,11.233,0,1,0-22.466,0v6.354a9.427,9.427,0,0,0-14.992,7.616v5.393a2,2,0,0,0,1.992,1.992h3.312a7.641,7.641,0,0,0,.856.822v1.736l-1.94.652a3.752,3.752,0,0,0-1.677,1.173,4.825,4.825,0,0,0-1.071,3.09v2.1a.921.921,0,1,0,1.841,0v-2.1a3.025,3.025,0,0,1,.646-1.913,1.9,1.9,0,0,1,.9-.623,5.129,5.129,0,0,0,9.144,0,1.9,1.9,0,0,1,.9.623,3.025,3.025,0,0,1,.646,1.913v2.1a.921.921,0,1,0,1.841,0v-2.1a4.825,4.825,0,0,0-1.071-3.09,3.749,3.749,0,0,0-1.677-1.173l-1.94-.652V173.74a7.626,7.626,0,0,0,.856-.822H60.1a2,2,0,0,0,1.992-1.992v-2.419l2.061-.569c.01.012.02.025.031.036l4.345,4.637v9.883a.921.921,0,0,0,1.841,0v-9.882c.032-.037,4.351-4.637,4.377-4.674l2.376.656a4.953,4.953,0,0,0,4.159,3.2,7.605,7.605,0,0,0,1.686,1.949v1.736l-1.94.652a3.75,3.75,0,0,0-1.677,1.173,4.825,4.825,0,0,0-1.072,3.09v2.1a.921.921,0,0,0,1.841,0v-2.1a3.193,3.193,0,0,1,.319-1.4l.017,0a4.535,4.535,0,0,1,3.261,1.068,3.36,3.36,0,0,1,1.6,2.385.921.921,0,1,0,1.841,0,3.36,3.36,0,0,1,1.6-2.385,4.535,4.535,0,0,1,3.261-1.068l.017,0a3.193,3.193,0,0,1,.319,1.4v2.1a.921.921,0,0,0,1.841,0v-2.1a4.825,4.825,0,0,0-1.071-3.09,3.75,3.75,0,0,0-1.677-1.173l-1.94-.652V173.74a7.609,7.609,0,0,0,1.688-1.951,5.018,5.018,0,0,0,4.061-2.966.921.921,0,1,0-1.688-.736,3.167,3.167,0,0,1-1.495,1.563,7.638,7.638,0,0,0,.214-1.8v-2.292a2.676,2.676,0,0,0-1.289-2.3,2.633,2.633,0,0,0-2.59-.1,4.792,4.792,0,0,1-4.351,0,2.633,2.633,0,0,0-2.59.1,2.676,2.676,0,0,0-1.289,2.3v2.292a7.639,7.639,0,0,0,.214,1.8,3.165,3.165,0,0,1-1.752-2.8V165.2a7.593,7.593,0,0,1,15.126-.926.921.921,0,0,0,1.828-.225,9.469,9.469,0,0,0-2.7-5.511ZM89.691,177.48a8.465,8.465,0,0,0-2.022,1.091,6.915,6.915,0,0,0-1.432,1.39,6.914,6.914,0,0,0-1.432-1.39,8.469,8.469,0,0,0-2.021-1.091l.971-.326a1.6,1.6,0,0,0,1.051-1.55V175a2.982,2.982,0,0,0,2.863,0v.6a1.6,1.6,0,0,0,1.051,1.55Zm-7.667-11.917a.852.852,0,0,1,.84-.851.784.784,0,0,1,.36.089,6.633,6.633,0,0,0,6.025,0,.8.8,0,0,1,.791.035.848.848,0,0,1,.409.727v2.292a5.768,5.768,0,0,1-2.565,4.8l-1,.67a1.16,1.16,0,0,1-1.294,0l-1-.67a5.767,5.767,0,0,1-2.565-4.8v-2.292Zm-29.37,13.257a3.24,3.24,0,0,1-2.8-1.559l.318-.107a1.6,1.6,0,0,0,1.051-1.55V175a2.984,2.984,0,0,0,2.863,0v.6a1.6,1.6,0,0,0,1.051,1.55l.318.107A3.24,3.24,0,0,1,52.655,178.819Zm1.648-6.163-1,.67a1.162,1.162,0,0,1-1.294,0l-1-.67a5.768,5.768,0,0,1-2.565-4.8v-2.292a.853.853,0,0,1,.84-.851.784.784,0,0,1,.36.089c.476.243,2.4.824,6.007,1.881l.436.128a1.1,1.1,0,0,1,.783,1.046A5.768,5.768,0,0,1,54.3,172.657Zm5.944-1.731a.155.155,0,0,1-.151.151H58a7.614,7.614,0,0,0,.714-3.222,2.947,2.947,0,0,0-2.107-2.813l-.437-.128c-1.7-.5-5.234-1.532-5.687-1.754a2.634,2.634,0,0,0-2.59.1,2.676,2.676,0,0,0-1.289,2.3v2.292a7.614,7.614,0,0,0,.714,3.222h-2.1a.155.155,0,0,1-.151-.151v-5.393a7.592,7.592,0,1,1,15.184,0v5.393Zm9.2-.025-3.435-3.665a2.11,2.11,0,0,0,.774-1.629v-2.2l.6.4a3.614,3.614,0,0,0,2.024.617,3.657,3.657,0,0,0,2.1-.616l.6-.4v2.2a2.11,2.11,0,0,0,.775,1.63Zm9.391-11.544A9.384,9.384,0,0,0,76.8,165.2v1.4l-2.663-.736a.264.264,0,0,1-.194-.254V162.04a9.623,9.623,0,0,0,3.143-7.123l-.007-3.542a2.6,2.6,0,0,0-1.854-2.486,8.438,8.438,0,0,1-3.278-1.541,3.49,3.49,0,0,0-5.011,0,8.441,8.441,0,0,1-3.276,1.539,2.6,2.6,0,0,0-1.857,2.485l0,2.337a.921.921,0,0,0,.919.922h0a.921.921,0,0,0,.921-.919l0-2.339a.756.756,0,0,1,.538-.721,9.572,9.572,0,0,0,4.088-2.037,1.649,1.649,0,0,1,2.34,0,9.57,9.57,0,0,0,4.092,2.039.756.756,0,0,1,.535.721l.007,3.542a7.787,7.787,0,0,1-3.463,6.483l-1.305.873a1.793,1.793,0,0,1-1.048.3,1.77,1.77,0,0,1-1.024-.305l-1.3-.871a7.764,7.764,0,0,1-2.956-3.719.921.921,0,1,0-1.722.652,9.585,9.585,0,0,0,2.517,3.706v3.565a.265.265,0,0,1-.194.254l-2.663.736v-1.063a9.385,9.385,0,0,0-2.034-5.841v-8.129a9.392,9.392,0,1,1,18.783,0v7.794Z" transform="translate(-37.915 -125.646)"/>
      </g>
    </g>
  </g>
</svg>
