<svg xmlns="http://www.w3.org/2000/svg" xmlns:xlink="http://www.w3.org/1999/xlink" width="108" height="108" viewBox="0 0 108 108">
  <defs>
    <filter id="Fondo" x="0" y="0" width="108" height="108" filterUnits="userSpaceOnUse">
      <feOffset dy="3" input="SourceAlpha"/>
      <feGaussianBlur stdDeviation="3" result="blur"/>
      <feFlood flood-opacity="0.161"/>
      <feComposite operator="in" in2="blur"/>
      <feComposite in="SourceGraphic"/>
    </filter>
  </defs>
  <g id="Grupo_1144197" data-name="Grupo 1144197" transform="translate(-1166 -1227)">
    <g transform="matrix(1, 0, 0, 1, 1166, 1227)" filter="url(#Fondo)">
      <g id="Fondo-2" data-name="Fondo" transform="translate(9 6)" fill="#fcfaeb">
        <path d="M 45 88.5 C 39.12687683105469 88.5 33.43022537231445 87.35007476806641 28.06830024719238 85.08217620849609 C 22.88852500915527 82.89131164550781 18.23629951477051 79.75458526611328 14.2408504486084 75.75914764404297 C 10.24541282653809 71.76370239257812 7.108687400817871 67.11147308349609 4.917825222015381 61.93170166015625 C 2.649924993515015 56.56977462768555 1.5 50.87312316894531 1.5 45 C 1.5 39.12687683105469 2.649924993515015 33.43022537231445 4.917825222015381 28.06830024719238 C 7.108687400817871 22.88852500915527 10.24541282653809 18.23629951477051 14.2408504486084 14.2408504486084 C 18.23629951477051 10.24541282653809 22.88852500915527 7.108687400817871 28.06830024719238 4.917825222015381 C 33.43022537231445 2.649924993515015 39.12687683105469 1.5 45 1.5 C 50.87312316894531 1.5 56.56977462768555 2.649924993515015 61.93170166015625 4.917825222015381 C 67.11147308349609 7.108687400817871 71.76370239257812 10.24541282653809 75.75914764404297 14.2408504486084 C 79.75458526611328 18.23629951477051 82.89131164550781 22.88852500915527 85.08217620849609 28.06830024719238 C 87.35007476806641 33.43022537231445 88.5 39.12687683105469 88.5 45 C 88.5 50.87312316894531 87.35007476806641 56.56977462768555 85.08217620849609 61.93170166015625 C 82.89131164550781 67.11147308349609 79.75458526611328 71.76370239257812 75.75914764404297 75.75914764404297 C 71.76370239257812 79.75458526611328 67.11147308349609 82.89131164550781 61.93170166015625 85.08217620849609 C 56.56977462768555 87.35007476806641 50.87312316894531 88.5 45 88.5 Z" stroke="none"/>
        <path d="M 45 3 C 39.32871246337891 3 33.82865524291992 4.110054016113281 28.65262985229492 6.299339294433594 C 23.65165710449219 8.414573669433594 19.15968322753906 11.44334411621094 15.301513671875 15.301513671875 C 11.44334411621094 19.15968322753906 8.414573669433594 23.65165710449219 6.299339294433594 28.65262985229492 C 4.110054016113281 33.82865524291992 3 39.32871246337891 3 45 C 3 50.67128753662109 4.110054016113281 56.17134475708008 6.299339294433594 61.34737396240234 C 8.414573669433594 66.34834289550781 11.44334411621094 70.84031677246094 15.301513671875 74.698486328125 C 19.15968322753906 78.55665588378906 23.65165710449219 81.58542633056641 28.65262985229492 83.70066070556641 C 33.82865524291992 85.88994598388672 39.32871246337891 87 45 87 C 50.67128753662109 87 56.17134475708008 85.88994598388672 61.34737396240234 83.70066070556641 C 66.34834289550781 81.58542633056641 70.84031677246094 78.55665588378906 74.698486328125 74.698486328125 C 78.55665588378906 70.84031677246094 81.58542633056641 66.34834289550781 83.70066070556641 61.34737396240234 C 85.88994598388672 56.17134475708008 87 50.67128753662109 87 45 C 87 39.32871246337891 85.88994598388672 33.82865524291992 83.70066070556641 28.65262985229492 C 81.58542633056641 23.65165710449219 78.55665588378906 19.15968322753906 74.698486328125 15.301513671875 C 70.84031677246094 11.44334411621094 66.34834289550781 8.414573669433594 61.34737396240234 6.299339294433594 C 56.17134475708008 4.110054016113281 50.67128753662109 3 45 3 M 45 0 C 69.85281372070312 0 90 20.14718627929688 90 45 C 90 69.85281372070312 69.85281372070312 90 45 90 C 20.14718627929688 90 0 69.85281372070312 0 45 C 0 20.14718627929688 20.14718627929688 0 45 0 Z" stroke="none" fill="#bca724"/>
      </g>
    </g>
    <g id="Grupo_1144196" data-name="Grupo 1144196" transform="translate(1192.63 1249.632)">
      <g id="Grupo_1144192" data-name="Grupo 1144192" transform="translate(0.692 0.831)">
        <path id="Trazado_978922" data-name="Trazado 978922" d="M243.366,44.206h-.691a1.334,1.334,0,0,1-1.33-1.33V9.42a1.334,1.334,0,0,1,.841-1.236c.152-.06.354.032.527.032l.442.25c.731,0,1.338.2,1.338.932l.084,33.541A1.184,1.184,0,0,1,243.366,44.206Z" transform="translate(-215.291 -8.09)" fill="#ffd15b"/>
        <path id="Trazado_978923" data-name="Trazado 978923" d="M251.444,8.83V42.286a1.334,1.334,0,0,1-1.33,1.33h-.691a1.309,1.309,0,0,1-.489-.094,1.333,1.333,0,0,0,.842-1.236V8.83a1.333,1.333,0,0,0-.842-1.236,1.31,1.31,0,0,1,.489-.094h.691A1.334,1.334,0,0,1,251.444,8.83Z" transform="translate(-222.039 -7.5)" fill="#ffc143"/>
        <path id="Trazado_978924" data-name="Trazado 978924" d="M215.941,284.525l-3.214-.107h-4.872a1.334,1.334,0,0,0-1.33,1.33V287.3a1.332,1.332,0,0,0,1.33,1.328l4.434.89,3.665-1.05a1.2,1.2,0,0,0,1.33-1.168v-1.554A1.258,1.258,0,0,0,215.941,284.525Z" transform="translate(-184.33 -253.731)" fill="#ffe177"/>
        <path id="Trazado_978925" data-name="Trazado 978925" d="M264.747,285.747V287.3a1.331,1.331,0,0,1-1.329,1.328l-1.889.536-1.974-.536a1.332,1.332,0,0,0,1.33-1.328v-1.554a1.334,1.334,0,0,0-1.33-1.33h3.862A1.334,1.334,0,0,1,264.747,285.747Z" transform="translate(-231.483 -253.73)" fill="#ffd15b"/>
        <path id="Trazado_978926" data-name="Trazado 978926" d="M166.123,327.748v-3.807a1.523,1.523,0,0,1,1.523-1.523h8.406l8.284.146a1.388,1.388,0,0,1,1.5,1.376l-.085,4.873c0,.841-.291,1.523-1.132,1.523H170.99Z" transform="translate(-148.405 -287.52)" fill="#ffd15b"/>
        <path id="Trazado_978927" data-name="Trazado 978927" d="M263.3,323.943v4.873a1.523,1.523,0,0,1-1.523,1.524h-8.884a1.523,1.523,0,0,0,1.523-1.524v-4.873a1.522,1.522,0,0,0-1.523-1.523h8.884A1.522,1.522,0,0,1,263.3,323.943Z" transform="translate(-225.561 -287.522)" fill="#ffc143"/>
        <path id="Trazado_978928" data-name="Trazado 978928" d="M395.966,356.476l4.527-1.147a2.219,2.219,0,0,1,2.9,2.073,2.334,2.334,0,0,1-1.576,2.207l-4.216,1.773Z" transform="translate(-352.778 -316.713)" fill="#c46255"/>
        <path id="Trazado_978929" data-name="Trazado 978929" d="M52.584,358.2l2,.933c.633.007,3.386-1.76,4-1.917l5.448-1.392a2.592,2.592,0,0,1,1.631,4.906l-10.344,4.277a8.661,8.661,0,0,1-3.309.657H41.9a5.772,5.772,0,0,0-5.193,3.252l-.938,1.8a.774.774,0,0,1-.687.417l-12.1-.006a.317.317,0,0,1-.26-.5l5.294-7.589a5.746,5.746,0,0,0,1.033-3.214,5.367,5.367,0,0,1,2.165-4.239h0a5.428,5.428,0,0,1,3.248-1.072Z" transform="translate(-20.846 -316.063)" fill="#ce7165"/>
        <path id="Trazado_978930" data-name="Trazado 978930" d="M186.534,384.125l-11.87.436a1.213,1.213,0,0,1-1.309-1.107c0-.034,0-.068,0-.1a1.214,1.214,0,0,1,1.111-1.207l9.782-1.055,1.918-1.233h1.565a7.3,7.3,0,0,0,1.877-.225l2.968-.756C192.673,381.185,190.65,384.125,186.534,384.125Z" transform="translate(-154.831 -337.723)" fill="#c46255"/>
        <path id="Trazado_978931" data-name="Trazado 978931" d="M129.131,354.518h17a2.421,2.421,0,0,1,.184,4.836l-11.249.855Z" transform="translate(-115.512 -316.063)" fill="#ce7165"/>
        <path id="Trazado_978932" data-name="Trazado 978932" d="M79.153,63.384h39.3v3.5h-39.3Z" transform="translate(-71.073 -57.191)" fill="#ffc143"/>
        <path id="Trazado_978933" data-name="Trazado 978933" d="M8.974,176.68A9.568,9.568,0,0,1,7.637,175.3c-.031-.049-.128-.122-.158-.171a8.474,8.474,0,0,1,11.652-11.652c.068.042.146.183.213.227a8.918,8.918,0,0,1,1.223,1.287,7.69,7.69,0,0,1-.094,11.31c-3.3,3.3-8.193,3.684-11.5.378Z" transform="translate(-6.236 -145.089)" fill="#f2fbff"/>
        <path id="Trazado_978934" data-name="Trazado 978934" d="M30.675,186.676a8.48,8.48,0,0,1-1.287,1.057,31.129,31.129,0,0,1-4.643.695,27.686,27.686,0,0,1-4.776-.7,8.516,8.516,0,0,1-2.52-2.623A8.474,8.474,0,0,0,29.1,173.449a8.485,8.485,0,0,1,1.573,13.227Z" transform="translate(-16.207 -155.059)" fill="#dff6fd"/>
        <path id="Trazado_978935" data-name="Trazado 978935" d="M39.3,249.687v-.538a2.15,2.15,0,0,1,1.578-2.072l1.178-.254c.031-.009.095-.173.123-.186a.6.6,0,0,0,.349-.541v-2.382h3.16V246.1a.6.6,0,0,0,.351.543.683.683,0,0,0,.085.049l1.222.389a2.15,2.15,0,0,1,1.578,2.072v.538H39.3Z" transform="translate(-35.636 -217.538)" fill="#c46255"/>
        <path id="Trazado_978936" data-name="Trazado 978936" d="M57.762,198.548l.367.208a1.916,1.916,0,0,0,1.891,0l.367-.208a3.217,3.217,0,0,0,1.63-2.8v-.817a2.943,2.943,0,0,0-5.886,0v.817A3.217,3.217,0,0,0,57.762,198.548Z" transform="translate(-50.603 -171.55)" fill="#ce7165"/>
        <path id="Trazado_978937" data-name="Trazado 978937" d="M357.344,177.6c-.415-.415-1.064-.7-1.374-1.175-.045-.069-.215-.208-.258-.279A8.351,8.351,0,0,1,367.2,164.658c.066.041.13.13.2.173a7.056,7.056,0,0,1,1.111,1.117,7.753,7.753,0,0,1-.047,11.3c-3.256,3.256-7.854,3.608-11.112.349Z" transform="translate(-315.896 -146.154)" fill="#f2fbff"/>
        <path id="Trazado_978938" data-name="Trazado 978938" d="M378.575,187.519a8.354,8.354,0,0,1-1.253,1.03l-4.662-.144-4.631.151a8.4,8.4,0,0,1-2.488-2.588,8.351,8.351,0,0,0,11.483-11.484,8.362,8.362,0,0,1,1.55,13.035Z" transform="translate(-325.724 -155.98)" fill="#dff6fd"/>
        <path id="Trazado_978939" data-name="Trazado 978939" d="M386.536,249.687v-.538a2.15,2.15,0,0,1,1.578-2.072l1.225-.364c.034-.009.046-.06.077-.076a.624.624,0,0,0,.349-.541v-2.382h3.16V246.1a.6.6,0,0,0,.351.543c.028.013.052.087.081.1l1.226.343a2.15,2.15,0,0,1,1.578,2.072v.538h-9.625Z" transform="translate(-344.393 -217.538)" fill="#ffcebe"/>
        <path id="Trazado_978940" data-name="Trazado 978940" d="M405,198.548l.367.208a1.916,1.916,0,0,0,1.891,0l.367-.208a3.217,3.217,0,0,0,1.63-2.8v-.817a2.943,2.943,0,0,0-5.886,0v.817A3.217,3.217,0,0,0,405,198.548Z" transform="translate(-359.359 -171.55)" fill="#ffdfcf"/>
        <path id="Trazado_978941" data-name="Trazado 978941" d="M392.326,270.406a7.778,7.778,0,0,1-4.983,4.274h0a7.232,7.232,0,0,1-2.861-1.507l-.256-.692a2,2,0,0,1,.635-1.407,2.151,2.151,0,0,1,.94-.544l1.473-.407a.5.5,0,0,0,.089-.033l.079.178a2.094,2.094,0,0,0,3.7,0l.081-.176a.573.573,0,0,0,.086.031Z" transform="translate(-342.335 -240.991)" fill="#b3dafe"/>
        <path id="Trazado_978942" data-name="Trazado 978942" d="M408.139,54.107a2.734,2.734,0,0,1-2.77,2.935,3.007,3.007,0,0,1-2.889-1.778c0-.008-.025-.024-.028-.033a3.038,3.038,0,0,1,2.834-4.129,2.837,2.837,0,0,1,1.092.2A2.885,2.885,0,0,1,408.139,54.107Z" transform="translate(-358.365 -46.27)" fill="#ffe177"/>
        <path id="Trazado_978943" data-name="Trazado 978943" d="M409.059,57.919a3.037,3.037,0,0,1-4.294,0,3,3,0,0,1-.687-1.054A3.036,3.036,0,0,0,408,52.939a3,3,0,0,1,1.056.686A3.037,3.037,0,0,1,409.059,57.919Z" transform="translate(-359.991 -47.904)" fill="#ffd15b"/>
        <path id="Trazado_978944" data-name="Trazado 978944" d="M210.651,54.892l-3.1.228h-4.778a2.287,2.287,0,0,1-2.287-2.287V50.555a2.287,2.287,0,0,1,2.287-2.287H207.5l3.113.119a2.063,2.063,0,0,1,2.134,2.168v2.236A1.982,1.982,0,0,1,210.651,54.892Z" transform="translate(-178.959 -43.75)" fill="#ffe177"/>
        <path id="Trazado_978945" data-name="Trazado 978945" d="M267.186,50.556v2.279a2.287,2.287,0,0,1-2.287,2.287h-3.353a2.287,2.287,0,0,0,2.286-2.287V50.556a2.287,2.287,0,0,0-2.286-2.286H264.9A2.287,2.287,0,0,1,267.186,50.556Z" transform="translate(-233.253 -43.752)" fill="#ffd15b"/>
        <path id="Trazado_978946" data-name="Trazado 978946" d="M45.09,270.407A7.785,7.785,0,0,1,40.1,274.68h0a7.538,7.538,0,0,1-2.952-1.475l-.165-.73a2,2,0,0,1,.635-1.4,2.152,2.152,0,0,1,.94-.544l1.473-.407a.5.5,0,0,0,.089-.033l.079.178a2.094,2.094,0,0,0,3.7,0l.081-.176a.577.577,0,0,0,.087.031Z" transform="translate(-33.573 -240.991)" fill="#b3dafe"/>
        <path id="Trazado_978947" data-name="Trazado 978947" d="M47.086,275.145v1.6a9.147,9.147,0,0,1-10.137-.009v-1.591q0-.063,0-.126a9.118,9.118,0,0,0,8.109-2.069l.445.123a2.152,2.152,0,0,1,1.578,2.072Z" transform="translate(-33.546 -243.534)" fill="#8ac9fe"/>
        <path id="Trazado_978948" data-name="Trazado 978948" d="M394.327,275.136v1.589a9.135,9.135,0,0,1-10.137.007v-1.6c0-.041,0-.08,0-.121a9.105,9.105,0,0,0,8.1-2.076l.451.124a2.151,2.151,0,0,1,1.578,2.072Z" transform="translate(-342.308 -243.525)" fill="#8ac9fe"/>
        <path id="Trazado_978949" data-name="Trazado 978949" d="M61.761,54.107a2.734,2.734,0,0,1-2.77,2.935A3.007,3.007,0,0,1,56.1,55.264c0-.008-.025-.024-.028-.033A3.038,3.038,0,0,1,58.909,51.1a2.837,2.837,0,0,1,1.092.2A2.885,2.885,0,0,1,61.761,54.107Z" transform="translate(-50.372 -46.27)" fill="#ffe177"/>
        <path id="Trazado_978950" data-name="Trazado 978950" d="M62.682,57.919a3.037,3.037,0,0,1-4.294,0,3,3,0,0,1-.687-1.054,3.036,3.036,0,0,0,3.926-3.925,3,3,0,0,1,1.056.686A3.037,3.037,0,0,1,62.682,57.919Z" transform="translate(-51.998 -47.904)" fill="#ffd15b"/>
      </g>
      <g id="Grupo_1144193" data-name="Grupo 1144193" transform="translate(0.692 0.831)">
        <path id="Trazado_978951" data-name="Trazado 978951" d="M243.366,44.206h-.691a1.334,1.334,0,0,1-1.33-1.33V9.42a1.334,1.334,0,0,1,.841-1.236c.152-.06.354.032.527.032l.442.25c.731,0,1.338.2,1.338.932l.084,33.541A1.184,1.184,0,0,1,243.366,44.206Z" transform="translate(-215.291 -8.09)" fill="#ffd15b"/>
        <path id="Trazado_978952" data-name="Trazado 978952" d="M251.444,8.83V42.286a1.334,1.334,0,0,1-1.33,1.33h-.691a1.309,1.309,0,0,1-.489-.094,1.333,1.333,0,0,0,.842-1.236V8.83a1.333,1.333,0,0,0-.842-1.236,1.31,1.31,0,0,1,.489-.094h.691A1.334,1.334,0,0,1,251.444,8.83Z" transform="translate(-222.039 -7.5)" fill="#ffc143"/>
        <path id="Trazado_978953" data-name="Trazado 978953" d="M215.941,284.525l-3.214-.107h-4.872a1.334,1.334,0,0,0-1.33,1.33V287.3a1.332,1.332,0,0,0,1.33,1.328l4.434.89,3.665-1.05a1.2,1.2,0,0,0,1.33-1.168v-1.554A1.258,1.258,0,0,0,215.941,284.525Z" transform="translate(-184.33 -253.731)" fill="#ffe177"/>
        <path id="Trazado_978954" data-name="Trazado 978954" d="M264.747,285.747V287.3a1.331,1.331,0,0,1-1.329,1.328l-1.889.536-1.974-.536a1.332,1.332,0,0,0,1.33-1.328v-1.554a1.334,1.334,0,0,0-1.33-1.33h3.862A1.334,1.334,0,0,1,264.747,285.747Z" transform="translate(-231.483 -253.73)" fill="#ffd15b"/>
        <path id="Trazado_978955" data-name="Trazado 978955" d="M166.123,327.748v-3.807a1.523,1.523,0,0,1,1.523-1.523h8.406l8.284.146a1.388,1.388,0,0,1,1.5,1.376l-.085,4.873c0,.841-.291,1.523-1.132,1.523H170.99Z" transform="translate(-148.405 -287.52)" fill="#ffd15b"/>
        <path id="Trazado_978956" data-name="Trazado 978956" d="M263.3,323.943v4.873a1.523,1.523,0,0,1-1.523,1.524h-8.884a1.523,1.523,0,0,0,1.523-1.524v-4.873a1.522,1.522,0,0,0-1.523-1.523h8.884A1.522,1.522,0,0,1,263.3,323.943Z" transform="translate(-225.561 -287.522)" fill="#ffc143"/>
        <path id="Trazado_978957" data-name="Trazado 978957" d="M395.966,356.476l4.527-1.147a2.219,2.219,0,0,1,2.9,2.073,2.334,2.334,0,0,1-1.576,2.207l-4.216,1.773Z" transform="translate(-352.778 -316.713)" fill="#c46255"/>
        <path id="Trazado_978958" data-name="Trazado 978958" d="M52.584,358.2l2,.933c.633.007,3.386-1.76,4-1.917l5.448-1.392a2.592,2.592,0,0,1,1.631,4.906l-10.344,4.277a8.661,8.661,0,0,1-3.309.657H41.9a5.772,5.772,0,0,0-5.193,3.252l-.938,1.8a.774.774,0,0,1-.687.417l-12.1-.006a.317.317,0,0,1-.26-.5l5.294-7.589a5.746,5.746,0,0,0,1.033-3.214,5.367,5.367,0,0,1,2.165-4.239h0a5.428,5.428,0,0,1,3.248-1.072Z" transform="translate(-20.846 -316.063)" fill="#ce7165"/>
        <path id="Trazado_978959" data-name="Trazado 978959" d="M186.534,384.125l-11.87.436a1.213,1.213,0,0,1-1.309-1.107c0-.034,0-.068,0-.1a1.214,1.214,0,0,1,1.111-1.207l9.782-1.055,1.918-1.233h1.565a7.3,7.3,0,0,0,1.877-.225l2.968-.756C192.673,381.185,190.65,384.125,186.534,384.125Z" transform="translate(-154.831 -337.723)" fill="#c46255"/>
        <path id="Trazado_978960" data-name="Trazado 978960" d="M129.131,354.518h17a2.421,2.421,0,0,1,.184,4.836l-11.249.855Z" transform="translate(-115.512 -316.063)" fill="#ce7165"/>
        <path id="Trazado_978961" data-name="Trazado 978961" d="M79.153,63.384h39.3v3.5h-39.3Z" transform="translate(-71.073 -57.191)" fill="#ffc143"/>
        <path id="Trazado_978962" data-name="Trazado 978962" d="M8.974,176.68A9.568,9.568,0,0,1,7.637,175.3c-.031-.049-.128-.122-.158-.171a8.474,8.474,0,0,1,11.652-11.652c.068.042.146.183.213.227a8.918,8.918,0,0,1,1.223,1.287,7.69,7.69,0,0,1-.094,11.31c-3.3,3.3-8.193,3.684-11.5.378Z" transform="translate(-6.236 -145.089)" fill="#f2fbff"/>
        <path id="Trazado_978963" data-name="Trazado 978963" d="M30.675,186.676a8.48,8.48,0,0,1-1.287,1.057,31.129,31.129,0,0,1-4.643.695,27.686,27.686,0,0,1-4.776-.7,8.516,8.516,0,0,1-2.52-2.623A8.474,8.474,0,0,0,29.1,173.449a8.485,8.485,0,0,1,1.573,13.227Z" transform="translate(-16.207 -155.059)" fill="#dff6fd"/>
        <path id="Trazado_978964" data-name="Trazado 978964" d="M39.3,249.687v-.538a2.15,2.15,0,0,1,1.578-2.072l1.178-.254c.031-.009.095-.173.123-.186a.6.6,0,0,0,.349-.541v-2.382h3.16V246.1a.6.6,0,0,0,.351.543.683.683,0,0,0,.085.049l1.222.389a2.15,2.15,0,0,1,1.578,2.072v.538H39.3Z" transform="translate(-35.636 -217.538)" fill="#c46255"/>
        <path id="Trazado_978965" data-name="Trazado 978965" d="M57.762,198.548l.367.208a1.916,1.916,0,0,0,1.891,0l.367-.208a3.217,3.217,0,0,0,1.63-2.8v-.817a2.943,2.943,0,0,0-5.886,0v.817A3.217,3.217,0,0,0,57.762,198.548Z" transform="translate(-50.603 -171.55)" fill="#ce7165"/>
        <path id="Trazado_978966" data-name="Trazado 978966" d="M357.344,177.6c-.415-.415-1.064-.7-1.374-1.175-.045-.069-.215-.208-.258-.279A8.351,8.351,0,0,1,367.2,164.658c.066.041.13.13.2.173a7.056,7.056,0,0,1,1.111,1.117,7.753,7.753,0,0,1-.047,11.3c-3.256,3.256-7.854,3.608-11.112.349Z" transform="translate(-315.896 -146.154)" fill="#f2fbff"/>
        <path id="Trazado_978967" data-name="Trazado 978967" d="M378.575,187.519a8.354,8.354,0,0,1-1.253,1.03l-4.662-.144-4.631.151a8.4,8.4,0,0,1-2.488-2.588,8.351,8.351,0,0,0,11.483-11.484,8.362,8.362,0,0,1,1.55,13.035Z" transform="translate(-325.724 -155.98)" fill="#dff6fd"/>
        <path id="Trazado_978968" data-name="Trazado 978968" d="M386.536,249.687v-.538a2.15,2.15,0,0,1,1.578-2.072l1.225-.364c.034-.009.046-.06.077-.076a.624.624,0,0,0,.349-.541v-2.382h3.16V246.1a.6.6,0,0,0,.351.543c.028.013.052.087.081.1l1.226.343a2.15,2.15,0,0,1,1.578,2.072v.538h-9.625Z" transform="translate(-344.393 -217.538)" fill="#ffcebe"/>
        <path id="Trazado_978969" data-name="Trazado 978969" d="M405,198.548l.367.208a1.916,1.916,0,0,0,1.891,0l.367-.208a3.217,3.217,0,0,0,1.63-2.8v-.817a2.943,2.943,0,0,0-5.886,0v.817A3.217,3.217,0,0,0,405,198.548Z" transform="translate(-359.359 -171.55)" fill="#ffdfcf"/>
        <path id="Trazado_978970" data-name="Trazado 978970" d="M392.326,270.406a7.778,7.778,0,0,1-4.983,4.274h0a7.232,7.232,0,0,1-2.861-1.507l-.256-.692a2,2,0,0,1,.635-1.407,2.151,2.151,0,0,1,.94-.544l1.473-.407a.5.5,0,0,0,.089-.033l.079.178a2.094,2.094,0,0,0,3.7,0l.081-.176a.573.573,0,0,0,.086.031Z" transform="translate(-342.335 -240.991)" fill="#b3dafe"/>
        <path id="Trazado_978971" data-name="Trazado 978971" d="M408.139,54.107a2.734,2.734,0,0,1-2.77,2.935,3.007,3.007,0,0,1-2.889-1.778c0-.008-.025-.024-.028-.033a3.038,3.038,0,0,1,2.834-4.129,2.837,2.837,0,0,1,1.092.2A2.885,2.885,0,0,1,408.139,54.107Z" transform="translate(-358.365 -46.27)" fill="#ffe177"/>
        <path id="Trazado_978972" data-name="Trazado 978972" d="M409.059,57.919a3.037,3.037,0,0,1-4.294,0,3,3,0,0,1-.687-1.054A3.036,3.036,0,0,0,408,52.939a3,3,0,0,1,1.056.686A3.037,3.037,0,0,1,409.059,57.919Z" transform="translate(-359.991 -47.904)" fill="#ffd15b"/>
        <path id="Trazado_978973" data-name="Trazado 978973" d="M210.651,54.892l-3.1.228h-4.778a2.287,2.287,0,0,1-2.287-2.287V50.555a2.287,2.287,0,0,1,2.287-2.287H207.5l3.113.119a2.063,2.063,0,0,1,2.134,2.168v2.236A1.982,1.982,0,0,1,210.651,54.892Z" transform="translate(-178.959 -43.75)" fill="#ffe177"/>
        <path id="Trazado_978974" data-name="Trazado 978974" d="M267.186,50.556v2.279a2.287,2.287,0,0,1-2.287,2.287h-3.353a2.287,2.287,0,0,0,2.286-2.287V50.556a2.287,2.287,0,0,0-2.286-2.286H264.9A2.287,2.287,0,0,1,267.186,50.556Z" transform="translate(-233.253 -43.752)" fill="#ffd15b"/>
        <path id="Trazado_978975" data-name="Trazado 978975" d="M45.09,270.407A7.785,7.785,0,0,1,40.1,274.68h0a7.538,7.538,0,0,1-2.952-1.475l-.165-.73a2,2,0,0,1,.635-1.4,2.152,2.152,0,0,1,.94-.544l1.473-.407a.5.5,0,0,0,.089-.033l.079.178a2.094,2.094,0,0,0,3.7,0l.081-.176a.577.577,0,0,0,.087.031Z" transform="translate(-33.573 -240.991)" fill="#b3dafe"/>
        <path id="Trazado_978976" data-name="Trazado 978976" d="M47.086,275.145v1.6a9.147,9.147,0,0,1-10.137-.009v-1.591q0-.063,0-.126a9.118,9.118,0,0,0,8.109-2.069l.445.123a2.152,2.152,0,0,1,1.578,2.072Z" transform="translate(-33.546 -243.534)" fill="#8ac9fe"/>
        <path id="Trazado_978977" data-name="Trazado 978977" d="M394.327,275.136v1.589a9.135,9.135,0,0,1-10.137.007v-1.6c0-.041,0-.08,0-.121a9.105,9.105,0,0,0,8.1-2.076l.451.124a2.151,2.151,0,0,1,1.578,2.072Z" transform="translate(-342.308 -243.525)" fill="#8ac9fe"/>
        <path id="Trazado_978978" data-name="Trazado 978978" d="M61.761,54.107a2.734,2.734,0,0,1-2.77,2.935A3.007,3.007,0,0,1,56.1,55.264c0-.008-.025-.024-.028-.033A3.038,3.038,0,0,1,58.909,51.1a2.837,2.837,0,0,1,1.092.2A2.885,2.885,0,0,1,61.761,54.107Z" transform="translate(-50.372 -46.27)" fill="#ffe177"/>
        <path id="Trazado_978979" data-name="Trazado 978979" d="M62.682,57.919a3.037,3.037,0,0,1-4.294,0,3,3,0,0,1-.687-1.054,3.036,3.036,0,0,0,3.926-3.925,3,3,0,0,1,1.056.686A3.037,3.037,0,0,1,62.682,57.919Z" transform="translate(-51.998 -47.904)" fill="#ffd15b"/>
      </g>
      <g id="Grupo_1144194" data-name="Grupo 1144194" transform="translate(0.001 0)">
        <path id="Trazado_978980" data-name="Trazado 978980" d="M16.332,461.819a.831.831,0,0,0-1.157.206l-2.726,3.908a.831.831,0,0,0,1.363.951l2.726-3.908A.831.831,0,0,0,16.332,461.819Z" transform="translate(-10.937 -410.51)"/>
        <path id="Trazado_978981" data-name="Trazado 978981" d="M154.817,429.3l-3.337,1.38a7.789,7.789,0,0,1-2.991.594H138.375a6.641,6.641,0,0,0-5.936,3.71l-1.15,2.21a.831.831,0,1,0,1.475.767l1.155-2.22.011-.021a4.969,4.969,0,0,1,4.445-2.784h10.113a9.444,9.444,0,0,0,3.626-.72l3.337-1.38a.831.831,0,1,0-.635-1.536Z" transform="translate(-116.657 -381.667)"/>
        <path id="Trazado_978982" data-name="Trazado 978982" d="M39.322,22.6a9.136,9.136,0,1,0,16.561,0c0-.011-.008-.022-.013-.033L50.595,11.125a3.865,3.865,0,0,0-5.951-4.932H35.073A3.121,3.121,0,0,0,32.31,4.518H30.9V2.161A2.163,2.163,0,0,0,28.74,0h-.691a2.163,2.163,0,0,0-2.161,2.161V4.518h-1.41a3.121,3.121,0,0,0-2.763,1.675H19.434a.831.831,0,0,0,0,1.662h1.926V9.7h-8.42a3.852,3.852,0,0,0,.037-1.84H15.47a.831.831,0,0,0,0-1.662H12.144a3.865,3.865,0,0,0-5.982,4.894L.87,22.567a9.136,9.136,0,1,0,16.534,0L12.236,11.358h9.479a3.12,3.12,0,0,0,2.763,1.675h1.41V30.659h-1.7a2.163,2.163,0,0,0-2.161,2.161V34.9H19.906a2.357,2.357,0,0,0-2.354,2.354v1.2H14.274a6.3,6.3,0,0,0-3.735,1.236,6.235,6.235,0,0,0-2.5,4.9,4.9,4.9,0,0,1-.884,2.749l-.665.953a.831.831,0,0,0,1.363.951l.665-.953A6.552,6.552,0,0,0,9.7,44.608a4.563,4.563,0,0,1,1.83-3.583,4.626,4.626,0,0,1,2.743-.908H31.283a1.59,1.59,0,0,1,.121,3.176l-11.249.855a.831.831,0,1,0,.126,1.657L31.53,44.95A3.25,3.25,0,0,0,33.769,43.8a8.065,8.065,0,0,0,1.873-.25L44.058,41.4a1.761,1.761,0,0,1,2.2,1.706,1.779,1.779,0,0,1-1.211,1.678L41.7,46.163A.831.831,0,1,0,42.34,47.7c1.9-.776,5.756-2.394,7.658-3.2a3.166,3.166,0,0,0,2.109-2.984A2.885,2.885,0,0,0,50.993,39.2a3.258,3.258,0,0,0-2.817-.556c-2.248.568-6.694,1.7-8.939,2.273V37.252A2.357,2.357,0,0,0,36.882,34.9H34.759V32.82A2.163,2.163,0,0,0,32.6,30.659H30.9V26.932a.831.831,0,0,0-1.662,0v3.728H27.55V13.033h1.689v9.935a.831.831,0,1,0,1.662,0V13.033h1.41a3.12,3.12,0,0,0,2.763-1.675H44.5L39.336,22.567c-.005.011-.009.022-.013.033ZM9.2,6.494A2.2,2.2,0,1,1,7,8.7,2.208,2.208,0,0,1,9.2,6.494Zm4.172,26.1a7.456,7.456,0,0,1-8.475,0v-.156a1.319,1.319,0,0,1,.968-1.271l.95-.262a2.924,2.924,0,0,0,4.637,0l.95.262a1.319,1.319,0,0,1,.968,1.271V32.6Zm-3.341-2.581a1.267,1.267,0,0,1-1.793,0,1.417,1.417,0,0,0,.148-.628v-.377a2.741,2.741,0,0,0,1.5,0v.377a1.419,1.419,0,0,0,.148.628Zm-.361-2.7a1.091,1.091,0,0,1-1.071,0l-.367-.208a2.39,2.39,0,0,1-1.209-2.075v-.817a2.112,2.112,0,0,1,4.224,0v.817a2.391,2.391,0,0,1-1.209,2.075Zm6.938-.864a7.431,7.431,0,0,1-1.8,4.855,2.971,2.971,0,0,0-1.961-1.737l-1.3-.359V28.058a4.056,4.056,0,0,0,1.363-3.027v-.817a3.774,3.774,0,0,0-7.548,0v.817a4.056,4.056,0,0,0,1.363,3.027V29.21l-1.3.359a2.972,2.972,0,0,0-1.961,1.737A7.469,7.469,0,1,1,16.61,26.451Zm-2.883-7.89a9.108,9.108,0,0,0-9.181,0l2.948-6.394a3.856,3.856,0,0,0,3.308.05ZM48.58,40.254a1.628,1.628,0,0,1,1.389.253,1.235,1.235,0,0,1,.477,1.014,1.5,1.5,0,0,1-1.015,1.421c-.064.021-1.487.625-1.548.649a3.452,3.452,0,0,0,.035-.484,3.4,3.4,0,0,0-1.01-2.428ZM27.549,2.161a.505.505,0,0,1,.5-.5h.691a.505.505,0,0,1,.5.5V4.518H27.549ZM37.574,37.252v4.086l-2.343.6a6.433,6.433,0,0,1-.717.139,3.244,3.244,0,0,0-3.231-3.62H19.214v-1.2a.693.693,0,0,1,.692-.692H36.882a.693.693,0,0,1,.692.692ZM32.6,32.322a.505.505,0,0,1,.5.5V34.9H23.691V32.82a.505.505,0,0,1,.5-.5ZM33.766,9.915A1.457,1.457,0,0,1,32.31,11.37H24.477a1.457,1.457,0,0,1-1.456-1.456V7.636A1.457,1.457,0,0,1,24.477,6.18H32.31a1.457,1.457,0,0,1,1.456,1.456ZM35.428,9.7V7.855h8.383a3.852,3.852,0,0,0,.037,1.84h-8.42ZM51.84,32.6a7.456,7.456,0,0,1-8.475,0v-.156a1.319,1.319,0,0,1,.968-1.271l.95-.262a2.924,2.924,0,0,0,4.637,0l.95.262a1.319,1.319,0,0,1,.968,1.271ZM48.5,30.018a1.267,1.267,0,0,1-1.793,0,1.417,1.417,0,0,0,.148-.628v-.377a2.741,2.741,0,0,0,1.5,0v.377a1.417,1.417,0,0,0,.148.628Zm-.361-2.7a1.091,1.091,0,0,1-1.071,0l-.367-.208a2.39,2.39,0,0,1-1.209-2.075v-.817a2.112,2.112,0,0,1,4.224,0v.817a2.391,2.391,0,0,1-1.209,2.075ZM47.586,6.494A2.2,2.2,0,1,1,45.38,8.7a2.208,2.208,0,0,1,2.206-2.2ZM45.945,12.2a3.861,3.861,0,0,0,3.309-.013l2.939,6.374a9.108,9.108,0,0,0-9.181,0ZM47.6,18.983a7.462,7.462,0,0,1,5.672,12.324,2.972,2.972,0,0,0-1.961-1.737l-1.3-.359V28.058a4.056,4.056,0,0,0,1.363-3.027v-.817a3.774,3.774,0,0,0-7.548,0v.817a4.056,4.056,0,0,0,1.363,3.027V29.21l-1.3.359a2.972,2.972,0,0,0-1.961,1.737A7.462,7.462,0,0,1,47.6,18.983Z" transform="translate(-0.001 0)"/>
      </g>
    </g>
  </g>
</svg>
