<svg xmlns="http://www.w3.org/2000/svg" xmlns:xlink="http://www.w3.org/1999/xlink" width="108" height="108" viewBox="0 0 108 108">
  <defs>
    <filter id="Fondo" x="0" y="0" width="108" height="108" filterUnits="userSpaceOnUse">
      <feOffset dy="3" input="SourceAlpha"/>
      <feGaussianBlur stdDeviation="3" result="blur"/>
      <feFlood flood-opacity="0.161"/>
      <feComposite operator="in" in2="blur"/>
      <feComposite in="SourceGraphic"/>
    </filter>
  </defs>
  <g id="Grupo_1144246" data-name="Grupo 1144246" transform="translate(-1166 -2143)">
    <g transform="matrix(1, 0, 0, 1, 1166, 2143)" filter="url(#Fondo)">
      <g id="Fondo-2" data-name="Fondo" transform="translate(9 6)" fill="#e5f0f6" stroke="#1172b3" stroke-width="3">
        <circle cx="45" cy="45" r="45" stroke="none"/>
        <circle cx="45" cy="45" r="43.5" fill="none"/>
      </g>
    </g>
    <g id="Grupo_1144245" data-name="Grupo 1144245" transform="translate(1188 2162.207)">
      <g id="Grupo_1144244" data-name="Grupo 1144244">
        <g id="Grupo_1144226" data-name="Grupo 1144226">
          <path id="Trazado_979028" data-name="Trazado 979028" d="M22.05,56.12,21,62H15s.74-5.42,2.22-11.62Z" fill="#e6e9ed"/>
        </g>
        <g id="Grupo_1144227" data-name="Grupo 1144227">
          <path id="Trazado_979029" data-name="Trazado 979029" d="M22.05,56.12,27,62H21Z" fill="#e6e9ed"/>
        </g>
        <g id="Grupo_1144228" data-name="Grupo 1144228">
          <path id="Trazado_979030" data-name="Trazado 979030" d="M28,34l3.74,20.94L27,50.95V34Z" fill="#e6e9ed"/>
        </g>
        <g id="Grupo_1144229" data-name="Grupo 1144229">
          <path id="Trazado_979031" data-name="Trazado 979031" d="M26,34,23.5,48l-4.57-3.85C20.27,39.91,21.96,36.04,24,34Z" fill="#e6e9ed"/>
        </g>
        <g id="Grupo_1144230" data-name="Grupo 1144230">
          <path id="Trazado_979032" data-name="Trazado 979032" d="M30,34c6,6,9,28,9,28H33V56l-1.26-1.06L28,34Z" fill="#e6e9ed"/>
        </g>
        <g id="Grupo_1144231" data-name="Grupo 1144231">
          <path id="Trazado_979033" data-name="Trazado 979033" d="M27,34V50.95L23.5,48,26,34Z" fill="#e6e9ed"/>
        </g>
        <g id="Grupo_1144232" data-name="Grupo 1144232">
          <path id="Trazado_979034" data-name="Trazado 979034" d="M32.91,28.92a4.284,4.284,0,0,1,.09.87,4.11,4.11,0,0,1-1.84,3.43L30,34H24l-1.16-.78A4.09,4.09,0,0,1,21.01,30l.62-.21A24.016,24.016,0,0,0,31,24l1.71,4.26a5.526,5.526,0,0,1,.2.66Z" fill="#e6e9ed"/>
        </g>
        <g id="Grupo_1144233" data-name="Grupo 1144233">
          <path id="Trazado_979035" data-name="Trazado 979035" d="M60,38v2a4,4,0,1,1-8,0V38Z" fill="#b27946"/>
        </g>
        <g id="Grupo_1144234" data-name="Grupo 1144234">
          <path id="Trazado_979036" data-name="Trazado 979036" d="M46,38v2a4,4,0,1,1-8,0V38Z" fill="#b27946"/>
        </g>
        <g id="Grupo_1144235" data-name="Grupo 1144235">
          <path id="Trazado_979037" data-name="Trazado 979037" d="M34.65,13.31A3.247,3.247,0,0,1,35,14.78a3.29,3.29,0,0,1-2.07,3.05l-2.26.9A5.415,5.415,0,0,0,31,16.88V13.82A6.843,6.843,0,0,1,27.17,15h-.34A6.843,6.843,0,0,1,23,13.82v3.06a5.415,5.415,0,0,0,.33,1.85l-2.26-.9A3.29,3.29,0,0,1,19,14.78a3.247,3.247,0,0,1,.35-1.47L21,10H33Z" fill="#656d78"/>
        </g>
        <g id="Grupo_1144236" data-name="Grupo 1144236">
          <path id="Trazado_979038" data-name="Trazado 979038" d="M34,4l-1,6H21L20,4l4,1,3-3,3,3Z" fill="#fcd770"/>
        </g>
        <g id="Grupo_1144237" data-name="Grupo 1144237">
          <path id="Trazado_979039" data-name="Trazado 979039" d="M49,17.5a5.772,5.772,0,0,1-.73,2.81L44.78,26.6a2.991,2.991,0,0,1-2.38,1.53l-9.49.79a5.526,5.526,0,0,0-.2-.66L31,24H41l3-5V17.5a2.5,2.5,0,1,1,5,0Z" fill="#f0d0b4"/>
        </g>
        <g id="Grupo_1144238" data-name="Grupo 1144238">
          <path id="Trazado_979040" data-name="Trazado 979040" d="M23,13.82A6.843,6.843,0,0,0,26.83,15h.34A6.843,6.843,0,0,0,31,13.82v3.06a5.415,5.415,0,0,1-.33,1.85h-.01A5.26,5.26,0,0,1,27,22a5.277,5.277,0,0,1-2.21-1.16,4.99,4.99,0,0,1-.67-.71,5.069,5.069,0,0,1-.78-1.4h-.01A5.415,5.415,0,0,1,23,16.88V13.83Z" fill="#f0d0b4"/>
        </g>
        <g id="Grupo_1144239" data-name="Grupo 1144239">
          <path id="Trazado_979041" data-name="Trazado 979041" d="M29.81,23.24a1,1,0,0,0,.97.76H31a24.016,24.016,0,0,1-9.37,5.79l-.62.21a1.477,1.477,0,0,1-.01-.21,4.188,4.188,0,0,1,.09-.86,3.964,3.964,0,0,1,.2-.67L23,24h.22a1,1,0,0,0,.97-.76l.6-2.4A5.277,5.277,0,0,0,27,22a5.277,5.277,0,0,0,2.21-1.16Z" fill="#f0d0b4"/>
        </g>
        <g id="Grupo_1144240" data-name="Grupo 1144240">
          <path id="Trazado_979042" data-name="Trazado 979042" d="M23,24l-1.71,4.26a3.964,3.964,0,0,0-.2.67L11,37l-.34,1.01A2.877,2.877,0,0,1,8,39.99a.277.277,0,0,1-.09.01A2.9,2.9,0,0,1,5,37.09.277.277,0,0,1,5.01,37a2.877,2.877,0,0,1,1.98-2.66L8,34l9.57-8.7A4.982,4.982,0,0,1,20.93,24Z" fill="#f0d0b4"/>
        </g>
        <g id="Grupo_1144241" data-name="Grupo 1144241">
          <path id="Trazado_979043" data-name="Trazado 979043" d="M6.99,34.34A2.877,2.877,0,0,0,5.01,37H5L2.62,34.62a2.121,2.121,0,0,1,3-3L8,34Z" fill="#969faa"/>
        </g>
        <g id="Grupo_1144242" data-name="Grupo 1144242">
          <path id="Trazado_979044" data-name="Trazado 979044" d="M11,37l3,3-3,3L8,40v-.01a2.877,2.877,0,0,0,2.66-1.98Z" fill="#969faa"/>
        </g>
        <g id="Grupo_1144243" data-name="Grupo 1144243">
          <path id="Trazado_979045" data-name="Trazado 979045" d="M33,62H27l-4.95-5.88-4.83-5.74L11,43l3-3,4.93,4.15L23.5,48,27,50.95l4.74,3.99L33,56Z" fill="#ffeaa7"/>
        </g>
      </g>
      <path id="Trazado_979046" data-name="Trazado 979046" d="M63,31H50V17.5a3.5,3.5,0,0,0-7,0v1.223L40.434,23H30.78l-.467-1.868A6.27,6.27,0,0,0,31.4,19.517l1.908-.763A4.265,4.265,0,0,0,36,14.775a4.324,4.324,0,0,0-.452-1.917L34.04,9.843l1.2-7.183L30.307,3.892,27,.586,23.693,3.893,18.763,2.66l1.2,7.183L18.453,12.86a4.283,4.283,0,0,0,2.241,5.894l1.908.763a6.258,6.258,0,0,0,1.084,1.615L23.219,23H20.933A5.986,5.986,0,0,0,16.9,24.561L8.033,32.619l-1.7-1.7a3.121,3.121,0,0,0-4.414,4.414L4.036,37.45A3.885,3.885,0,0,0,7.55,40.964L9.586,43,8.293,44.293l1.414,1.414,1.23-1.23,5.193,6.167c-1.4,5.966-2.114,11.168-2.121,11.221L13.854,63H40.146l-.154-1.135c-.12-.872-2.862-20.546-8.492-27.664l.219-.146A5.109,5.109,0,0,0,34,29.836l8.49-.708a3.99,3.99,0,0,0,3.164-2.043L48,22.858V31H35v2h4.382L37,37.764V40a5,5,0,0,0,10,0V37.764L44.618,33h8.764L51,37.764V40a5,5,0,0,0,10,0V37.764L58.618,33H63ZM24.586,47.607,26,39.688V48.8ZM28,39.688l2.269,12.705L28,50.482ZM22.82,46.12l-2.728-2.3c1.379-4.192,2.841-7.154,4.354-8.823H24.8Zm-4.373-3.682-2.97-2.5,1.23-1.23-1.414-1.414L14,38.586l-1.5-1.5,7.643-6.115a5.107,5.107,0,0,0,2.141,3.087l.217.144A28.559,28.559,0,0,0,18.447,42.438Zm5.257-17.5a1.99,1.99,0,0,0,1.455-1.448l.26-1.039a6.338,6.338,0,0,0,1.339.524l.242.06.242-.061a6.232,6.232,0,0,0,1.339-.524l.26,1.039a1.98,1.98,0,0,0,.4.787,23.13,23.13,0,0,1-6.962,4.214Zm.3-9.465A7.835,7.835,0,0,0,26.828,16h.344A7.831,7.831,0,0,0,30,15.469v1.408a4.274,4.274,0,0,1-3,4.084,4.274,4.274,0,0,1-3-4.084Zm.307-9.362L27,3.414l2.693,2.693,3.069-.768L32.153,9H21.847l-.609-3.66ZM21.437,16.9A2.277,2.277,0,0,1,20,14.775a2.312,2.312,0,0,1,.241-1.022L21.618,11H32.382l1.377,2.752A2.319,2.319,0,0,1,34,14.775,2.277,2.277,0,0,1,32.563,16.9l-.585.234c0-.086.022-.168.022-.255v-2.55a7.94,7.94,0,0,0,.707-.62l-1.414-1.414A5.789,5.789,0,0,1,27.172,14h-.344a5.787,5.787,0,0,1-4.121-1.707l-1.414,1.414a7.94,7.94,0,0,0,.707.62v2.55c0,.087.018.169.021.255ZM3,33.121a1.121,1.121,0,0,1,1.914-.793L6.182,33.6a3.885,3.885,0,0,0-1.64,1.532L3.328,33.914A1.129,1.129,0,0,1,3,33.121ZM6,37.1a1.905,1.905,0,0,1,1.3-1.809l1.213-.4,9.726-8.841A3.989,3.989,0,0,1,20.933,25h.59l-1.156,2.891c-.057.142-.085.292-.129.438L10.144,36.4,9.713,37.7A1.905,1.905,0,0,1,6,37.1Zm3.872,3.363a3.885,3.885,0,0,0,1.532-1.64L12.586,40,11,41.586Zm7.873,12.1,3.237,3.844L20.163,61h-4C16.411,59.381,16.944,56.2,17.745,52.563ZM22.194,61l.465-2.6L24.851,61ZM12.356,43.058l1.7-1.7L32,56.465v3.121L17.707,45.293l-1.414,1.414L30.586,61H27.465ZM34,61V55.535l-1.34-1.128L29.194,35h.368c4.769,5.266,7.584,21.545,8.278,26ZM30.609,32.392,29.7,33H24.3l-.912-.608a3.1,3.1,0,0,1-1.253-1.722,25.12,25.12,0,0,0,8.478-4.937l1.162,2.9a3.121,3.121,0,0,1-1.168,3.756ZM47.4,19.825,43.9,26.115a2,2,0,0,1-1.582,1.021l-8.7.725L32.477,25h9.089L45,19.277V17.5a1.5,1.5,0,1,1,3,0,4.788,4.788,0,0,1-.6,2.325ZM42,43a3,3,0,0,1-3-3V39h6v1A3,3,0,0,1,42,43Zm2.382-6H39.618l2-4h.764ZM56,43a3,3,0,0,1-3-3V39h6v1A3,3,0,0,1,56,43Zm2.382-6H53.618l2-4h.764Z"/>
    </g>
  </g>
</svg>
