<svg xmlns="http://www.w3.org/2000/svg" width="409.422" height="382.701" viewBox="0 0 409.422 382.701">
  <g id="_18407468_5995355" data-name="18407468_5995355" transform="translate(-33.365 -29.707)">
    <g id="Speech_Bubble" transform="translate(362.303 97.656)">
      <g id="Grupo_43841" data-name="Grupo 43841">
        <g id="Grupo_43836" data-name="Grupo 43836">
          <g id="Grupo_43835" data-name="Grupo 43835">
            <g id="Grupo_43834" data-name="Grupo 43834">
              <g id="Grupo_43833" data-name="Grupo 43833">
                <g id="Grupo_43832" data-name="Grupo 43832">
                  <g id="Grupo_43831" data-name="Grupo 43831">
                    <g id="Grupo_43830" data-name="Grupo 43830">
                      <g id="Grupo_43829" data-name="Grupo 43829">
                        <g id="Grupo_43828" data-name="Grupo 43828">
                          <g id="Grupo_43827" data-name="Grupo 43827">
                            <g id="Grupo_43826" data-name="Grupo 43826">
                              <g id="Grupo_43825" data-name="Grupo 43825">
                                <g id="Grupo_43824" data-name="Grupo 43824">
                                  <g id="Grupo_43821" data-name="Grupo 43821" transform="translate(0.091 0.162)">
                                    <path id="Trazado_14247" data-name="Trazado 14247" d="M372.4,158.928l3.4-10.777A33.4,33.4,0,1,1,402.687,166.6a31.417,31.417,0,0,1-19.223-8.35h0Z" transform="translate(-372.263 -99.86)" fill="#fafafa"/>
                                  </g>
                                  <g id="Grupo_43823" data-name="Grupo 43823">
                                    <g id="Grupo_43822" data-name="Grupo 43822">
                                      <path id="Trazado_14248" data-name="Trazado 14248" d="M372.393,158.924a4.4,4.4,0,0,0,.777-.1c.485,0,1.165-.1,2.136-.194,1.845-.1,4.66-.291,8.252-.583h0a31.594,31.594,0,0,0,14.563,7.573,40.853,40.853,0,0,0,5.146.777c.874,0,1.845.1,2.718.1s1.845-.1,2.816-.194a34.383,34.383,0,0,0,11.553-3.2,33.766,33.766,0,0,0,17.379-20.486,34.051,34.051,0,0,0,.874-15.049c-.194-1.262-.582-2.524-.874-3.786a6,6,0,0,0-.68-1.845c-.194-.582-.485-1.262-.68-1.845A37.868,37.868,0,0,0,432.3,113.2a38.818,38.818,0,0,0-2.621-3.01c-.388-.485-.971-.874-1.456-1.359s-.971-.874-1.456-1.359l-1.553-1.165-.777-.582-.874-.486-1.651-.971-1.747-.874a32.937,32.937,0,0,0-14.757-3.2,32.4,32.4,0,0,0-13.787,3.3,33.5,33.5,0,0,0-16.7,18.253c-.194.485-.291.874-.485,1.359a7.137,7.137,0,0,0-.388,1.359c-.194.874-.485,1.748-.68,2.621a49.1,49.1,0,0,0-.583,5.146,32.46,32.46,0,0,0,3.4,16.02h0c-1.165,3.5-2.039,6.117-2.621,7.961-.291.874-.485,1.553-.68,2.039a1.994,1.994,0,0,0-.485.68,3.036,3.036,0,0,0,.194-.68c.1-.485.388-1.165.583-2.039.583-1.845,1.456-4.563,2.524-8.058v.1a32.8,32.8,0,0,1-3.5-16.117,49.135,49.135,0,0,1,.582-5.146c.194-.874.388-1.748.68-2.718a7.151,7.151,0,0,1,.388-1.359c.194-.485.291-.874.485-1.359A33.51,33.51,0,0,1,420.063,102.9l1.748.874,1.748,1.068.874.485.777.582,1.65,1.165c.485.388.971.874,1.553,1.359.486.485,1.068.874,1.456,1.359a27.64,27.64,0,0,1,2.621,3.107,34.138,34.138,0,0,1,4.175,6.99,14.151,14.151,0,0,1,.68,1.845c.194.68.485,1.262.68,1.942a25.1,25.1,0,0,1,.874,3.883,33.441,33.441,0,0,1-.874,15.243,32.124,32.124,0,0,1-6.99,12.621,33.741,33.741,0,0,1-10.68,8.058,33.241,33.241,0,0,1-11.748,3.2c-.971,0-1.942.1-2.816.1-.971,0-1.845-.1-2.718-.1a28.522,28.522,0,0,1-5.146-.777,31.141,31.141,0,0,1-14.563-7.67h.1c-3.593.194-6.408.291-8.35.388-.874,0-1.65.1-2.136.1A1.5,1.5,0,0,1,372.393,158.924Z" transform="translate(-372.169 -99.694)" fill="#263238"/>
                                    </g>
                                  </g>
                                </g>
                              </g>
                            </g>
                          </g>
                        </g>
                      </g>
                    </g>
                  </g>
                </g>
              </g>
            </g>
          </g>
        </g>
        <g id="Grupo_43840" data-name="Grupo 43840" transform="translate(14.594 19.812)">
          <g id="Grupo_43839" data-name="Grupo 43839">
            <g id="Grupo_43838" data-name="Grupo 43838">
              <g id="Grupo_43837" data-name="Grupo 43837">
                <path id="Trazado_14249" data-name="Trazado 14249" d="M387.2,132.624l5.534-4.757,9.321,9.515L422.831,120.1l4.369,5.437-26.6,21.748Z" transform="translate(-387.2 -120.1)" fill="#88cb66"/>
              </g>
            </g>
          </g>
        </g>
      </g>
    </g>
    <g id="Form" transform="translate(33.366 52.419)">
      <g id="Grupo_43957" data-name="Grupo 43957">
        <g id="Grupo_43886" data-name="Grupo 43886">
          <g id="Grupo_43862" data-name="Grupo 43862">
            <g id="Grupo_43849" data-name="Grupo 43849">
              <g id="Grupo_43844" data-name="Grupo 43844" transform="translate(0.23 0.1)">
                <g id="Grupo_43843" data-name="Grupo 43843">
                  <g id="Grupo_43842" data-name="Grupo 43842">
                    <path id="Trazado_14250" data-name="Trazado 14250" d="M290.4,340.872,104.183,382.328a8.375,8.375,0,0,1-10-6.311L33.794,104.851a8.375,8.375,0,0,1,6.311-10L226.32,53.394a8.375,8.375,0,0,1,10,6.311l60.389,271.07A8.328,8.328,0,0,1,290.4,340.872Z" transform="translate(-33.603 -53.203)" fill="#e0e0e0"/>
                  </g>
                </g>
              </g>
              <g id="Grupo_43848" data-name="Grupo 43848">
                <g id="Grupo_43847" data-name="Grupo 43847">
                  <g id="Grupo_43846" data-name="Grupo 43846">
                    <g id="Grupo_43845" data-name="Grupo 43845">
                      <path id="Trazado_14251" data-name="Trazado 14251" d="M290.391,340.869a3.125,3.125,0,0,1,.583-.194,10.887,10.887,0,0,0,1.748-.777,8.5,8.5,0,0,0,2.33-2.039,8.966,8.966,0,0,0,1.748-3.883,11.8,11.8,0,0,0,0-2.621c-.194-.874-.388-1.845-.583-2.816-.485-1.942-.971-4.175-1.456-6.5-1.068-4.66-2.233-10.1-3.592-16.214-5.437-24.466-13.4-59.806-23.107-103.5-4.854-21.845-10.194-45.825-15.922-71.457-2.913-12.816-5.825-26.117-8.932-39.806-1.553-6.8-3.107-13.787-4.66-20.777-.777-3.5-1.553-7.087-2.427-10.583a8.04,8.04,0,0,0-2.913-4.466,8.586,8.586,0,0,0-5.049-1.748,14.1,14.1,0,0,0-2.718.388c-.874.194-1.845.388-2.718.583-1.845.388-3.592.777-5.437,1.262-3.689.777-7.379,1.651-11.068,2.427-7.379,1.651-14.854,3.3-22.427,5.049-15.146,3.4-30.583,6.8-46.311,10.291C106.021,80.479,73.5,87.76,40.2,95.139a8.76,8.76,0,0,0-5.049,3.4,8.032,8.032,0,0,0-1.262,5.922c.874,4.175,1.845,8.252,2.718,12.427,1.845,8.252,3.689,16.408,5.437,24.563q5.388,24.321,10.68,47.961c6.99,31.456,13.786,61.748,20.194,90.68S85.438,336.4,91.166,362.131c.68,3.2,1.456,6.408,2.136,9.515.388,1.553.68,3.2,1.068,4.66a8.083,8.083,0,0,0,2.427,3.981,8.551,8.551,0,0,0,4.078,2.039,18.71,18.71,0,0,0,2.33.1,15.073,15.073,0,0,0,2.233-.485l9.029-2.039c11.942-2.621,23.4-5.243,34.272-7.67,43.69-9.709,79.03-17.573,103.5-23.01,12.233-2.718,21.748-4.854,28.155-6.214,3.2-.68,5.631-1.262,7.282-1.651,1.845-.291,2.719-.485,2.719-.485s-.874.194-2.524.582-4.078.971-7.282,1.651c-6.408,1.456-15.922,3.592-28.156,6.311-24.466,5.437-59.806,13.4-103.5,23.107-10.971,2.427-22.33,4.952-34.272,7.67l-9.029,2.039a19.874,19.874,0,0,1-2.33.485,6.892,6.892,0,0,1-2.427-.1,8.139,8.139,0,0,1-4.272-2.136,8.542,8.542,0,0,1-2.524-4.078c-.388-1.553-.68-3.107-1.068-4.757-.68-3.2-1.456-6.311-2.136-9.515q-8.592-38.592-18.35-82.039c-6.408-28.932-13.2-59.224-20.194-90.68q-5.243-23.592-10.68-47.961c-1.845-8.155-3.592-16.311-5.437-24.563-.874-4.078-1.845-8.253-2.718-12.427a8.272,8.272,0,0,1,1.359-6.214A8.375,8.375,0,0,1,40.1,94.654C73.4,87.178,106.021,79.993,137.38,73c15.728-3.5,31.165-6.893,46.311-10.291,7.573-1.651,15.049-3.4,22.427-4.951,3.689-.777,7.379-1.65,11.068-2.427,1.845-.388,3.689-.777,5.437-1.262.874-.194,1.845-.388,2.718-.583a13.13,13.13,0,0,1,2.816-.388,8.407,8.407,0,0,1,5.243,1.845,8.884,8.884,0,0,1,3.01,4.66c.777,3.592,1.553,7.087,2.427,10.583,1.553,6.99,3.107,13.981,4.66,20.874,3.01,13.689,6.019,26.99,8.835,39.806,5.728,25.728,11.068,49.612,15.922,71.457,9.709,43.69,17.573,79.029,23.01,103.5,1.359,6.117,2.524,11.553,3.592,16.214.485,2.33.971,4.563,1.456,6.5.194.971.485,1.942.583,2.816a7.911,7.911,0,0,1,0,2.621,8.866,8.866,0,0,1-1.748,3.981,7.534,7.534,0,0,1-2.427,2.039c-.777.388-1.359.583-1.748.777A1.408,1.408,0,0,0,290.391,340.869Z" transform="translate(-33.366 -53.1)" fill="#263238"/>
                    </g>
                  </g>
                </g>
              </g>
            </g>
            <g id="Grupo_43852" data-name="Grupo 43852" transform="translate(72.655 229.031)" opacity="0.3">
              <g id="Grupo_43851" data-name="Grupo 43851">
                <g id="Grupo_43850" data-name="Grupo 43850">
                  <path id="Trazado_14252" data-name="Trazado 14252" d="M115.87,379.583l169.613-38.738-5.34-33.2L270.531,289,108.2,352.69Z" transform="translate(-108.2 -289)"/>
                </g>
              </g>
            </g>
            <g id="Grupo_43855" data-name="Grupo 43855" transform="translate(151.102 10.194)" opacity="0.3">
              <g id="Grupo_43854" data-name="Grupo 43854">
                <g id="Grupo_43853" data-name="Grupo 43853">
                  <path id="Trazado_14253" data-name="Trazado 14253" d="M189,63.6l6.408,10.583,1.262,5.631-4.369.971Z" transform="translate(-189 -63.6)"/>
                </g>
              </g>
            </g>
            <g id="Grupo_43861" data-name="Grupo 43861" transform="translate(10.131 12.136)">
              <g id="Grupo_43857" data-name="Grupo 43857" transform="translate(0 0.097)">
                <g id="Grupo_43856" data-name="Grupo 43856">
                  <path id="Trazado_14254" data-name="Trazado 14254" d="M43.8,106.865l58.835,264.079L287.1,329.779l-10.486-47.185L228.267,65.7Z" transform="translate(-43.8 -65.7)" fill="#fff"/>
                </g>
              </g>
              <g id="Grupo_43860" data-name="Grupo 43860">
                <g id="Grupo_43859" data-name="Grupo 43859">
                  <g id="Grupo_43858" data-name="Grupo 43858">
                    <path id="Trazado_14255" data-name="Trazado 14255" d="M43.8,106.862c1.359-.291,72.331-16.214,184.467-41.262h.194v.194c16.408,73.4,36.8,164.952,58.932,264.079h0v.194H287.2c-65.923,14.66-128.544,28.641-184.467,41.068h-.194v-.194C67.781,215.018,44.091,108.416,43.8,106.862c.388,1.65,24.175,108.156,59.029,264.079l-.194-.1c55.923-12.427,118.544-26.408,184.467-41.165l-.194.194h0c-22.039-99.127-42.427-190.681-58.835-264.079l.194.1C116.131,90.746,45.062,106.571,43.8,106.862Z" transform="translate(-43.8 -65.6)" fill="#263238"/>
                  </g>
                </g>
              </g>
            </g>
          </g>
          <g id="Grupo_43885" data-name="Grupo 43885" transform="translate(57.253 0.097)">
            <g id="Grupo_43865" data-name="Grupo 43865" transform="translate(0 3.53)">
              <g id="Grupo_43864" data-name="Grupo 43864">
                <g id="Grupo_43863" data-name="Grupo 43863">
                  <path id="Trazado_14256" data-name="Trazado 14256" d="M190.554,82.724,97.155,103.6,92.5,82.529a6.193,6.193,0,0,1,4.66-7.379L178.515,57a6.193,6.193,0,0,1,7.379,4.66Z" transform="translate(-92.335 -56.835)" fill="#263238"/>
                </g>
              </g>
            </g>
            <g id="Grupo_43868" data-name="Grupo 43868" transform="translate(31.325)">
              <g id="Grupo_43867" data-name="Grupo 43867">
                <g id="Grupo_43866" data-name="Grupo 43866">
                  <path id="Trazado_14257" data-name="Trazado 14257" d="M148.387,53.2,124.6,58.443l7.282,19.709,17.961-3.981Z" transform="translate(-124.6 -53.2)" fill="#263238"/>
                </g>
              </g>
            </g>
            <g id="Grupo_43872" data-name="Grupo 43872" transform="translate(4.917 3.688)">
              <g id="Grupo_43871" data-name="Grupo 43871">
                <g id="Grupo_43870" data-name="Grupo 43870">
                  <g id="Grupo_43869" data-name="Grupo 43869">
                    <path id="Trazado_14258" data-name="Trazado 14258" d="M178.663,57c0,.1-18.155,4.272-40.583,9.223-22.427,5.049-40.68,8.932-40.68,8.835s18.155-4.272,40.68-9.223C160.41,60.883,178.565,56.9,178.663,57Z" transform="translate(-97.4 -56.998)" fill="#455a64"/>
                  </g>
                </g>
              </g>
            </g>
            <g id="Grupo_43876" data-name="Grupo 43876" transform="translate(2.093 28.251)">
              <g id="Grupo_43875" data-name="Grupo 43875">
                <g id="Grupo_43874" data-name="Grupo 43874">
                  <g id="Grupo_43873" data-name="Grupo 43873">
                    <path id="Trazado_14259" data-name="Trazado 14259" d="M98.383,99.485c-.1,0-1.068-3.786-2.136-8.544S94.4,82.4,94.5,82.3s1.068,3.786,2.136,8.544S98.48,99.485,98.383,99.485Z" transform="translate(-94.492 -82.298)" fill="#455a64"/>
                  </g>
                </g>
              </g>
            </g>
            <g id="Grupo_43880" data-name="Grupo 43880" transform="translate(90.248 8.155)">
              <g id="Grupo_43879" data-name="Grupo 43879">
                <g id="Grupo_43878" data-name="Grupo 43878">
                  <g id="Grupo_43877" data-name="Grupo 43877">
                    <path id="Trazado_14260" data-name="Trazado 14260" d="M188.795,77.134c-.1,0-.971-3.4-1.942-7.767C185.882,65.1,185.2,61.6,185.3,61.6s.971,3.4,1.942,7.767C188.212,73.639,188.892,77.134,188.795,77.134Z" transform="translate(-185.291 -61.6)" fill="#455a64"/>
                  </g>
                </g>
              </g>
            </g>
            <g id="Grupo_43884" data-name="Grupo 43884" transform="translate(6.47 28.348)">
              <g id="Grupo_43883" data-name="Grupo 43883">
                <g id="Grupo_43882" data-name="Grupo 43882">
                  <g id="Grupo_43881" data-name="Grupo 43881">
                    <path id="Trazado_14261" data-name="Trazado 14261" d="M182.593,82.4c0,.1-18.641,4.369-41.748,9.515S99.1,101.138,99,101.041c0-.1,18.641-4.369,41.748-9.515S182.5,82.3,182.593,82.4Z" transform="translate(-99 -82.398)" fill="#455a64"/>
                  </g>
                </g>
              </g>
            </g>
          </g>
        </g>
        <g id="Grupo_43889" data-name="Grupo 43889" transform="translate(41.684 105.241)">
          <g id="Grupo_43888" data-name="Grupo 43888">
            <g id="Grupo_43887" data-name="Grupo 43887">
              <path id="Trazado_14262" data-name="Trazado 14262" d="M132.708,161.5c0,.1-12.524,3.01-28.155,6.5-15.534,3.5-28.156,6.214-28.253,6.117s12.524-3.01,28.156-6.5S132.708,161.4,132.708,161.5Z" transform="translate(-76.299 -161.497)" fill="#263238"/>
            </g>
          </g>
        </g>
        <g id="Grupo_43892" data-name="Grupo 43892" transform="translate(44.985 94.66)">
          <g id="Grupo_43891" data-name="Grupo 43891">
            <g id="Grupo_43890" data-name="Grupo 43890">
              <path id="Trazado_14263" data-name="Trazado 14263" d="M226.788,150.6c0,.1-32.913,7.573-73.5,16.6S79.7,183.513,79.7,183.416s32.913-7.573,73.5-16.6S226.691,150.5,226.788,150.6Z" transform="translate(-79.7 -150.599)" fill="#263238"/>
            </g>
          </g>
        </g>
        <g id="Grupo_43895" data-name="Grupo 43895" transform="translate(46.927 103.786)">
          <g id="Grupo_43894" data-name="Grupo 43894">
            <g id="Grupo_43893" data-name="Grupo 43893">
              <path id="Trazado_14264" data-name="Trazado 14264" d="M228.788,160c0,.1-32.913,7.573-73.5,16.6S81.7,192.913,81.7,192.816s32.913-7.573,73.5-16.6C195.875,167.087,228.788,159.9,228.788,160Z" transform="translate(-81.7 -159.999)" fill="#263238"/>
            </g>
          </g>
        </g>
        <g id="Grupo_43898" data-name="Grupo 43898" transform="translate(48.966 112.815)">
          <g id="Grupo_43897" data-name="Grupo 43897">
            <g id="Grupo_43896" data-name="Grupo 43896">
              <path id="Trazado_14265" data-name="Trazado 14265" d="M230.888,169.3c0,.1-32.913,7.573-73.5,16.6S83.8,202.213,83.8,202.116s32.913-7.573,73.5-16.6C197.975,176.484,230.888,169.2,230.888,169.3Z" transform="translate(-83.8 -169.299)" fill="#263238"/>
            </g>
          </g>
        </g>
        <g id="Grupo_43901" data-name="Grupo 43901" transform="translate(51.005 121.941)">
          <g id="Grupo_43900" data-name="Grupo 43900">
            <g id="Grupo_43899" data-name="Grupo 43899">
              <path id="Trazado_14266" data-name="Trazado 14266" d="M232.988,178.7c0,.1-32.913,7.573-73.5,16.6S85.9,211.613,85.9,211.516s32.913-7.573,73.5-16.6C199.978,185.787,232.988,178.6,232.988,178.7Z" transform="translate(-85.9 -178.699)" fill="#263238"/>
            </g>
          </g>
        </g>
        <g id="Grupo_43904" data-name="Grupo 43904" transform="translate(53.043 130.971)">
          <g id="Grupo_43903" data-name="Grupo 43903">
            <g id="Grupo_43902" data-name="Grupo 43902">
              <path id="Trazado_14267" data-name="Trazado 14267" d="M235.088,188c0,.1-32.913,7.573-73.5,16.6S88,220.913,88,220.816s32.913-7.573,73.5-16.6S235.088,187.9,235.088,188Z" transform="translate(-88 -187.999)" fill="#263238"/>
            </g>
          </g>
        </g>
        <g id="Grupo_43907" data-name="Grupo 43907" transform="translate(62.053 178.836)">
          <g id="Grupo_43906" data-name="Grupo 43906">
            <g id="Grupo_43905" data-name="Grupo 43905">
              <path id="Trazado_14268" data-name="Trazado 14268" d="M116.814,253.319a.751.751,0,0,0-.1-.291,6.2,6.2,0,0,1-.194-.874c-.194-.777-.485-1.845-.777-3.2-.68-2.816-1.553-6.8-2.621-11.456l.194.1c-4.66,1.068-10.1,2.233-15.922,3.592,0,.1.291-.485.194-.194h0v.194l.1.291.1.583a4.128,4.128,0,0,1,.194,1.068c.194.68.291,1.456.485,2.136.291,1.359.582,2.816.874,4.078.583,2.718,1.165,5.243,1.65,7.476l-.194-.1c4.757-.971,8.738-1.845,11.553-2.427,1.359-.291,2.427-.485,3.3-.68a6.19,6.19,0,0,0,.874-.194.751.751,0,0,1,.291-.1.751.751,0,0,0-.291.1,6.19,6.19,0,0,1-.874.194c-.777.194-1.845.485-3.2.777-2.816.68-6.8,1.553-11.553,2.718H100.7v-.194c-.485-2.33-1.068-4.854-1.65-7.476l-.874-4.078c-.194-.68-.291-1.456-.485-2.136a4.13,4.13,0,0,1-.194-1.068l-.1-.583-.1-.291v-.194h0c-.1.194.194-.291.194-.291,5.825-1.262,11.262-2.524,15.922-3.5h.194v.194c1.068,4.757,1.845,8.738,2.524,11.651.291,1.359.485,2.427.68,3.2.1.388.1.583.194.874C116.814,253.222,116.814,253.319,116.814,253.319Z" transform="translate(-97.28 -237.3)" fill="#263238"/>
            </g>
          </g>
        </g>
        <g id="Grupo_43910" data-name="Grupo 43910" transform="translate(88.814 155.62)">
          <g id="Grupo_43909" data-name="Grupo 43909" transform="translate(0 0)">
            <g id="Grupo_43908" data-name="Grupo 43908" transform="translate(0)">
              <rect id="Rectángulo_4380" data-name="Rectángulo 4380" width="113.787" height="9.515" transform="translate(0 24.749) rotate(-12.562)" fill="#e0e0e0"/>
            </g>
          </g>
        </g>
        <g id="Grupo_43913" data-name="Grupo 43913" transform="translate(68.169 206.506)">
          <g id="Grupo_43912" data-name="Grupo 43912">
            <g id="Grupo_43911" data-name="Grupo 43911">
              <path id="Trazado_14269" data-name="Trazado 14269" d="M123.114,281.819a.751.751,0,0,0-.1-.291,6.2,6.2,0,0,1-.194-.874c-.194-.777-.485-1.845-.777-3.2-.68-2.816-1.553-6.8-2.621-11.456l.194.1c-4.66,1.068-10.1,2.233-15.922,3.592,0,.1.291-.485.194-.194h0v.194l.1.291.1.582a4.132,4.132,0,0,1,.194,1.068c.194.68.291,1.456.485,2.136.291,1.359.583,2.816.874,4.078.582,2.719,1.165,5.243,1.65,7.476l-.194-.1c4.757-.971,8.738-1.845,11.553-2.427,1.359-.291,2.427-.485,3.3-.68a6.15,6.15,0,0,0,.874-.194.752.752,0,0,1,.291-.1.752.752,0,0,0-.291.1,6.176,6.176,0,0,1-.874.194c-.777.194-1.845.485-3.2.777-2.816.68-6.8,1.553-11.553,2.719H107v-.194c-.485-2.33-1.068-4.854-1.65-7.476l-.874-4.078c-.194-.68-.291-1.456-.485-2.136a4.127,4.127,0,0,1-.194-1.068l-.1-.582-.1-.291v-.194h0c-.1.194.194-.291.194-.291,5.825-1.262,11.262-2.524,15.922-3.495h.194v.194c1.068,4.757,1.845,8.738,2.524,11.651.291,1.359.485,2.427.68,3.2.1.388.1.582.194.874C123.114,281.722,123.114,281.819,123.114,281.819Z" transform="translate(-103.58 -265.8)" fill="#263238"/>
            </g>
          </g>
        </g>
        <g id="Grupo_43916" data-name="Grupo 43916" transform="translate(95.037 183.277)">
          <g id="Grupo_43915" data-name="Grupo 43915" transform="translate(0 0)">
            <g id="Grupo_43914" data-name="Grupo 43914" transform="translate(0)">
              <rect id="Rectángulo_4381" data-name="Rectángulo 4381" width="113.787" height="9.515" transform="translate(0 24.749) rotate(-12.562)" fill="#e0e0e0"/>
            </g>
          </g>
        </g>
        <g id="Grupo_43919" data-name="Grupo 43919" transform="translate(74.383 234.079)">
          <g id="Grupo_43918" data-name="Grupo 43918">
            <g id="Grupo_43917" data-name="Grupo 43917">
              <path id="Trazado_14270" data-name="Trazado 14270" d="M129.514,310.219a.751.751,0,0,0-.1-.291,6.188,6.188,0,0,1-.194-.874c-.194-.777-.485-1.845-.777-3.2-.68-2.816-1.553-6.8-2.621-11.456l.194.1c-4.66,1.068-10.1,2.233-15.922,3.592,0,.1.291-.485.194-.194h0v.194l.1.291.1.582a4.128,4.128,0,0,1,.194,1.068c.194.679.291,1.456.485,2.136.291,1.359.583,2.816.874,4.078.583,2.719,1.165,5.243,1.65,7.476l-.194-.1c4.757-.971,8.738-1.845,11.553-2.427,1.359-.291,2.427-.485,3.3-.68a6.19,6.19,0,0,0,.874-.194.357.357,0,0,1,.291-.1c.1,0-.1,0-.291.1a6.163,6.163,0,0,1-.874.194c-.777.194-1.845.485-3.2.777-2.816.68-6.8,1.554-11.553,2.719H113.4v-.194c-.485-2.33-1.068-4.855-1.65-7.476l-.874-4.078c-.194-.68-.291-1.456-.485-2.136a4.129,4.129,0,0,1-.194-1.068l-.1-.582-.1-.291v-.194h0c-.1.194.194-.291.194-.291,5.825-1.262,11.262-2.524,15.922-3.5h.194v.194c1.068,4.757,1.845,8.738,2.524,11.651.291,1.359.485,2.427.68,3.2.1.388.1.582.194.874C129.417,310.122,129.514,310.219,129.514,310.219Z" transform="translate(-109.98 -294.2)" fill="#263238"/>
            </g>
          </g>
        </g>
        <g id="Grupo_43922" data-name="Grupo 43922" transform="translate(101.143 210.861)">
          <g id="Grupo_43921" data-name="Grupo 43921" transform="translate(0 0)">
            <g id="Grupo_43920" data-name="Grupo 43920" transform="translate(0)">
              <rect id="Rectángulo_4382" data-name="Rectángulo 4382" width="113.787" height="9.515" transform="translate(0 24.749) rotate(-12.562)" fill="#e0e0e0"/>
            </g>
          </g>
        </g>
        <g id="Grupo_43928" data-name="Grupo 43928" transform="translate(66.247 179.71)">
          <g id="Grupo_43927" data-name="Grupo 43927">
            <g id="Grupo_43926" data-name="Grupo 43926">
              <g id="Grupo_43925" data-name="Grupo 43925">
                <g id="Grupo_43924" data-name="Grupo 43924">
                  <g id="Grupo_43923" data-name="Grupo 43923">
                    <path id="Trazado_14271" data-name="Trazado 14271" d="M101.6,247.617,103.251,245l4.951,2.816,6.408-9.612,2.524,1.65-8.252,12.136Z" transform="translate(-101.6 -238.2)" fill="#88cb66"/>
                  </g>
                </g>
              </g>
            </g>
          </g>
        </g>
        <g id="Grupo_43934" data-name="Grupo 43934" transform="translate(72.17 206.409)">
          <g id="Grupo_43933" data-name="Grupo 43933">
            <g id="Grupo_43932" data-name="Grupo 43932">
              <g id="Grupo_43931" data-name="Grupo 43931">
                <g id="Grupo_43930" data-name="Grupo 43930">
                  <g id="Grupo_43929" data-name="Grupo 43929">
                    <path id="Trazado_14272" data-name="Trazado 14272" d="M107.7,275.118l1.748-2.621,4.951,2.815,6.311-9.612,2.524,1.651-8.252,12.136Z" transform="translate(-107.7 -265.7)" fill="#88cb66"/>
                  </g>
                </g>
              </g>
            </g>
          </g>
        </g>
        <g id="Grupo_43940" data-name="Grupo 43940" transform="translate(78.286 233.691)">
          <g id="Grupo_43939" data-name="Grupo 43939">
            <g id="Grupo_43938" data-name="Grupo 43938">
              <g id="Grupo_43937" data-name="Grupo 43937">
                <g id="Grupo_43936" data-name="Grupo 43936">
                  <g id="Grupo_43935" data-name="Grupo 43935">
                    <path id="Trazado_14273" data-name="Trazado 14273" d="M114,303.315l1.65-2.621,5.049,2.816,6.311-9.709,2.524,1.748-8.252,12.136Z" transform="translate(-114 -293.8)" fill="#88cb66"/>
                  </g>
                </g>
              </g>
            </g>
          </g>
        </g>
        <g id="Grupo_43943" data-name="Grupo 43943" transform="translate(87.121 277.571)">
          <g id="Grupo_43942" data-name="Grupo 43942">
            <g id="Grupo_43941" data-name="Grupo 43941">
              <path id="Trazado_14274" data-name="Trazado 14274" d="M165.139,339c0,.1-9.32,2.33-20.971,4.855-11.553,2.621-20.971,4.563-21.068,4.466,0-.1,9.32-2.33,20.971-4.854S165.139,338.9,165.139,339Z" transform="translate(-123.1 -338.996)" fill="#263238"/>
            </g>
          </g>
        </g>
        <g id="Grupo_43946" data-name="Grupo 43946" transform="translate(134.597 272.614)">
          <g id="Grupo_43945" data-name="Grupo 43945">
            <g id="Grupo_43944" data-name="Grupo 43944">
              <path id="Trazado_14275" data-name="Trazado 14275" d="M187.437,333.9c0,.1-3.4.971-7.67,1.942S172,337.492,172,337.395s3.4-.971,7.67-1.942S187.437,333.8,187.437,333.9Z" transform="translate(-172 -333.89)" fill="#263238"/>
            </g>
          </g>
        </g>
        <g id="Grupo_43949" data-name="Grupo 43949" transform="translate(181.588 250.774)">
          <g id="Grupo_43948" data-name="Grupo 43948">
            <g id="Grupo_43947" data-name="Grupo 43947">
              <path id="Trazado_14276" data-name="Trazado 14276" d="M258.167,311.4c0,.1-8.447,2.039-18.835,4.369S220.4,319.846,220.4,319.75s8.447-2.039,18.835-4.369S258.167,311.3,258.167,311.4Z" transform="translate(-220.4 -311.396)" fill="#263238"/>
            </g>
          </g>
        </g>
        <g id="Grupo_43952" data-name="Grupo 43952" transform="translate(178.578 258.566)">
          <g id="Grupo_43951" data-name="Grupo 43951">
            <g id="Grupo_43950" data-name="Grupo 43950">
              <path id="Trazado_14277" data-name="Trazado 14277" d="M249.048,337.168a7.136,7.136,0,0,0,.194-.777,6.054,6.054,0,0,0-.1-2.233,26.665,26.665,0,0,0-1.359-3.3,10.97,10.97,0,0,1-1.359-4.66,7,7,0,0,1,2.427-5.243,6.574,6.574,0,0,1,6.408-1.165,7.239,7.239,0,0,1,3.107,2.039,3.949,3.949,0,0,1,.777,1.845,1.659,1.659,0,0,1-1.165,1.651,14.205,14.205,0,0,1-1.942.485c-.679.1-1.262.291-1.942.388-1.262.291-2.621.486-3.981.68a27.336,27.336,0,0,1-7.961,0c-1.262-.1-2.524-.194-3.5.583-.971.68-1.359,1.845-2.136,2.816a3.138,3.138,0,0,1-1.359,1.165,2.214,2.214,0,0,1-1.748.1,15.378,15.378,0,0,1-2.815-1.65,2.577,2.577,0,0,0-1.359-.486,2.428,2.428,0,0,0-1.262.291,7.02,7.02,0,0,0-1.65,2.136,5.039,5.039,0,0,1-4.078,2.33,5.108,5.108,0,0,1-3.4-1.165,4.884,4.884,0,0,1-1.359-1.845,2.334,2.334,0,0,1-.194-.777s.1.291.291.777a4.073,4.073,0,0,0,1.359,1.748,4.809,4.809,0,0,0,3.3,1.068,4.971,4.971,0,0,0,3.884-2.33,7.389,7.389,0,0,1,1.748-2.233,2.094,2.094,0,0,1,1.554-.388,3.29,3.29,0,0,1,1.456.583,13.107,13.107,0,0,0,2.815,1.553,1.757,1.757,0,0,0,1.554-.1,2.471,2.471,0,0,0,1.165-1.068,12.5,12.5,0,0,1,2.136-2.913,3.845,3.845,0,0,1,1.845-.68,12.954,12.954,0,0,1,1.942,0,26.761,26.761,0,0,0,7.864-.1c1.359-.194,2.621-.388,3.981-.68.68-.1,1.262-.291,1.942-.388a12.933,12.933,0,0,0,1.845-.485,1.152,1.152,0,0,0,.874-1.262,2.291,2.291,0,0,0-.679-1.553,7.331,7.331,0,0,0-2.913-1.942,6.485,6.485,0,0,0-6.117,1.068A7.122,7.122,0,0,0,246.718,326a11.349,11.349,0,0,0,1.262,4.563,16.591,16.591,0,0,1,1.262,3.4,4.662,4.662,0,0,1,0,2.33A3.422,3.422,0,0,1,249.048,337.168Z" transform="translate(-217.3 -319.422)" fill="#263238"/>
            </g>
          </g>
        </g>
        <g id="Grupo_43955" data-name="Grupo 43955" transform="translate(180.132 263.885)">
          <g id="Grupo_43954" data-name="Grupo 43954">
            <g id="Grupo_43953" data-name="Grupo 43953">
              <path id="Trazado_14278" data-name="Trazado 14278" d="M269.192,324.9a4.077,4.077,0,0,1-.485.194c-.388.1-.874.194-1.456.388-1.359.291-3.2.777-5.437,1.262-4.563,1.068-10.874,2.524-17.864,4.272-6.893,1.747-13.2,3.5-17.767,4.66-2.233.583-4.078,1.068-5.34,1.456-.583.194-1.068.291-1.456.388a1.7,1.7,0,0,1-.485.1,4.074,4.074,0,0,1,.485-.194c.388-.1.874-.291,1.456-.486,1.262-.388,3.107-.971,5.34-1.553,4.466-1.359,10.777-3.01,17.67-4.855,6.99-1.748,13.3-3.2,17.864-4.175,2.33-.486,4.175-.874,5.437-1.165q.874-.145,1.456-.291Z" transform="translate(-218.9 -324.9)" fill="#263238"/>
            </g>
          </g>
        </g>
        <g id="Grupo_43956" data-name="Grupo 43956" transform="translate(75.407 50.888)">
          <rect id="Rectángulo_4383" data-name="Rectángulo 4383" width="77.282" height="14.563" transform="translate(0 16.809) rotate(-12.562)" fill="#e0e0e0"/>
        </g>
      </g>
    </g>
    <g id="Character_00000039826182135072414070000016352920049323683971_" transform="translate(183.691 29.708)">
      <g id="Grupo_44175" data-name="Grupo 44175">
        <g id="Grupo_44174" data-name="Grupo 44174">
          <g id="Grupo_43958" data-name="Grupo 43958" transform="translate(26.552 149.314)">
            <path id="Trazado_14279" data-name="Trazado 14279" d="M228.9,234.471c-1.845,1.845-12.136,20.583-13.107,35.922-.971,15.437,1.262,101.942,1.262,101.942l.388,5.728c24.369,28.544,113.01,70.874,192.72-.1h0l4.466-53.2-13.2-112.622-45.631-11.262L345.114,183.5l-71.457,16.7-6.408,15.049Z" transform="translate(-215.548 -183.5)" fill="#455a64"/>
          </g>
          <g id="Grupo_44129" data-name="Grupo 44129" transform="translate(49.402)">
            <g id="Grupo_44128" data-name="Grupo 44128">
              <g id="Grupo_44127" data-name="Grupo 44127">
                <g id="Grupo_43966" data-name="Grupo 43966" transform="translate(92.03 20.181)">
                  <g id="Grupo_43965" data-name="Grupo 43965">
                    <g id="Grupo_43964" data-name="Grupo 43964">
                      <g id="Grupo_43963" data-name="Grupo 43963">
                        <g id="Grupo_43962" data-name="Grupo 43962">
                          <g id="Grupo_43961" data-name="Grupo 43961">
                            <g id="Grupo_43960" data-name="Grupo 43960">
                              <g id="Grupo_43959" data-name="Grupo 43959">
                                <path id="Trazado_14280" data-name="Trazado 14280" d="M343.608,134.287c3.107-11.748,6.214-23.5,7.379-35.534,1.068-12.039.1-24.563-4.757-35.631-.68-1.65-6.8-12.913-8.544-12.621-1.262.194,2.621,10.777,2.039,11.942-5.728,11.165-6.8,24.272-5.146,36.6,1.553,12.427,4.757,23.5,9.029,35.243" transform="translate(-333.874 -50.494)" fill="#263238"/>
                              </g>
                            </g>
                          </g>
                        </g>
                      </g>
                    </g>
                  </g>
                </g>
                <g id="Grupo_43969" data-name="Grupo 43969" transform="translate(0 3.726)">
                  <g id="Grupo_43968" data-name="Grupo 43968">
                    <g id="Grupo_43967" data-name="Grupo 43967">
                      <path id="Trazado_14281" data-name="Trazado 14281" d="M339.683,87.579c-.583-30.389-18.738-55.34-49.127-53.981l-2.816.291A54.4,54.4,0,0,0,239.1,89.23c.68,26.311,1.651,55.437,3.3,69.418,3.4,28.932,32.913,30.389,32.913,30.389.1,0,1.359,19.029,1.359,19.029l12.427,13.5,57.767-35.728Z" transform="translate(-239.084 -33.545)" fill="#ffbf9d"/>
                    </g>
                  </g>
                </g>
                <g id="Grupo_43979" data-name="Grupo 43979" transform="translate(36.327 144.362)">
                  <g id="Grupo_43978" data-name="Grupo 43978">
                    <g id="Grupo_43977" data-name="Grupo 43977">
                      <g id="Grupo_43976" data-name="Grupo 43976">
                        <g id="Grupo_43975" data-name="Grupo 43975">
                          <g id="Grupo_43974" data-name="Grupo 43974">
                            <g id="Grupo_43973" data-name="Grupo 43973">
                              <g id="Grupo_43972" data-name="Grupo 43972">
                                <g id="Grupo_43971" data-name="Grupo 43971">
                                  <g id="Grupo_43970" data-name="Grupo 43970">
                                    <path id="Trazado_14282" data-name="Trazado 14282" d="M276.5,193.546s18.35-.874,36.6-15.146c0,0-6.117,26.311-35.34,26.7Z" transform="translate(-276.5 -178.4)" fill="#ff9a6c"/>
                                  </g>
                                </g>
                              </g>
                            </g>
                          </g>
                        </g>
                      </g>
                    </g>
                  </g>
                </g>
                <g id="Grupo_43995" data-name="Grupo 43995" transform="translate(16.711 78.921)">
                  <g id="Grupo_43994" data-name="Grupo 43994">
                    <g id="Grupo_43993" data-name="Grupo 43993">
                      <g id="Grupo_43992" data-name="Grupo 43992">
                        <g id="Grupo_43991" data-name="Grupo 43991">
                          <g id="Grupo_43990" data-name="Grupo 43990">
                            <g id="Grupo_43989" data-name="Grupo 43989">
                              <g id="Grupo_43988" data-name="Grupo 43988">
                                <g id="Grupo_43987" data-name="Grupo 43987">
                                  <g id="Grupo_43986" data-name="Grupo 43986">
                                    <g id="Grupo_43985" data-name="Grupo 43985">
                                      <g id="Grupo_43984" data-name="Grupo 43984">
                                        <g id="Grupo_43983" data-name="Grupo 43983">
                                          <g id="Grupo_43982" data-name="Grupo 43982">
                                            <g id="Grupo_43981" data-name="Grupo 43981">
                                              <g id="Grupo_43980" data-name="Grupo 43980">
                                                <path id="Trazado_14283" data-name="Trazado 14283" d="M256.3,115.175a4.209,4.209,0,0,0,4.466,3.786,3.959,3.959,0,0,0,3.884-4.175A4.21,4.21,0,0,0,260.183,111,4.021,4.021,0,0,0,256.3,115.175Z" transform="translate(-256.296 -110.996)" fill="#263238"/>
                                              </g>
                                            </g>
                                          </g>
                                        </g>
                                      </g>
                                    </g>
                                  </g>
                                </g>
                              </g>
                            </g>
                          </g>
                        </g>
                      </g>
                    </g>
                  </g>
                </g>
                <g id="Grupo_44012" data-name="Grupo 44012" transform="translate(7.4 65.659)">
                  <g id="Grupo_44011" data-name="Grupo 44011">
                    <g id="Grupo_44010" data-name="Grupo 44010">
                      <g id="Grupo_44009" data-name="Grupo 44009">
                        <g id="Grupo_44008" data-name="Grupo 44008">
                          <g id="Grupo_44007" data-name="Grupo 44007">
                            <g id="Grupo_44006" data-name="Grupo 44006">
                              <g id="Grupo_44005" data-name="Grupo 44005">
                                <g id="Grupo_44004" data-name="Grupo 44004">
                                  <g id="Grupo_44003" data-name="Grupo 44003">
                                    <g id="Grupo_44002" data-name="Grupo 44002">
                                      <g id="Grupo_44001" data-name="Grupo 44001">
                                        <g id="Grupo_44000" data-name="Grupo 44000">
                                          <g id="Grupo_43999" data-name="Grupo 43999">
                                            <g id="Grupo_43998" data-name="Grupo 43998">
                                              <g id="Grupo_43997" data-name="Grupo 43997">
                                                <g id="Grupo_43996" data-name="Grupo 43996">
                                                  <path id="Trazado_14284" data-name="Trazado 14284" d="M246.8,102.544c.583.485,3.5-2.136,7.961-2.621s7.961,1.456,8.35.874c.194-.291-.388-1.165-1.942-2.039a11.649,11.649,0,0,0-6.8-1.359,10.6,10.6,0,0,0-6.214,2.718C246.894,101.282,246.506,102.35,246.8,102.544Z" transform="translate(-246.705 -97.336)" fill="#263238"/>
                                                </g>
                                              </g>
                                            </g>
                                          </g>
                                        </g>
                                      </g>
                                    </g>
                                  </g>
                                </g>
                              </g>
                            </g>
                          </g>
                        </g>
                      </g>
                    </g>
                  </g>
                </g>
                <g id="Grupo_44028" data-name="Grupo 44028" transform="translate(56.118 75.523)">
                  <g id="Grupo_44027" data-name="Grupo 44027" transform="translate(0 0)">
                    <g id="Grupo_44026" data-name="Grupo 44026">
                      <g id="Grupo_44025" data-name="Grupo 44025">
                        <g id="Grupo_44024" data-name="Grupo 44024">
                          <g id="Grupo_44023" data-name="Grupo 44023">
                            <g id="Grupo_44022" data-name="Grupo 44022">
                              <g id="Grupo_44021" data-name="Grupo 44021">
                                <g id="Grupo_44020" data-name="Grupo 44020">
                                  <g id="Grupo_44019" data-name="Grupo 44019">
                                    <g id="Grupo_44018" data-name="Grupo 44018">
                                      <g id="Grupo_44017" data-name="Grupo 44017">
                                        <g id="Grupo_44016" data-name="Grupo 44016">
                                          <g id="Grupo_44015" data-name="Grupo 44015">
                                            <g id="Grupo_44014" data-name="Grupo 44014">
                                              <g id="Grupo_44013" data-name="Grupo 44013">
                                                <path id="Trazado_14285" data-name="Trazado 14285" d="M296.9,111.675a4.209,4.209,0,0,0,4.466,3.786,3.959,3.959,0,0,0,3.883-4.175,4.209,4.209,0,0,0-4.466-3.786A3.953,3.953,0,0,0,296.9,111.675Z" transform="translate(-296.885 -107.496)" fill="#263238"/>
                                              </g>
                                            </g>
                                          </g>
                                        </g>
                                      </g>
                                    </g>
                                  </g>
                                </g>
                              </g>
                            </g>
                          </g>
                        </g>
                      </g>
                    </g>
                  </g>
                </g>
                <g id="Grupo_44045" data-name="Grupo 44045" transform="translate(51.284 62.843)">
                  <g id="Grupo_44044" data-name="Grupo 44044" transform="translate(0 0)">
                    <g id="Grupo_44043" data-name="Grupo 44043">
                      <g id="Grupo_44042" data-name="Grupo 44042">
                        <g id="Grupo_44041" data-name="Grupo 44041">
                          <g id="Grupo_44040" data-name="Grupo 44040">
                            <g id="Grupo_44039" data-name="Grupo 44039">
                              <g id="Grupo_44038" data-name="Grupo 44038">
                                <g id="Grupo_44037" data-name="Grupo 44037">
                                  <g id="Grupo_44036" data-name="Grupo 44036">
                                    <g id="Grupo_44035" data-name="Grupo 44035">
                                      <g id="Grupo_44034" data-name="Grupo 44034">
                                        <g id="Grupo_44033" data-name="Grupo 44033">
                                          <g id="Grupo_44032" data-name="Grupo 44032">
                                            <g id="Grupo_44031" data-name="Grupo 44031">
                                              <g id="Grupo_44030" data-name="Grupo 44030">
                                                <g id="Grupo_44029" data-name="Grupo 44029">
                                                  <path id="Trazado_14286" data-name="Trazado 14286" d="M292,99.644c.583.485,3.5-2.136,7.961-2.621s7.961,1.456,8.35.874c.194-.291-.388-1.165-1.942-2.039a11.65,11.65,0,0,0-6.8-1.359,10.6,10.6,0,0,0-6.214,2.718C292.094,98.382,291.706,99.45,292,99.644Z" transform="translate(-291.905 -94.436)" fill="#263238"/>
                                                </g>
                                              </g>
                                            </g>
                                          </g>
                                        </g>
                                      </g>
                                    </g>
                                  </g>
                                </g>
                              </g>
                            </g>
                          </g>
                        </g>
                      </g>
                    </g>
                  </g>
                </g>
                <g id="Grupo_44061" data-name="Grupo 44061" transform="translate(27.104 66.497)">
                  <g id="Grupo_44060" data-name="Grupo 44060">
                    <g id="Grupo_44059" data-name="Grupo 44059">
                      <g id="Grupo_44058" data-name="Grupo 44058">
                        <g id="Grupo_44057" data-name="Grupo 44057">
                          <g id="Grupo_44056" data-name="Grupo 44056">
                            <g id="Grupo_44055" data-name="Grupo 44055">
                              <g id="Grupo_44054" data-name="Grupo 44054">
                                <g id="Grupo_44053" data-name="Grupo 44053">
                                  <g id="Grupo_44052" data-name="Grupo 44052">
                                    <g id="Grupo_44051" data-name="Grupo 44051">
                                      <g id="Grupo_44050" data-name="Grupo 44050">
                                        <g id="Grupo_44049" data-name="Grupo 44049">
                                          <g id="Grupo_44048" data-name="Grupo 44048">
                                            <g id="Grupo_44047" data-name="Grupo 44047">
                                              <g id="Grupo_44046" data-name="Grupo 44046">
                                                <path id="Trazado_14287" data-name="Trazado 14287" d="M278.845,135.676c0-.291-2.815-.485-7.379-.583-1.165,0-2.233-.1-2.524-.874-.388-.777,0-2.039.388-3.5.777-2.913,1.553-5.825,2.427-9.029,3.4-12.816,5.728-23.3,5.146-23.5-.485-.1-3.689,10.194-7.087,23.01q-1.165,4.806-2.33,9.029c-.291,1.359-.874,2.913-.1,4.563a2.831,2.831,0,0,0,2.039,1.456,14.369,14.369,0,0,0,1.942.1C276.126,136.161,278.942,135.967,278.845,135.676Z" transform="translate(-267.001 -98.199)" fill="#263238"/>
                                              </g>
                                            </g>
                                          </g>
                                        </g>
                                      </g>
                                    </g>
                                  </g>
                                </g>
                              </g>
                            </g>
                          </g>
                        </g>
                      </g>
                    </g>
                  </g>
                </g>
                <g id="Grupo_44077" data-name="Grupo 44077" transform="translate(39.529 105.624)">
                  <g id="Grupo_44076" data-name="Grupo 44076">
                    <g id="Grupo_44075" data-name="Grupo 44075">
                      <g id="Grupo_44074" data-name="Grupo 44074">
                        <g id="Grupo_44073" data-name="Grupo 44073">
                          <g id="Grupo_44072" data-name="Grupo 44072">
                            <g id="Grupo_44071" data-name="Grupo 44071">
                              <g id="Grupo_44070" data-name="Grupo 44070">
                                <g id="Grupo_44069" data-name="Grupo 44069">
                                  <g id="Grupo_44068" data-name="Grupo 44068">
                                    <g id="Grupo_44067" data-name="Grupo 44067">
                                      <g id="Grupo_44066" data-name="Grupo 44066">
                                        <g id="Grupo_44065" data-name="Grupo 44065">
                                          <g id="Grupo_44064" data-name="Grupo 44064">
                                            <g id="Grupo_44063" data-name="Grupo 44063">
                                              <g id="Grupo_44062" data-name="Grupo 44062">
                                                <path id="Trazado_14288" data-name="Trazado 14288" d="M292.713,138.5c-.777,0-.194,4.854-3.981,8.738s-9.029,3.884-8.932,4.563c0,.291,1.262.777,3.4.68a12.489,12.489,0,0,0,7.476-3.5,10.134,10.134,0,0,0,3.01-7.282C293.683,139.665,293,138.5,292.713,138.5Z" transform="translate(-279.799 -138.5)" fill="#263238"/>
                                              </g>
                                            </g>
                                          </g>
                                        </g>
                                      </g>
                                    </g>
                                  </g>
                                </g>
                              </g>
                            </g>
                          </g>
                        </g>
                      </g>
                    </g>
                  </g>
                </g>
                <g id="Grupo_44089" data-name="Grupo 44089" transform="translate(49.67 45.527)">
                  <g id="Grupo_44088" data-name="Grupo 44088">
                    <g id="Grupo_44087" data-name="Grupo 44087">
                      <g id="Grupo_44086" data-name="Grupo 44086">
                        <g id="Grupo_44085" data-name="Grupo 44085">
                          <g id="Grupo_44084" data-name="Grupo 44084">
                            <g id="Grupo_44083" data-name="Grupo 44083">
                              <g id="Grupo_44082" data-name="Grupo 44082">
                                <g id="Grupo_44081" data-name="Grupo 44081">
                                  <g id="Grupo_44080" data-name="Grupo 44080">
                                    <g id="Grupo_44079" data-name="Grupo 44079">
                                      <g id="Grupo_44078" data-name="Grupo 44078">
                                        <path id="Trazado_14289" data-name="Trazado 14289" d="M290.3,80.969c.583,1.165,4.951.1,10.291.194,5.34,0,9.709,1.068,10.291-.1.291-.583-.583-1.651-2.427-2.621a17.267,17.267,0,0,0-7.767-1.845,17.457,17.457,0,0,0-7.864,1.748C290.881,79.416,290.007,80.484,290.3,80.969Z" transform="translate(-290.244 -76.6)" fill="#263238"/>
                                      </g>
                                    </g>
                                  </g>
                                </g>
                              </g>
                            </g>
                          </g>
                        </g>
                      </g>
                    </g>
                  </g>
                </g>
                <g id="Grupo_44101" data-name="Grupo 44101" transform="translate(7.621 50.355)">
                  <g id="Grupo_44100" data-name="Grupo 44100">
                    <g id="Grupo_44099" data-name="Grupo 44099">
                      <g id="Grupo_44098" data-name="Grupo 44098">
                        <g id="Grupo_44097" data-name="Grupo 44097">
                          <g id="Grupo_44096" data-name="Grupo 44096">
                            <g id="Grupo_44095" data-name="Grupo 44095">
                              <g id="Grupo_44094" data-name="Grupo 44094">
                                <g id="Grupo_44093" data-name="Grupo 44093">
                                  <g id="Grupo_44092" data-name="Grupo 44092">
                                    <g id="Grupo_44091" data-name="Grupo 44091">
                                      <g id="Grupo_44090" data-name="Grupo 44090">
                                        <path id="Trazado_14290" data-name="Trazado 14290" d="M247.1,87.036c.874.971,3.883-.485,7.573-.874,3.689-.583,6.893,0,7.476-1.165.291-.583-.291-1.553-1.845-2.33a10.484,10.484,0,0,0-6.311-.971,10.86,10.86,0,0,0-5.825,2.621C247,85.483,246.707,86.551,247.1,87.036Z" transform="translate(-246.933 -81.573)" fill="#263238"/>
                                      </g>
                                    </g>
                                  </g>
                                </g>
                              </g>
                            </g>
                          </g>
                        </g>
                      </g>
                    </g>
                  </g>
                </g>
                <g id="Grupo_44109" data-name="Grupo 44109" transform="translate(100.502 77.815)">
                  <g id="Grupo_44108" data-name="Grupo 44108">
                    <g id="Grupo_44107" data-name="Grupo 44107">
                      <g id="Grupo_44106" data-name="Grupo 44106">
                        <g id="Grupo_44105" data-name="Grupo 44105">
                          <g id="Grupo_44104" data-name="Grupo 44104">
                            <g id="Grupo_44103" data-name="Grupo 44103">
                              <g id="Grupo_44102" data-name="Grupo 44102">
                                <path id="Trazado_14291" data-name="Trazado 14291" d="M342.6,111.549c.486-.291,19.32-7.961,20.777,11.942s-18.835,17.282-18.932,16.7C344.348,139.51,342.6,111.549,342.6,111.549Z" transform="translate(-342.6 -109.856)" fill="#ffbf9d"/>
                              </g>
                            </g>
                          </g>
                        </g>
                      </g>
                    </g>
                  </g>
                </g>
                <g id="Grupo_44118" data-name="Grupo 44118" transform="translate(107.857 84.168)">
                  <g id="Grupo_44117" data-name="Grupo 44117">
                    <g id="Grupo_44116" data-name="Grupo 44116">
                      <g id="Grupo_44115" data-name="Grupo 44115">
                        <g id="Grupo_44114" data-name="Grupo 44114">
                          <g id="Grupo_44113" data-name="Grupo 44113">
                            <g id="Grupo_44112" data-name="Grupo 44112">
                              <g id="Grupo_44111" data-name="Grupo 44111">
                                <g id="Grupo_44110" data-name="Grupo 44110">
                                  <path id="Trazado_14292" data-name="Trazado 14292" d="M350.2,132.322c.1-.1.388.194.971.485a4.09,4.09,0,0,0,2.621-.1c2.039-.971,3.592-4.369,3.4-7.961a10.916,10.916,0,0,0-1.359-4.854,3.785,3.785,0,0,0-2.816-2.427,1.672,1.672,0,0,0-1.942,1.068c-.194.583-.1.971-.194.971-.1.1-.486-.291-.388-1.165a2.706,2.706,0,0,1,.68-1.262,3.065,3.065,0,0,1,1.845-.68c1.553,0,3.01,1.262,3.884,2.816a12.327,12.327,0,0,1,1.651,5.437c.194,3.981-1.651,7.961-4.466,8.932a3.812,3.812,0,0,1-3.2-.291C350.3,132.808,350.1,132.322,350.2,132.322Z" transform="translate(-350.175 -116.4)" fill="#ff9a6c"/>
                                </g>
                              </g>
                            </g>
                          </g>
                        </g>
                      </g>
                    </g>
                  </g>
                </g>
                <g id="Grupo_44126" data-name="Grupo 44126" transform="translate(10.087)">
                  <g id="Grupo_44125" data-name="Grupo 44125">
                    <g id="Grupo_44124" data-name="Grupo 44124">
                      <g id="Grupo_44123" data-name="Grupo 44123">
                        <g id="Grupo_44122" data-name="Grupo 44122">
                          <g id="Grupo_44121" data-name="Grupo 44121">
                            <g id="Grupo_44120" data-name="Grupo 44120">
                              <g id="Grupo_44119" data-name="Grupo 44119">
                                <path id="Trazado_14293" data-name="Trazado 14293" d="M250.179,55.331c-3.3-1.553,5.631-12.621,13.3-16.7,11.651-6.214,29.709-10.68,40.874-8.252,13.5,2.913,24.952,8.835,32.427,20.486S347.655,76.4,348.141,90.283c.194,4.175,0,8.641-2.039,12.33-2.524,4.563-7.67,7.67-6.99,13.786a8.779,8.779,0,0,1-1.651,6.214c-3.4,4.078-8.058.777-10.388-2.718-4.855-7.476-5.922-16.8-6.893-25.728-.679-6.311-1.359-12.816,0-19.029.777-3.4,2.136-6.6,2.719-10s.194-7.185-2.039-9.806a15.883,15.883,0,0,0-1.748-1.553,20.984,20.984,0,0,0-20.874-2.621c-10.971,4.66-29.709,11.845-34.952,8.35-7.573-5.049-9.515-8.447-9.515-8.447Z" transform="translate(-249.473 -29.708)" fill="#263238"/>
                              </g>
                            </g>
                          </g>
                        </g>
                      </g>
                    </g>
                  </g>
                </g>
              </g>
            </g>
          </g>
          <g id="Grupo_44130" data-name="Grupo 44130" transform="translate(0 200.285)">
            <path id="Trazado_14294" data-name="Trazado 14294" d="M228.1,236c-1.165,1.553-17.476,6.99-23.592,17.282-6.214,10.291-12.33,56.6-12.33,56.6L188.2,340.37c7.767,12.233,18.156,28.544,29.224,40Z" transform="translate(-188.2 -236)" fill="#455a64"/>
          </g>
          <g id="Grupo_44132" data-name="Grupo 44132" transform="translate(162.428 244.946)" opacity="0.3">
            <g id="Grupo_44131" data-name="Grupo 44131">
              <path id="Trazado_14295" data-name="Trazado 14295" d="M355.5,282c.68,6.214,1.359,12.524,3.5,18.35s5.922,11.359,11.359,14.369c2.33,1.262,4.854,2.136,6.8,3.884,2.039,1.942,3.107,4.66,4.951,6.8,2.136,2.427,5.243,3.786,8.35,4.854a75.075,75.075,0,0,0,27.767,4.466c.291-3.2.291-14.952.582-18.155Z" transform="translate(-355.5 -282)"/>
            </g>
          </g>
          <g id="Grupo_44165" data-name="Grupo 44165" transform="translate(154.369 144.751)">
            <g id="Grupo_44136" data-name="Grupo 44136" transform="translate(33.496 33.107)">
              <g id="Grupo_44133" data-name="Grupo 44133" transform="translate(0.68)">
                <path id="Trazado_14296" data-name="Trazado 14296" d="M406.478,212.9s20.583,6.117,26.6,14.854,16.7,42.719,18.932,49.029.291,20.874-3.786,31.359-11.262,19.515-23.5,20.874c-12.33,1.359-31.748-5.728-36.117-10.388S382.4,303.58,382.4,303.58a115.238,115.238,0,0,0,16.116-4.078" transform="translate(-382.4 -212.9)" fill="#455a64"/>
              </g>
              <g id="Grupo_44135" data-name="Grupo 44135" transform="translate(0 0.097)">
                <g id="Grupo_44134" data-name="Grupo 44134">
                  <path id="Trazado_14297" data-name="Trazado 14297" d="M398.3,299.505a.751.751,0,0,0-.291.1,6.7,6.7,0,0,1-.777.291c-.68.194-1.748.583-3.107.971a116.72,116.72,0,0,1-12.039,2.913l.194-.194a56.941,56.941,0,0,0,2.136,7.573,36.778,36.778,0,0,0,1.747,4.078,12.94,12.94,0,0,0,2.719,3.786,18.215,18.215,0,0,0,4.175,2.718c1.553.777,3.107,1.554,4.854,2.233a89.055,89.055,0,0,0,10.874,3.5,55.5,55.5,0,0,0,12.233,1.553c1.068,0,2.136-.1,3.2-.194,1.068-.194,2.136-.291,3.2-.583a21.2,21.2,0,0,0,6.214-2.427,27.328,27.328,0,0,0,9.806-9.612,52.047,52.047,0,0,0,5.825-13.2,71.208,71.208,0,0,0,2.33-10.971,58.218,58.218,0,0,0,.582-10.777,18.688,18.688,0,0,0-1.068-5.146c-.583-1.65-1.068-3.3-1.65-4.951q-1.6-4.951-3.2-9.612c-2.136-6.214-4.175-12.136-6.311-17.573s-4.078-10.583-6.6-14.855a18.387,18.387,0,0,0-4.66-5.146,40.992,40.992,0,0,0-5.243-3.495,74.991,74.991,0,0,0-9.126-4.369c-2.524-1.068-4.563-1.845-6.019-2.33a8.857,8.857,0,0,1-1.553-.583c-.388-.1-.583-.194-.485-.194a2.719,2.719,0,0,1,.583.1c.388.1.971.291,1.553.485,1.359.485,3.5,1.165,6.02,2.136a101.43,101.43,0,0,1,9.223,4.272,33.474,33.474,0,0,1,5.34,3.5,16.955,16.955,0,0,1,4.757,5.34,111.576,111.576,0,0,1,6.7,14.854c2.136,5.437,4.272,11.359,6.408,17.573q1.6,4.66,3.2,9.612c.583,1.651,1.068,3.3,1.651,4.952a19.365,19.365,0,0,1,1.068,5.243,52.237,52.237,0,0,1-.485,10.971,64.586,64.586,0,0,1-2.427,11.068,50.313,50.313,0,0,1-5.922,13.4,28.678,28.678,0,0,1-10.1,9.806,22.347,22.347,0,0,1-6.408,2.427c-1.068.291-2.233.388-3.3.583a18.756,18.756,0,0,1-3.3.1,51.219,51.219,0,0,1-12.427-1.651,85.5,85.5,0,0,1-10.971-3.5c-1.65-.68-3.3-1.456-4.854-2.233a21.7,21.7,0,0,1-4.272-2.816,13.2,13.2,0,0,1-2.816-3.883,24.559,24.559,0,0,1-1.748-4.078,53.263,53.263,0,0,1-2.039-7.67v-.194h.194a107.648,107.648,0,0,0,12.039-2.718c1.359-.388,2.33-.68,3.107-.874a3,3,0,0,1,.777-.194A2.725,2.725,0,0,1,398.3,299.505Z" transform="translate(-381.7 -213)" fill="#263238"/>
                </g>
              </g>
            </g>
            <g id="Grupo_44138" data-name="Grupo 44138" transform="translate(55.341 81.36)">
              <g id="Grupo_44137" data-name="Grupo 44137">
                <path id="Trazado_14298" data-name="Trazado 14298" d="M436.725,289.882c-.194,0-.583-2.524-2.33-6.311a43.714,43.714,0,0,0-9.32-13.2,28.98,28.98,0,0,0-7.184-5.146,14.97,14.97,0,0,0-1.845-.777,12.281,12.281,0,0,0-1.747-.583,22.231,22.231,0,0,0-3.3-.68c-.291,0-.486-.1-.777-.1h-2.039a6.959,6.959,0,0,0-2.136.194,12.468,12.468,0,0,1-1.845.194c0-.1.582-.194,1.748-.486a11.349,11.349,0,0,1,2.136-.291,6.868,6.868,0,0,0,1.359-.1h.777c.291,0,.486.1.777.1a14.658,14.658,0,0,1,3.4.582,13.489,13.489,0,0,1,1.845.582c.583.291,1.262.485,1.845.777a28.329,28.329,0,0,1,7.476,5.243,39.837,39.837,0,0,1,9.224,13.5,22.723,22.723,0,0,1,.971,2.621,11.17,11.17,0,0,1,.582,2.039C436.627,289.3,436.725,289.882,436.725,289.882Z" transform="translate(-404.2 -262.6)" fill="#263238"/>
              </g>
            </g>
            <g id="Grupo_44140" data-name="Grupo 44140" transform="translate(59.128 72.015)">
              <g id="Grupo_44139" data-name="Grupo 44139">
                <path id="Trazado_14299" data-name="Trazado 14299" d="M448,271.155c-.194.1-.68-2.621-3.107-6.214a24.212,24.212,0,0,0-13.107-9.9c-6.311-1.942-12.427-1.359-16.7-.874-2.039.291-3.786.485-5.146.582a12.479,12.479,0,0,1-1.845.194,8.8,8.8,0,0,1,1.845-.485c1.165-.194,2.913-.583,5.049-.874,4.272-.583,10.486-1.262,16.99.68a21.92,21.92,0,0,1,8.253,4.563,24.577,24.577,0,0,1,5.048,5.825,21.537,21.537,0,0,1,2.233,4.66A11.777,11.777,0,0,1,448,271.155Z" transform="translate(-408.1 -252.975)" fill="#263238"/>
              </g>
            </g>
            <g id="Grupo_44142" data-name="Grupo 44142" transform="translate(59.128 66.199)">
              <g id="Grupo_44141" data-name="Grupo 44141">
                <path id="Trazado_14300" data-name="Trazado 14300" d="M432.469,248.941c-.1.291-5.437-1.456-12.233-1.165-6.8.194-12.039,2.33-12.136,2.136a13.988,13.988,0,0,1,3.4-1.456A32.567,32.567,0,0,1,420.236,247a36.289,36.289,0,0,1,8.738.777C431.207,248.359,432.566,248.844,432.469,248.941Z" transform="translate(-408.1 -246.985)" fill="#263238"/>
              </g>
            </g>
            <g id="Grupo_44144" data-name="Grupo 44144" transform="translate(48.937 38.253)">
              <g id="Grupo_44143" data-name="Grupo 44143">
                <path id="Trazado_14301" data-name="Trazado 14301" d="M398.959,218.2c.1,0-.194,2.136-.388,5.437a86.433,86.433,0,0,0,.1,13.2,78.89,78.89,0,0,0,2.136,12.525l-.583.194c-.582-1.748-1.068-3.107-1.359-4.078s-.485-1.553-.388-1.553.291.485.68,1.456.971,2.33,1.65,3.981l-.582.194a68.622,68.622,0,0,1-2.33-12.621,66.05,66.05,0,0,1,.1-13.3c.194-1.65.388-3.01.582-3.981S398.862,218.2,398.959,218.2Z" transform="translate(-397.603 -218.2)" fill="#263238"/>
              </g>
            </g>
            <g id="Grupo_44162" data-name="Grupo 44162">
              <g id="Grupo_44145" data-name="Grupo 44145">
                <path id="Trazado_14302" data-name="Trazado 14302" d="M368.365,178.8s-10.68,0-12.039,12.816c-1.068,9.806,0,19.418,0,23.69s-1.942,19.612-1.942,19.612-7.282,6.5-7.185,14.175c.1,7.767,5.631,10.194,5.631,10.194a13.128,13.128,0,0,0,3.107,14.175s-3.107,7.184-.583,11.942c1.942,3.689,6.408,4.951,6.408,4.951s-3.107,7.087,4.369,10c4.466,1.748,11.068,1.359,11.068,1.359l7.961-.194,6.99,3.884s12.039-5.243,12.33-12.33l.291-7.087s-3.4-11.748-3.689-15.437,2.815-12.621.971-16.6-8.35-6.311-7.67-11.942c.583-5.631-.582-8.641-3.4-11.748s-15.049-9.223-15.049-9.223-3.107-8.932-3.107-15.049C373.025,199.868,379.142,181.13,368.365,178.8Z" transform="translate(-347.199 -178.8)" fill="#ffbf9d"/>
              </g>
              <g id="Grupo_44147" data-name="Grupo 44147" transform="translate(7.471 44.65)">
                <g id="Grupo_44146" data-name="Grupo 44146">
                  <path id="Trazado_14303" data-name="Trazado 14303" d="M375.871,224.8a16.884,16.884,0,0,1-2.913,1.942c-1.845,1.068-4.466,2.524-7.379,4.175-2.913,1.553-5.534,3.01-7.476,3.981a19.106,19.106,0,0,1-3.2,1.456,16.855,16.855,0,0,1,2.913-1.942c1.845-1.068,4.466-2.524,7.379-4.175,2.913-1.553,5.534-3.01,7.476-3.981A13.537,13.537,0,0,1,375.871,224.8Z" transform="translate(-354.894 -224.789)" fill="#ff9a6c"/>
                </g>
              </g>
              <g id="Grupo_44149" data-name="Grupo 44149" transform="translate(6.215 68.829)">
                <g id="Grupo_44148" data-name="Grupo 44148">
                  <path id="Trazado_14304" data-name="Trazado 14304" d="M382.824,249.7s-.291.291-.971.874a26.015,26.015,0,0,1-2.816,1.942,55.835,55.835,0,0,1-10,5.049,51.827,51.827,0,0,1-10.777,2.913,30.224,30.224,0,0,1-3.4.388c-.777.1-1.262.1-1.262,0s1.748-.388,4.563-.971a70.524,70.524,0,0,0,10.68-3.107,75.82,75.82,0,0,0,10-4.757A34.486,34.486,0,0,1,382.824,249.7Z" transform="translate(-353.6 -249.693)" fill="#ff9a6c"/>
                </g>
              </g>
              <g id="Grupo_44151" data-name="Grupo 44151" transform="translate(40.384 61.159)">
                <g id="Grupo_44150" data-name="Grupo 44150">
                  <path id="Trazado_14305" data-name="Trazado 14305" d="M392.975,241.8c.194.1-.194,1.456-1.456,2.622s-2.622,1.456-2.719,1.262,1.068-.777,2.136-1.845C392.1,242.771,392.781,241.7,392.975,241.8Z" transform="translate(-388.794 -241.794)" fill="#ff9a6c"/>
                </g>
              </g>
              <g id="Grupo_44153" data-name="Grupo 44153" transform="translate(8.351 89.891)">
                <g id="Grupo_44152" data-name="Grupo 44152">
                  <path id="Trazado_14306" data-name="Trazado 14306" d="M387.645,271.4a24.18,24.18,0,0,1-4.466,1.65,81.436,81.436,0,0,1-11.165,2.524,98.341,98.341,0,0,1-11.456,1.068,19.2,19.2,0,0,1-4.757-.194,42.915,42.915,0,0,1,4.757-.388c2.912-.194,6.893-.582,11.359-1.262,4.369-.68,8.35-1.65,11.165-2.33A37.3,37.3,0,0,1,387.645,271.4Z" transform="translate(-355.8 -271.387)" fill="#ff9a6c"/>
                </g>
              </g>
              <g id="Grupo_44155" data-name="Grupo 44155" transform="translate(47.953 72.806)">
                <g id="Grupo_44154" data-name="Grupo 44154">
                  <path id="Trazado_14307" data-name="Trazado 14307" d="M398.542,269.139c-.1-.1.388-.874.776-2.33a12.414,12.414,0,0,0,.583-5.631,13.677,13.677,0,0,0-1.942-5.34c-.777-1.262-1.456-1.942-1.359-2.039s.874.486,1.748,1.748a11.625,11.625,0,0,1,2.233,5.534,10.936,10.936,0,0,1-.874,5.922A3.736,3.736,0,0,1,398.542,269.139Z" transform="translate(-396.59 -253.789)" fill="#ff9a6c"/>
                </g>
              </g>
              <g id="Grupo_44157" data-name="Grupo 44157" transform="translate(14.273 111.492)">
                <g id="Grupo_44156" data-name="Grupo 44156">
                  <path id="Trazado_14308" data-name="Trazado 14308" d="M388.308,293.7a16.786,16.786,0,0,1-3.786.874,59.106,59.106,0,0,1-9.418.777,60.157,60.157,0,0,1-9.418-.777,16.785,16.785,0,0,1-3.786-.874,27.241,27.241,0,0,1,3.883.388,76.625,76.625,0,0,0,9.32.582c3.592,0,6.893-.291,9.32-.485C386.852,293.8,388.308,293.5,388.308,293.7Z" transform="translate(-361.9 -293.636)" fill="#ff9a6c"/>
                </g>
              </g>
              <g id="Grupo_44159" data-name="Grupo 44159" transform="translate(11.069 26.198)">
                <g id="Grupo_44158" data-name="Grupo 44158">
                  <path id="Trazado_14309" data-name="Trazado 14309" d="M369.28,207.062c0,.1-.485.485-1.456.874a8.691,8.691,0,0,1-4.078.388,9.066,9.066,0,0,1-3.883-1.359c-.874-.582-1.262-1.068-1.262-1.165.1-.194,2.136,1.456,5.243,1.748C366.852,207.935,369.28,206.77,369.28,207.062Z" transform="translate(-358.6 -205.784)" fill="#ff9a6c"/>
                </g>
              </g>
              <g id="Grupo_44161" data-name="Grupo 44161" transform="translate(47.957 89.03)">
                <g id="Grupo_44160" data-name="Grupo 44160">
                  <path id="Trazado_14310" data-name="Trazado 14310" d="M400.775,270.5a11.038,11.038,0,0,1,.194,1.165,14.116,14.116,0,0,1-.388,3.107c-.291,1.262-.777,2.816-1.262,4.466a12.548,12.548,0,0,0-.582,5.437c.291,1.845,1.65,3.4,1.845,5.34a7.129,7.129,0,0,1-1.165,4.66,16.513,16.513,0,0,1-1.942,2.524c-.485.583-.777.777-.874.777-.1-.1,1.068-1.262,2.33-3.592a7.54,7.54,0,0,0,.971-4.272c-.194-1.65-1.65-3.107-1.942-5.34a12.136,12.136,0,0,1,.679-5.728c.485-1.651,1.068-3.107,1.359-4.369A23.021,23.021,0,0,0,400.775,270.5Z" transform="translate(-396.594 -270.5)" fill="#ff9a6c"/>
                </g>
              </g>
            </g>
            <g id="Grupo_44164" data-name="Grupo 44164" transform="translate(42.813 98.447)">
              <g id="Grupo_44163" data-name="Grupo 44163">
                <path id="Trazado_14311" data-name="Trazado 14311" d="M404.6,280.2c.1,0,.194.485.485,1.359s.582,2.233.971,3.884a33.307,33.307,0,0,1,.68,6.02,16.663,16.663,0,0,1-1.359,7.281,19.958,19.958,0,0,1-4.563,5.825,35.334,35.334,0,0,1-4.757,3.689c-1.456.971-2.622,1.651-3.4,2.136a13.407,13.407,0,0,1-1.359.68c-.1-.1,1.748-1.262,4.466-3.2a44.5,44.5,0,0,0,4.563-3.786,23.518,23.518,0,0,0,4.369-5.631,16.312,16.312,0,0,0,1.359-6.99,33.932,33.932,0,0,0-.582-5.922C404.989,282.239,404.5,280.2,404.6,280.2Z" transform="translate(-391.296 -280.2)" fill="#263238"/>
              </g>
            </g>
          </g>
          <g id="Grupo_44167" data-name="Grupo 44167" transform="translate(72.136 181.353)">
            <g id="Grupo_44166" data-name="Grupo 44166">
              <path id="Trazado_14312" data-name="Trazado 14312" d="M288.325,228.636a14.378,14.378,0,0,1-1.748-1.262c-1.165-.971-2.718-2.233-4.563-3.787-.971-.777-2.039-1.65-3.107-2.621a7.264,7.264,0,0,0-1.748-1.262,2.5,2.5,0,0,0-2.039-.1c-1.262.68-2.136,2.33-3.2,3.689-1.068,1.456-2.136,2.913-3.3,4.466-1.845,2.427-3.5,4.757-5.146,6.893l-.971,1.262.291-1.553a82.491,82.491,0,0,1,3.689-13.01,38.435,38.435,0,0,1,1.553-3.592c.388-.777.583-1.262.68-1.262a12.7,12.7,0,0,1-.388,1.359c-.291.874-.777,2.136-1.359,3.689a90.354,90.354,0,0,0-3.4,13.01l-.68-.291c1.553-2.136,3.3-4.466,5.146-6.893,1.165-1.553,2.233-3.01,3.3-4.466.583-.68,1.068-1.456,1.553-2.136a5.608,5.608,0,0,1,1.942-1.748,3.088,3.088,0,0,1,2.621.1,7,7,0,0,1,1.845,1.359c1.068.971,2.136,1.845,3.01,2.718,1.748,1.554,3.2,2.913,4.369,3.884A14.054,14.054,0,0,1,288.325,228.636Z" transform="translate(-262.5 -216.5)" fill="#263238"/>
            </g>
          </g>
          <g id="Grupo_44169" data-name="Grupo 44169" transform="translate(101.845 180.868)">
            <g id="Grupo_44168" data-name="Grupo 44168">
              <path id="Trazado_14313" data-name="Trazado 14313" d="M352.227,216a5.952,5.952,0,0,1-.582.485c-.486.388-1.068.777-1.748,1.359-1.65,1.262-3.884,2.913-6.6,4.951-5.728,4.175-13.4,9.9-21.942,16.117l-.291.291-.194-.388-.583-.874c-4.078-6.408-7.864-12.33-10.971-17.379l.388.1a83.216,83.216,0,0,0-12.233,6.116q-2.185,1.311-3.2,2.039c-.777.485-1.165.777-1.165.68,0,0,.388-.291,1.068-.874.68-.485,1.747-1.262,3.107-2.233a78.352,78.352,0,0,1,12.136-6.408l.291-.1.194.194c3.2,5.049,6.99,10.971,11.068,17.282l.583.874-.583-.1c8.641-6.214,16.408-11.845,22.039-15.922,2.816-1.942,5.049-3.592,6.7-4.757a19.544,19.544,0,0,0,1.845-1.262A1.343,1.343,0,0,0,352.227,216Z" transform="translate(-293.1 -216)" fill="#263238"/>
            </g>
          </g>
          <g id="Grupo_44171" data-name="Grupo 44171" transform="translate(26.893 240.188)">
            <g id="Grupo_44170" data-name="Grupo 44170">
              <path id="Trazado_14314" data-name="Trazado 14314" d="M216.094,277.1a4.857,4.857,0,0,1,.1,1.068c0,.777,0,1.748.1,3.01.1,2.718.1,6.5.194,11.068.194,9.418.583,22.33,1.068,36.6s.777,27.282.777,36.6v11.068a26.46,26.46,0,0,1-.1,3.01c0,.68,0,1.068-.1,1.068a4.856,4.856,0,0,1-.1-1.068c0-.777,0-1.748-.1-3.01-.1-2.719-.1-6.5-.194-11.068-.194-9.418-.583-22.33-1.068-36.6s-.777-27.282-.777-36.6V281.178a26.46,26.46,0,0,1,.1-3.01A4.852,4.852,0,0,1,216.094,277.1Z" transform="translate(-215.9 -277.1)" fill="#263238"/>
            </g>
          </g>
          <g id="Grupo_44173" data-name="Grupo 44173" transform="translate(95.059 207.373)">
            <g id="Grupo_44172" data-name="Grupo 44172">
              <path id="Trazado_14315" data-name="Trazado 14315" d="M289.5,410.874a1.531,1.531,0,0,0-.1-.388c0-.291-.1-.777-.1-1.262-.1-1.165-.291-2.816-.486-4.854-.388-4.272-.874-10.388-1.359-17.961s-.874-16.7-1.165-26.7c-.194-10.1-.291-21.165,0-32.719.291-11.651.777-22.719,1.456-32.719s1.456-19.029,2.33-26.6c.777-7.573,1.553-13.689,2.136-17.864.291-2.039.485-3.689.68-4.854a8.063,8.063,0,0,0,.194-1.262,1.531,1.531,0,0,0,.1-.388v.388c0,.291-.1.777-.1,1.262-.1,1.165-.291,2.816-.582,4.854-.485,4.272-1.165,10.388-1.942,17.961s-1.456,16.6-2.136,26.6c-.583,10-1.165,21.068-1.359,32.719-.194,11.553-.194,22.622,0,32.719s.583,19.126.971,26.7.777,13.787,1.165,17.961c.1,2.039.291,3.689.291,4.854,0,.485.1.971.1,1.262A.752.752,0,0,0,289.5,410.874Z" transform="translate(-286.111 -243.3)" fill="#263238"/>
            </g>
          </g>
        </g>
      </g>
    </g>
    <g id="Stars" transform="translate(182.72 106.982)">
      <g id="Grupo_44176" data-name="Grupo 44176" transform="translate(0 7.864)">
        <path id="Trazado_14316" data-name="Trazado 14316" d="M201.375,117.4l4.466,8.932,9.806,1.359-7.087,6.893,1.651,9.806-8.835-4.66-8.738,4.66,1.65-9.806-7.087-6.893,9.806-1.359Z" transform="translate(-187.2 -117.4)" fill="#88cb66"/>
      </g>
      <g id="Grupo_44177" data-name="Grupo 44177" transform="translate(28.447)">
        <path id="Trazado_14317" data-name="Trazado 14317" d="M223.2,109.3l2.039,4.175,4.66.68-3.4,3.3.777,4.563-4.078-2.136-4.175,2.136.777-4.563-3.3-3.3,4.66-.68Z" transform="translate(-216.5 -109.3)" fill="#88cb66"/>
      </g>
    </g>
  </g>
</svg>
