<svg xmlns="http://www.w3.org/2000/svg" width="432.031" height="438.154" viewBox="0 0 432.031 438.154">
  <g id="_21118463_6428537" data-name="21118463_6428537" transform="translate(-20.813 -18.943)">
    <g id="Background_Complete" transform="translate(26.257 22.289)">
      <g id="Grupo_44179" data-name="Grupo 44179" transform="translate(0 54.751)">
        <g id="Grupo_44178" data-name="Grupo 44178">
          <path id="Trazado_14318" data-name="Trazado 14318" d="M39.77,87.85a19.231,19.231,0,0,1,4.7-2.164l.847-4.7,7.9-.282,1.223,4.61A19.159,19.159,0,0,1,59.338,87.1l3.951-2.728,5.833,5.362L66.675,93.87a19.231,19.231,0,0,1,2.164,4.7l4.7.847.282,7.9-4.61,1.223a19.157,19.157,0,0,1-1.787,4.892l2.728,3.951-5.362,5.833-4.139-2.446a19.227,19.227,0,0,1-4.7,2.164l-.847,4.7-7.9.282-1.223-4.61a19.157,19.157,0,0,1-4.892-1.787l-3.951,2.728L31.3,118.894l2.446-4.139a19.233,19.233,0,0,1-2.164-4.7l-4.7-.847-.282-7.9,4.61-1.223A19.16,19.16,0,0,1,33,95.187l-2.728-3.951L35.631,85.4,39.77,87.85Zm4.516,10.442a8.521,8.521,0,1,0,12.041-.47A8.494,8.494,0,0,0,44.286,98.292Z" transform="translate(-26.6 -80.7)" fill="#f5f5f5"/>
        </g>
      </g>
      <g id="Grupo_44181" data-name="Grupo 44181" transform="translate(363.97 222.672)">
        <g id="Grupo_44180" data-name="Grupo 44180">
          <path id="Trazado_14319" data-name="Trazado 14319" d="M426.67,266.349a19.241,19.241,0,0,1,4.7-2.164l.846-4.7,7.9-.282,1.223,4.61a19.157,19.157,0,0,1,4.892,1.787l3.951-2.728,5.832,5.362-2.446,4.139a19.231,19.231,0,0,1,2.164,4.7l4.7.846.282,7.9-4.61,1.223a19.148,19.148,0,0,1-1.787,4.892l2.728,3.951-5.362,5.833-4.139-2.446a19.235,19.235,0,0,1-4.7,2.164l-.847,4.7-7.9.282-1.223-4.61a19.142,19.142,0,0,1-4.892-1.787l-3.951,2.728-5.833-5.362,2.446-4.139a19.227,19.227,0,0,1-2.164-4.7l-4.7-.847-.282-7.9,4.61-1.223a19.155,19.155,0,0,1,1.787-4.892l-2.728-3.951,5.362-5.833,4.139,2.446Zm4.422,10.537a8.521,8.521,0,1,0,12.042-.471A8.494,8.494,0,0,0,431.092,276.886Z" transform="translate(-413.5 -259.2)" fill="#f5f5f5"/>
        </g>
      </g>
      <g id="Grupo_44183" data-name="Grupo 44183" transform="translate(17.592 16.087)">
        <g id="Grupo_44182" data-name="Grupo 44182">
          <path id="Trazado_14320" data-name="Trazado 14320" d="M51.415,42.893a9.156,9.156,0,0,1,2.164-1.035l.376-2.164,3.669-.094.564,2.164a11.031,11.031,0,0,1,2.258.847l1.881-1.223,2.728,2.54L63.927,45.9a9.155,9.155,0,0,1,1.035,2.164l2.164.376.094,3.669-2.164.564a11.029,11.029,0,0,1-.847,2.258l1.223,1.881-2.54,2.728-1.976-1.129a9.158,9.158,0,0,1-2.164,1.035l-.376,2.164H54.9l-.564-2.164a11.03,11.03,0,0,1-2.258-.847l-1.881,1.223-2.728-2.54,1.129-1.976a9.156,9.156,0,0,1-1.035-2.164l-2.164-.376L45.3,49.1l2.164-.564a11.029,11.029,0,0,1,.847-2.258L47.087,44.4l2.54-2.728,1.787,1.223Zm2.07,4.892a3.927,3.927,0,0,0,5.738,5.362,3.975,3.975,0,0,0-.188-5.55A3.9,3.9,0,0,0,53.484,47.784Z" transform="translate(-45.3 -39.6)" fill="#f5f5f5"/>
        </g>
      </g>
      <g id="Grupo_44184" data-name="Grupo 44184" transform="translate(6.424 311.697)">
        <path id="Trazado_14321" data-name="Trazado 14321" d="M75.092,393.806l-9.784,4.045s3.387,8.279-5.174,11.853a8.747,8.747,0,0,1-9.784-1.881,9.554,9.554,0,0,1-2.54-8.279c.564-3.387,3.2-7.432,10.254-8.937L49.034,368.5l-9.69,3.951,5.268,12.982s-12.135,9.125-6.021,24.083c5.833,14.393,20.132,12.418,25.588,10.16C68.413,417.888,82.336,411.021,75.092,393.806Z" transform="translate(-33.633 -354.702)" fill="#ebebeb"/>
        <rect id="Rectángulo_4384" data-name="Rectángulo 4384" width="10.63" height="9.972" transform="matrix(0.925, -0.379, 0.379, 0.925, 0, 4.026)" fill="#ebebeb"/>
      </g>
      <g id="Grupo_44185" data-name="Grupo 44185" transform="translate(385.83 92.428)">
        <path id="Trazado_14322" data-name="Trazado 14322" d="M442,132.462l9.125,3.763s3.2-7.62,11.195-4.422a8.067,8.067,0,0,1,5.174,7.714,8.537,8.537,0,0,1-3.763,7.055c-2.634,1.882-6.961,2.822-12.606-.847l-8.561,20.508L451.5,170l4.986-11.947s13.923,2.07,19.756-11.853c5.55-13.264-5.08-21.355-10.16-23.518C462.226,120.985,448.491,116.376,442,132.462Z" transform="translate(-437.048 -120.751)" fill="#ebebeb"/>
        <rect id="Rectángulo_4385" data-name="Rectángulo 4385" width="9.219" height="9.878" transform="translate(0 58.193) rotate(-67.256)" fill="#ebebeb"/>
      </g>
      <g id="Grupo_44186" data-name="Grupo 44186" transform="translate(368.298 57.385)">
        <path id="Trazado_14323" data-name="Trazado 14323" d="M450.932,83.5l-19.567,8.278,2.352,2.916L418.1,104.008l22.672-8.937-2.446-3.01Z" transform="translate(-418.1 -83.5)" fill="#e0e0e0"/>
      </g>
      <g id="Grupo_44187" data-name="Grupo 44187" transform="translate(329.539)">
        <path id="Trazado_14324" data-name="Trazado 14324" d="M380.851,22.5,376.9,58.154l6.209-1.035.753,30.574,5.644-40.734-6.4,1.129Z" transform="translate(-376.9 -22.5)" fill="#e0e0e0"/>
      </g>
      <g id="Grupo_44188" data-name="Grupo 44188" transform="translate(349.691 6.535)">
        <path id="Trazado_14325" data-name="Trazado 14325" d="M420.681,32.225l-11.1,31.232a5.394,5.394,0,0,0,2.634,6.585h0a5.357,5.357,0,0,0,7.055-2.164L435.732,38.81a4.185,4.185,0,0,0-2.07-5.927l-7.432-3.1A4.132,4.132,0,0,0,420.681,32.225Z" transform="translate(-398.969 -29.446)" fill="#e0e0e0"/>
        <path id="Trazado_14326" data-name="Trazado 14326" d="M412.412,93.554a8.062,8.062,0,1,1-.658-11.383A8.138,8.138,0,0,1,412.412,93.554Z" transform="translate(-398.321 -32.45)" fill="#e0e0e0"/>
      </g>
    </g>
    <g id="Shape" transform="translate(20.813 18.944)">
      <path id="Trazado_14327" data-name="Trazado 14327" d="M399.353,181.462a57.632,57.632,0,0,0,7.056-39.04,9.842,9.842,0,0,0-.376-1.6c-.941-4.61-1.693-8.373-3.951-12.324-.188-.47-.47-.941-.659-1.505a6.726,6.726,0,0,0-.753-1.411,57.321,57.321,0,0,0-47.319-29.539c-3.293-31.326-25.212-60.019-54.563-71.5-29.351-11.383-64.911-5.08-88.523,15.8-24.929-18.721-59.454-23.895-88.805-13.358S68.778,63.4,61.346,93.691c-2.258,9.219-3.2,19.1-7.9,27.375-3.575,6.209-9.031,11.195-13.735,16.651a79.156,79.156,0,0,0,19.85,119.473c-15.8,21.731-10.254,55.88,11.571,71.4,12.512,8.937,29.257,12.418,38.852,24.459,4.045,5.174,6.4,11.383,9.972,16.933,11.947,18.815,38.664,26.435,58.8,16.933l107.056-27.187A140.539,140.539,0,0,0,386.37,327.652c10.254-8.561,19.473-19,23.895-31.609s3.387-27.752-5.174-38.006C425.317,237.341,422.4,198.959,399.353,181.462Z" transform="translate(-20.813 -18.944)" fill="#e0e0e0"/>
    </g>
    <g id="Gears" transform="translate(68.872 94.914)">
      <g id="Grupo_44190" data-name="Grupo 44190" transform="translate(59.454 129.163)">
        <g id="Grupo_44189" data-name="Grupo 44189">
          <path id="Trazado_14328" data-name="Trazado 14328" d="M148.929,244.432a23.084,23.084,0,0,1,4.892-2.258l.941-4.892L163.04,237l1.317,4.8a19.416,19.416,0,0,1,5.08,1.882l4.139-2.822,6.115,5.645-2.54,4.327a23.084,23.084,0,0,1,2.258,4.892l4.892.941.282,8.279-4.8,1.317a19.409,19.409,0,0,1-1.881,5.08l2.822,4.139-5.644,6.115-4.327-2.54a23.09,23.09,0,0,1-4.892,2.258l-.941,4.892-8.278.282-1.317-4.8a19.408,19.408,0,0,1-5.08-1.882l-4.139,2.822-6.115-5.644,2.54-4.327a23.09,23.09,0,0,1-2.258-4.892l-4.892-.941-.282-8.278,4.8-1.317a19.406,19.406,0,0,1,1.881-5.08l-2.822-4.139,5.645-6.115,4.327,2.54Zm4.7,11.007a8.853,8.853,0,1,0,12.512-.47A8.724,8.724,0,0,0,153.632,255.438Z" transform="translate(-135.1 -237)" fill="#f5f5f5"/>
        </g>
      </g>
      <g id="Grupo_44192" data-name="Grupo 44192" transform="translate(218.156 0)">
        <g id="Grupo_44191" data-name="Grupo 44191">
          <path id="Trazado_14329" data-name="Trazado 14329" d="M311.326,103.745a9.559,9.559,0,0,1,2.634-1.223l.471-2.634,4.515-.188.659,2.634a9.6,9.6,0,0,1,2.728,1.035l2.258-1.505,3.293,3.01-1.317,2.352a9.577,9.577,0,0,1,1.223,2.634l2.634.47.188,4.515-2.634.659a9.6,9.6,0,0,1-1.035,2.728l1.505,2.258-3.011,3.293-2.352-1.317a9.567,9.567,0,0,1-2.634,1.223l-.471,2.634-4.516.188-.659-2.634a9.6,9.6,0,0,1-2.728-1.035l-2.258,1.505-3.293-3.01,1.317-2.352a9.567,9.567,0,0,1-1.223-2.634l-2.634-.47-.188-4.516,2.634-.658a9.609,9.609,0,0,1,1.035-2.728l-1.505-2.258,3.01-3.293,2.352,1.317Zm2.54,5.833a4.794,4.794,0,1,0,6.773-.282A4.951,4.951,0,0,0,313.866,109.578Z" transform="translate(-303.8 -99.7)" fill="#f5f5f5"/>
        </g>
      </g>
      <g id="Grupo_44194" data-name="Grupo 44194" transform="translate(0 184.854)">
        <g id="Grupo_44193" data-name="Grupo 44193">
          <path id="Trazado_14330" data-name="Trazado 14330" d="M81.59,301.468a15.891,15.891,0,0,1,3.387-1.6l.659-3.481,5.738-.188.941,3.387a16.325,16.325,0,0,1,3.575,1.317l2.916-1.975,4.233,3.951-1.787,3.01a15.887,15.887,0,0,1,1.6,3.387l3.481.659.188,5.739-3.387.941a16.326,16.326,0,0,1-1.317,3.575l1.976,2.916-3.951,4.233-3.01-1.787a15.89,15.89,0,0,1-3.387,1.6l-.658,3.481-5.739.188-.941-3.386a16.334,16.334,0,0,1-3.575-1.317l-2.916,1.975-4.233-3.951,1.787-3.01a15.882,15.882,0,0,1-1.6-3.387l-3.481-.658-.188-5.739,3.387-.941A16.323,16.323,0,0,1,76.6,306.83l-1.975-2.916,3.951-4.233,3.01,1.787Zm3.2,7.62a6.192,6.192,0,1,0,8.749-.376A6.139,6.139,0,0,0,84.788,309.088Z" transform="translate(-71.9 -296.2)" fill="#f5f5f5"/>
        </g>
      </g>
      <g id="Grupo_44196" data-name="Grupo 44196" transform="translate(262.465 193.321)">
        <g id="Grupo_44195" data-name="Grupo 44195">
          <path id="Trazado_14331" data-name="Trazado 14331" d="M360.684,310.468a15.871,15.871,0,0,1,3.387-1.6l.659-3.481,5.739-.188.941,3.387a16.331,16.331,0,0,1,3.575,1.317l2.916-1.975,4.233,3.951-1.787,3.01a15.884,15.884,0,0,1,1.6,3.387l3.481.659.189,5.738-3.387.941a16.328,16.328,0,0,1-1.317,3.575l1.975,2.916-3.951,4.233-3.01-1.787a15.9,15.9,0,0,1-3.387,1.6l-.659,3.481-5.832.188-.941-3.387a16.332,16.332,0,0,1-3.575-1.317l-2.916,1.975-4.233-3.951,1.787-3.011a15.882,15.882,0,0,1-1.6-3.386l-3.481-.659-.188-5.738,3.387-.941a16.343,16.343,0,0,1,1.317-3.575l-1.976-2.916,3.951-4.233,3.1,1.787Zm3.2,7.62a6.192,6.192,0,1,0,8.749-.376A6.227,6.227,0,0,0,363.882,318.088Z" transform="translate(-350.9 -305.2)" fill="#f5f5f5"/>
        </g>
      </g>
    </g>
    <g id="Speech_bubbles" transform="translate(43.73 49.027)">
      <g id="Grupo_44199" data-name="Grupo 44199" transform="translate(0 122.21)">
        <path id="Trazado_14332" data-name="Trazado 14332" d="M105.217,197.453A12.138,12.138,0,0,0,97.5,190.3c-3.01-.847-6.491-.564-8.843-2.54-1.129-.941-1.787-2.352-2.728-3.481a11.519,11.519,0,0,0-7.056-3.293c-8.749-1.223-16.839,4.8-20.038,11.853h0c-3.575,2.352-7.244,4.8-9.972,8.184s-4.421,7.808-3.387,12.041c.753,3.1,2.822,5.738,3.575,8.749.659,2.822.188,5.738.47,8.655.188,2.916,1.411,6.021,4.139,7.056,3.293,1.317,7.432-1.129,10.442.658,2.07,1.223,2.728,3.951,4.421,5.645,2.916,3.01,7.9,2.258,11.853.847a59.879,59.879,0,0,0,13.076-6.3,24.939,24.939,0,0,0,7.15-6.115,12.239,12.239,0,0,0,2.54-8.937c-.282-1.882-1.223-3.669-1.317-5.644-.188-3.387,2.07-6.4,3.2-9.6A13.882,13.882,0,0,0,105.217,197.453Z" transform="translate(-45.174 -180.831)" fill="#f5f5f5"/>
        <g id="Grupo_44198" data-name="Grupo 44198" transform="translate(18.369 28.663)">
          <path id="Trazado_14333" data-name="Trazado 14333" d="M101.461,237.8,92.9,243.727h0l8.749,3.1Z" transform="translate(-66.371 -212.87)" fill="#f5f5f5"/>
          <g id="Grupo_44197" data-name="Grupo 44197">
            <path id="Trazado_14334" data-name="Trazado 14334" d="M71.85,214.875a3.575,3.575,0,1,1-3.575-3.575A3.7,3.7,0,0,1,71.85,214.875Z" transform="translate(-64.7 -211.3)" fill="#263238"/>
            <path id="Trazado_14335" data-name="Trazado 14335" d="M83.55,214.875a3.575,3.575,0,1,1-3.575-3.575A3.7,3.7,0,0,1,83.55,214.875Z" transform="translate(-65.393 -211.3)" fill="#263238"/>
            <path id="Trazado_14336" data-name="Trazado 14336" d="M95.25,214.875a3.575,3.575,0,1,1-3.575-3.575A3.7,3.7,0,0,1,95.25,214.875Z" transform="translate(-66.087 -211.3)" fill="#263238"/>
          </g>
        </g>
      </g>
      <g id="Grupo_44202" data-name="Grupo 44202" transform="translate(246.155 64.231)">
        <path id="Trazado_14337" data-name="Trazado 14337" d="M390.057,134.064c-.753-1.317-2.54-1.6-4.045-1.693a68.966,68.966,0,0,0-16.463.564c-1.881.282-4.61.094-4.8-1.787-.094-1.129.941-2.07,1.975-2.54,1.882-.753,3.951-.376,5.927-.376s4.233-.753,5.08-2.54c1.223-2.728-1.975-5.644-4.892-6.021-3.01-.47-6.115.376-9.031-.47l-6.3.094a56.97,56.97,0,0,0-13.735,1.976c-1.223.376-2.728,1.035-2.822,2.352-.094,1.223,1.223,2.164,1.787,3.293,1.223,2.258-.753,5.08-3.2,6.021s-5.08.564-7.62.753-5.362,1.223-6.209,3.669c-.659,1.881.094,4.045-.47,6.021-.753,2.446-3.481,3.763-6.021,4.233s-5.174.376-7.526,1.411a8.328,8.328,0,0,0,3.2,15.9c1.787,0,3.575-.47,5.362-.564a5.8,5.8,0,0,1,3.763.941,9.391,9.391,0,0,0,6.585,8.561c2.54.659,5.174.282,7.714.753,2.54.565,5.08,2.634,4.61,5.174-.376,1.787-2.164,3.1-2.258,4.986-.188,2.258,2.258,3.857,4.516,4.139,2.258.188,4.515-.47,6.773-.376s4.8,1.6,4.8,3.857c.094,2.54-2.916,4.233-2.916,6.773,0,2.07,1.975,3.669,3.951,4.421s4.139,1.129,5.739,2.54,1.787,4.421-.094,5.268c3.1-.094,4.892-4.61,2.728-6.867-1.317-1.411-3.575-1.787-4.61-3.387-1.129-1.787-.188-4.327,1.505-5.645a25.043,25.043,0,0,1,5.738-2.822c1.976-.847,3.951-2.258,4.422-4.327.752-3.1-2.258-6.021-5.363-6.773-3.1-.658-6.4.094-9.6.282s-6.867-.47-8.655-3.1c3.481-1.693,6.961-3.293,10.442-4.986a4.48,4.48,0,0,0,2.352-1.976c.565-1.787-1.505-3.293-3.2-4.045l-6.773-3.1a2.9,2.9,0,0,0-.282-1.223c4.139-1.693,8.843-1.035,13.264-.47s9.125,1.035,13.17-.941,6.585-7.432,4.045-11.1c-1.411-1.975-4.045-3.292-4.139-5.738-.094-1.976,1.881-3.481,3.763-4.139s3.951-.753,5.739-1.693C389.775,138.015,391.092,135.757,390.057,134.064Z" transform="translate(-306.836 -119.2)" fill="#f5f5f5"/>
        <g id="Grupo_44201" data-name="Grupo 44201" transform="translate(30.164 22.954)">
          <g id="Grupo_44200" data-name="Grupo 44200">
            <circle id="Elipse_1401" data-name="Elipse 1401" cx="3.387" cy="3.387" r="3.387" transform="translate(0 0)" fill="#263238"/>
            <path id="Trazado_14338" data-name="Trazado 14338" d="M356.773,146.987a3.387,3.387,0,1,1-3.387-3.387A3.372,3.372,0,0,1,356.773,146.987Z" transform="translate(-339.558 -143.6)" fill="#263238"/>
            <circle id="Elipse_1402" data-name="Elipse 1402" cx="3.387" cy="3.387" r="3.387" transform="translate(20.978 0)" fill="#263238"/>
          </g>
        </g>
      </g>
      <g id="Grupo_44206" data-name="Grupo 44206" transform="translate(36.349 0)">
        <g id="Grupo_44203" data-name="Grupo 44203">
          <path id="Trazado_14339" data-name="Trazado 14339" d="M111.082,63.413A19.311,19.311,0,0,0,97.065,96.057c-9.219,1.976-15.146,12.794-12.7,21.919S96.595,133.31,106,132.651s17.874-7.526,21.355-16.369a19.9,19.9,0,0,0,17.592,12.888,19.644,19.644,0,0,0,18.344-11.759c4.139,7.714,16.087,9.031,22.86,3.481s8.372-15.992,5.08-24.177S180.7,82.51,172.7,78.747c5.08-4.61,5.738-12.982,2.07-18.815S163.951,51,157.178,51.372c-6.867.376-13.264,3.857-18.156,8.655A14.45,14.45,0,0,0,124.346,51a14.677,14.677,0,0,0-12.512,11.947" transform="translate(-83.812 -50.922)" fill="#f5f5f5"/>
        </g>
        <g id="Grupo_44204" data-name="Grupo 44204" transform="translate(37.455 23.974)">
          <path id="Trazado_14340" data-name="Trazado 14340" d="M123.884,81.763l8.843,15.522a2.875,2.875,0,0,0,3.669,1.223h0a2.851,2.851,0,0,0,1.6-3.669l-6.021-16.933a2.245,2.245,0,0,0-3.2-1.223l-3.857,1.976A2.256,2.256,0,0,0,123.884,81.763Z" transform="translate(-123.627 -76.407)" fill="#263238"/>
          <path id="Trazado_14341" data-name="Trazado 14341" d="M145.853,107.161a4.364,4.364,0,1,1-8.655,1.129,4.3,4.3,0,0,1,3.763-4.892A4.35,4.35,0,0,1,145.853,107.161Z" transform="translate(-124.43 -78.004)" fill="#263238"/>
        </g>
        <g id="Grupo_44205" data-name="Grupo 44205" transform="translate(65.205 18.129)">
          <path id="Trazado_14342" data-name="Trazado 14342" d="M154.3,72.175l.282,15.428a2.455,2.455,0,0,0,2.258,2.446h0a2.5,2.5,0,0,0,2.728-2.07l2.446-15.428a1.932,1.932,0,0,0-1.881-2.258L156.37,70.2A1.952,1.952,0,0,0,154.3,72.175Z" transform="translate(-153.195 -70.193)" fill="#ebebeb"/>
          <path id="Trazado_14343" data-name="Trazado 14343" d="M160.439,100.376a3.782,3.782,0,1,1-2.164-4.892A3.751,3.751,0,0,1,160.439,100.376Z" transform="translate(-153.125 -71.677)" fill="#ebebeb"/>
        </g>
      </g>
    </g>
    <g id="Symbols" transform="translate(194.742 54.927)">
      <g id="Grupo_44207" data-name="Grupo 44207" transform="translate(77.614 166.905)">
        <path id="Trazado_14344" data-name="Trazado 14344" d="M304.482,236.67l-8,22.578a3.97,3.97,0,0,0,1.882,4.8h0a3.818,3.818,0,0,0,5.08-1.6L315.3,241.374a3.048,3.048,0,0,0-1.505-4.327l-5.362-2.258A3.149,3.149,0,0,0,304.482,236.67Z" transform="translate(-288.681 -234.614)" fill="#f5f5f5"/>
        <path id="Trazado_14345" data-name="Trazado 14345" d="M298.454,281.084a5.863,5.863,0,1,1-.47-8.278A5.829,5.829,0,0,1,298.454,281.084Z" transform="translate(-288.203 -236.788)" fill="#f5f5f5"/>
      </g>
      <g id="Grupo_44208" data-name="Grupo 44208" transform="translate(0 0)">
        <path id="Trazado_14346" data-name="Trazado 14346" d="M205.7,72.816h7.62s0-7.056,6.679-7.15a6.279,6.279,0,0,1,6.021,4.327,8.161,8.161,0,0,1-.565,6.773c-1.317,2.352-4.139,4.421-9.313,3.481V99.156h7.526v-11.1s10.536-3.01,10.536-15.8c0-12.23-9.972-15.052-14.3-15.052C216.707,57.106,205.606,58.046,205.7,72.816Z" transform="translate(-205.699 -57.194)" fill="#f5f5f5"/>
        <rect id="Rectángulo_4386" data-name="Rectángulo 4386" width="7.62" height="7.808" transform="translate(10.443 45.725)" fill="#f5f5f5"/>
      </g>
    </g>
    <g id="Doodles" transform="translate(45.824 32.604)">
      <g id="Grupo_44209" data-name="Grupo 44209" transform="translate(306.927 165.263)">
        <path id="Trazado_14347" data-name="Trazado 14347" d="M416.407,217.193l.282-.282a3.064,3.064,0,0,1,1.129-.565,3.847,3.847,0,0,1,2.07,0,4.6,4.6,0,0,1,2.446,1.505,6.409,6.409,0,0,1,1.223,3.481,8.162,8.162,0,0,1-1.035,4.327,26.046,26.046,0,0,1-7.432,8.184c-1.693,1.223-3.481,2.446-5.55,3.669-1.976,1.223-4.139,2.446-6.4,3.575a42.794,42.794,0,0,1-7.338,3.01,29.431,29.431,0,0,1-4.139.941,33.784,33.784,0,0,1-4.422.282,7.425,7.425,0,0,1-4.422-1.129,3.243,3.243,0,0,1-1.317-1.976,3.906,3.906,0,0,1,.282-2.352,11.917,11.917,0,0,1,3.01-3.857c1.223-1.129,2.54-2.164,3.857-3.2,2.728-1.976,5.739-3.763,8.749-5.645a47.812,47.812,0,0,1,9.878-4.7,27.678,27.678,0,0,1,5.551-1.129,15.417,15.417,0,0,1,5.833.564,8.153,8.153,0,0,1,4.8,3.481,6.772,6.772,0,0,1,.094,6.021,10.331,10.331,0,0,1-4.233,4.516,21.289,21.289,0,0,1-5.833,2.446,36.911,36.911,0,0,1-12.888,1.223,107.15,107.15,0,0,1-13.264-1.882c-2.258-.47-4.516-.941-6.679-1.6-1.129-.376-2.164-.753-3.293-1.223a7.653,7.653,0,0,1-2.916-1.975,2.8,2.8,0,0,1-.753-1.693,3.2,3.2,0,0,1,.282-1.882,6.016,6.016,0,0,1,2.54-2.54,17.508,17.508,0,0,1,6.962-1.976,95.51,95.51,0,0,1,14.675,0,67.561,67.561,0,0,1,7.432,1.129c1.223.282,2.446.564,3.669.941a13.148,13.148,0,0,1,3.575,1.505,3.884,3.884,0,0,1,1.6,3.481,4.779,4.779,0,0,1-2.54,3.01,20.493,20.493,0,0,1-7.338,2.446,18.522,18.522,0,0,1-3.951.094,13.363,13.363,0,0,1-3.857-.753,6.28,6.28,0,0,1-3.2-2.446,4.131,4.131,0,0,1,0-4.045,7.071,7.071,0,0,1,6.867-3.669,5.475,5.475,0,0,1,3.669,1.787,5.016,5.016,0,0,1,1.223,3.951,4.919,4.919,0,0,1-.659,1.975,4.683,4.683,0,0,1-1.6,1.411,5.736,5.736,0,0,1-4.139.376,4.713,4.713,0,0,1-3.387-2.446,2.491,2.491,0,0,1,.188-2.164,3.252,3.252,0,0,1,1.787-1.223,10.047,10.047,0,0,1,4.139.47,15.545,15.545,0,0,1,3.857,1.693,7.484,7.484,0,0,1,2.634,3.293,5.127,5.127,0,0,1-.188,4.233,7.718,7.718,0,0,1-3.01,3.01,10.252,10.252,0,0,1-4.045,1.317,12.016,12.016,0,0,1-8.184-1.976,14.716,14.716,0,0,1-5.268-6.679,12.509,12.509,0,0,1-.564-8.467,7.4,7.4,0,0,1,2.54-3.575,10.5,10.5,0,0,1,3.951-1.693,32.184,32.184,0,0,1,8.466-.658,49.6,49.6,0,0,1,8.373.941,11.721,11.721,0,0,1,7.055,4.515,7.451,7.451,0,0,1,1.411,3.951,10.342,10.342,0,0,1-.659,4.139,14.388,14.388,0,0,1-5.174,6.4,26.774,26.774,0,0,1-3.481,2.164c-1.223.659-2.446,1.223-3.669,1.787a14.9,14.9,0,0,1-8.09,1.035,20.8,20.8,0,0,1-7.432-3.1,18.984,18.984,0,0,1-5.833-5.456,15.2,15.2,0,0,1-2.728-7.432,18.755,18.755,0,0,1,5.08-14.393,22.36,22.36,0,0,1,6.209-4.516,20.285,20.285,0,0,1,7.338-1.975,21.755,21.755,0,0,1,7.432.752,12.591,12.591,0,0,1,6.209,4.045,13.3,13.3,0,0,1,2.258,6.961,32,32,0,0,1-2.446,14.017,30.206,30.206,0,0,1-3.481,6.115,16.192,16.192,0,0,1-5.174,4.609,11.544,11.544,0,0,1-6.585,1.505,10.009,10.009,0,0,1-6.115-2.634,36.354,36.354,0,0,1-4.515-4.8,22.226,22.226,0,0,1-3.575-5.362,12.456,12.456,0,0,1-.753-3.1,9.425,9.425,0,0,1,.471-3.2,17.012,17.012,0,0,1,3.1-5.362,19.49,19.49,0,0,1,9.972-6.491,14.835,14.835,0,0,1,11.195,1.505,16.547,16.547,0,0,1,6.679,8.561,20.477,20.477,0,0,1,1.223,10.254,14.556,14.556,0,0,1-4.233,8.749,17.813,17.813,0,0,1-8.279,3.951,26.439,26.439,0,0,1-8.561.376,13.043,13.043,0,0,1-7.15-3.387,14.322,14.322,0,0,1-3.857-6.115,16.07,16.07,0,0,1-.659-6.585A18.852,18.852,0,0,1,387.9,223.5a22.262,22.262,0,0,1,6.3-5.08,28.578,28.578,0,0,1,4.61-2.07,10.166,10.166,0,0,1,1.6-.47.55.55,0,0,1-.376.094c-.282.094-.659.188-1.223.376a32.678,32.678,0,0,0-4.516,2.07,23.806,23.806,0,0,0-6.209,5.08,18.8,18.8,0,0,0-4.422,9.972,14.094,14.094,0,0,0,.659,6.491,14.368,14.368,0,0,0,3.857,6.021,13.31,13.31,0,0,0,7.055,3.293,25.763,25.763,0,0,0,8.467-.376,16.485,16.485,0,0,0,8.185-3.857,13.7,13.7,0,0,0,4.139-8.561,21.072,21.072,0,0,0-1.223-10.16,16.418,16.418,0,0,0-6.585-8.373,14.133,14.133,0,0,0-10.912-1.505,19.2,19.2,0,0,0-9.784,6.4,15.611,15.611,0,0,0-3.1,5.268,10.6,10.6,0,0,0-.47,3.01,10.753,10.753,0,0,0,.658,3.01,19.721,19.721,0,0,0,3.481,5.268,52.288,52.288,0,0,0,4.422,4.7,10.544,10.544,0,0,0,5.926,2.54,11.9,11.9,0,0,0,6.4-1.505,15.273,15.273,0,0,0,4.986-4.516,23.648,23.648,0,0,0,3.387-6.021,31.175,31.175,0,0,0,2.446-13.829,12.8,12.8,0,0,0-2.164-6.679,10.61,10.61,0,0,0-5.927-3.857,20.914,20.914,0,0,0-7.244-.753,21.336,21.336,0,0,0-7.15,1.976,19.578,19.578,0,0,0-10.066,10.818,18.731,18.731,0,0,0-1.035,7.526,14.751,14.751,0,0,0,2.634,7.244,20.419,20.419,0,0,0,5.738,5.268,20.629,20.629,0,0,0,7.244,3.1,14.862,14.862,0,0,0,7.808-.941,32.854,32.854,0,0,0,3.669-1.787,26.771,26.771,0,0,0,3.481-2.164,14.2,14.2,0,0,0,5.08-6.209,9.456,9.456,0,0,0,.659-3.951,7.877,7.877,0,0,0-1.317-3.763,11.663,11.663,0,0,0-6.773-4.327,49.589,49.589,0,0,0-8.278-.941,31.178,31.178,0,0,0-8.372.658,12.286,12.286,0,0,0-3.763,1.6,6.9,6.9,0,0,0-2.352,3.293,12.3,12.3,0,0,0,.564,8.184,14.191,14.191,0,0,0,5.08,6.4,11.514,11.514,0,0,0,7.808,1.976,10.9,10.9,0,0,0,3.857-1.223,6.6,6.6,0,0,0,2.822-2.728,4.584,4.584,0,0,0,.188-3.857,7.83,7.83,0,0,0-2.446-3.1,13.026,13.026,0,0,0-3.669-1.693,8.191,8.191,0,0,0-3.951-.47,2.453,2.453,0,0,0-1.505,1.035,1.8,1.8,0,0,0-.188,1.693,4.275,4.275,0,0,0,3.01,2.164,5.756,5.756,0,0,0,3.763-.376,3.439,3.439,0,0,0,1.975-3.01,4.823,4.823,0,0,0-1.129-3.575,5.589,5.589,0,0,0-3.292-1.693,6.556,6.556,0,0,0-6.4,3.387,3.712,3.712,0,0,0,0,3.575,6.311,6.311,0,0,0,2.916,2.258,10.233,10.233,0,0,0,3.763.658,26.425,26.425,0,0,0,3.857-.094,20.652,20.652,0,0,0,7.149-2.352,4.317,4.317,0,0,0,2.258-2.728,3.5,3.5,0,0,0-1.411-3.1,8.371,8.371,0,0,0-3.387-1.411c-1.223-.376-2.446-.658-3.669-.941a65.931,65.931,0,0,0-7.338-1.129,83.91,83.91,0,0,0-14.581-.094,16.956,16.956,0,0,0-6.773,1.881,5.9,5.9,0,0,0-2.446,2.352,2.536,2.536,0,0,0,.376,3.01,8.252,8.252,0,0,0,2.822,1.882c1.035.47,2.164.847,3.2,1.223a53.094,53.094,0,0,0,6.679,1.6,107.5,107.5,0,0,0,13.265,1.976,38.73,38.73,0,0,0,12.794-1.223,21.983,21.983,0,0,0,5.739-2.446,10.182,10.182,0,0,0,4.139-4.327,6,6,0,0,0-.094-5.644,7.573,7.573,0,0,0-4.61-3.293,16.49,16.49,0,0,0-5.644-.564,27.513,27.513,0,0,0-5.55,1.035,46.777,46.777,0,0,0-9.784,4.61c-3.01,1.882-6.021,3.669-8.749,5.644a39.777,39.777,0,0,0-3.857,3.1,12.652,12.652,0,0,0-2.917,3.763,3.783,3.783,0,0,0-.282,2.258,3.083,3.083,0,0,0,1.223,1.787,8.4,8.4,0,0,0,4.233,1.129,21.921,21.921,0,0,0,4.327-.188,20.334,20.334,0,0,0,4.139-.941,42.6,42.6,0,0,0,7.338-2.916c2.258-1.129,4.421-2.352,6.4-3.575a63.06,63.06,0,0,0,5.55-3.669,26.853,26.853,0,0,0,7.432-8.09,8.045,8.045,0,0,0,1.035-4.233,5.681,5.681,0,0,0-1.223-3.387,4.385,4.385,0,0,0-2.352-1.505,5.067,5.067,0,0,0-2.07,0C416.783,216.722,416.407,217.287,416.407,217.193Z" transform="translate(-373.663 -209.139)" fill="#f5f5f5"/>
      </g>
      <g id="Grupo_44210" data-name="Grupo 44210" transform="translate(181.878)">
        <path id="Trazado_14348" data-name="Trazado 14348" d="M309.094,46.574l.47-.47a6.108,6.108,0,0,1,1.787-.941,5.87,5.87,0,0,1,3.387,0,6.76,6.76,0,0,1,3.857,2.446,9.4,9.4,0,0,1,1.976,5.55,13.487,13.487,0,0,1-1.693,6.867c-2.446,4.61-6.585,9.031-11.947,13.076a79.99,79.99,0,0,1-8.843,5.833c-3.2,1.881-6.585,3.857-10.254,5.738a70.866,70.866,0,0,1-11.853,4.8,51.441,51.441,0,0,1-6.585,1.505,34.768,34.768,0,0,1-7.055.376,13.045,13.045,0,0,1-6.961-1.787,4.751,4.751,0,0,1-2.07-3.1,6.462,6.462,0,0,1,.47-3.763,18.7,18.7,0,0,1,4.7-6.115,55.938,55.938,0,0,1,6.209-5.08c2.164-1.6,4.516-3.1,6.867-4.516,2.352-1.505,4.7-3.01,7.15-4.516a74.089,74.089,0,0,1,15.8-7.526,45.583,45.583,0,0,1,8.937-1.787,26.139,26.139,0,0,1,9.313.847,15.267,15.267,0,0,1,4.327,2.07,10.571,10.571,0,0,1,3.292,3.481c1.694,2.822,1.505,6.491.188,9.5a16.057,16.057,0,0,1-6.773,7.15,40.783,40.783,0,0,1-9.313,3.951,62.711,62.711,0,0,1-20.6,1.976,152.483,152.483,0,0,1-21.261-3.1c-3.575-.753-7.15-1.505-10.724-2.634a48.9,48.9,0,0,1-5.174-1.976,13.087,13.087,0,0,1-4.7-3.2,4.575,4.575,0,0,1-1.223-2.634,4.877,4.877,0,0,1,.47-2.822,10.448,10.448,0,0,1,4.045-4.045c3.293-1.976,7.244-2.728,11.007-3.1a129.947,129.947,0,0,1,23.424.094A103.048,103.048,0,0,1,291.6,60.5c1.976.376,3.951.941,5.833,1.411a15.863,15.863,0,0,1,5.644,2.446,6.324,6.324,0,0,1,1.976,2.446,5.065,5.065,0,0,1,.47,3.1,5.918,5.918,0,0,1-1.505,2.822,11.334,11.334,0,0,1-2.446,1.881,32.087,32.087,0,0,1-11.759,3.857,28.111,28.111,0,0,1-6.3.188,20.1,20.1,0,0,1-6.209-1.129,8.873,8.873,0,0,1-4.986-3.857,5.26,5.26,0,0,1-.753-3.1,6.952,6.952,0,0,1,.847-3.1,10.921,10.921,0,0,1,10.818-5.738,8.416,8.416,0,0,1,5.739,2.822,8.573,8.573,0,0,1,1.975,6.115,7.149,7.149,0,0,1-1.035,3.1,6.276,6.276,0,0,1-2.54,2.164,9.64,9.64,0,0,1-6.491.659,7.194,7.194,0,0,1-5.268-3.857,3.409,3.409,0,0,1,.376-3.387,4.893,4.893,0,0,1,2.822-1.881,8.216,8.216,0,0,1,3.387,0,31.824,31.824,0,0,1,3.2.753,22.167,22.167,0,0,1,6.115,2.728,11.393,11.393,0,0,1,4.233,5.174A8.025,8.025,0,0,1,296.3,79.5a8.266,8.266,0,0,1-.941,3.293,12.137,12.137,0,0,1-4.8,4.7,12.837,12.837,0,0,1-3.1,1.317,18.643,18.643,0,0,1-3.292.753,19.254,19.254,0,0,1-12.982-3.2,23.331,23.331,0,0,1-8.372-10.63,20.414,20.414,0,0,1-1.6-6.679,17.187,17.187,0,0,1,.753-6.867,12.117,12.117,0,0,1,3.951-5.644,17.85,17.85,0,0,1,6.3-2.728,46.846,46.846,0,0,1,13.546-1.035,64.789,64.789,0,0,1,13.452,1.505,18.92,18.92,0,0,1,11.195,7.15,12.781,12.781,0,0,1,2.258,6.3,15.631,15.631,0,0,1-1.035,6.585,23.118,23.118,0,0,1-8.279,10.16,49.572,49.572,0,0,1-5.55,3.481,42.863,42.863,0,0,1-5.927,2.822,25.036,25.036,0,0,1-6.3,1.693,21.412,21.412,0,0,1-6.491-.094A33.139,33.139,0,0,1,267.231,87.4a35.855,35.855,0,0,1-9.407-8.655A23.6,23.6,0,0,1,253.5,66.894a29.28,29.28,0,0,1,1.693-12.418,26.02,26.02,0,0,1,2.728-5.644c.564-.941,1.223-1.693,1.787-2.54.658-.753,1.317-1.6,2.07-2.352a31.312,31.312,0,0,1,9.972-7.15,35.862,35.862,0,0,1,11.665-3.2,31.3,31.3,0,0,1,11.853,1.223,18.274,18.274,0,0,1,9.784,6.491c2.352,3.2,3.293,7.15,3.669,11.007A49.084,49.084,0,0,1,304.766,74.7a44.7,44.7,0,0,1-5.55,9.69,26.927,26.927,0,0,1-8.278,7.338A18.773,18.773,0,0,1,280.4,94.175a14.977,14.977,0,0,1-5.268-1.317,20.248,20.248,0,0,1-4.516-2.822,61.5,61.5,0,0,1-7.244-7.62,33.753,33.753,0,0,1-5.644-8.561A15.353,15.353,0,0,1,256.6,68.87a12.867,12.867,0,0,1,.752-4.986,26.922,26.922,0,0,1,4.986-8.561c4.233-4.986,9.784-8.937,15.9-10.442s12.7-.847,17.874,2.446a24.767,24.767,0,0,1,6.491,6.021,31.634,31.634,0,0,1,4.139,7.62,33.1,33.1,0,0,1,1.975,16.463,27.016,27.016,0,0,1-2.258,7.714,21.784,21.784,0,0,1-4.61,6.3c-3.763,3.481-8.561,5.268-13.264,6.3a39.99,39.99,0,0,1-13.735.564,21.431,21.431,0,0,1-11.383-5.362,23.4,23.4,0,0,1-6.209-9.784,25.517,25.517,0,0,1-1.035-10.536,30.342,30.342,0,0,1,2.634-9.125,31.744,31.744,0,0,1,4.515-6.961,36.974,36.974,0,0,1,10.066-8.184,46.5,46.5,0,0,1,7.338-3.293c1.693-.564,2.634-.847,2.634-.847a2.942,2.942,0,0,1-.659.188c-.471.094-1.129.376-1.976.659a42.73,42.73,0,0,0-7.244,3.293,36.973,36.973,0,0,0-10.066,8.184,31.733,31.733,0,0,0-4.516,6.961,29.74,29.74,0,0,0-2.634,9.031,23.742,23.742,0,0,0,1.035,10.442,22.54,22.54,0,0,0,6.209,9.69,20.063,20.063,0,0,0,11.289,5.268,41.9,41.9,0,0,0,13.641-.564c4.61-.941,9.407-2.728,13.076-6.209a21.522,21.522,0,0,0,4.516-6.209,22.975,22.975,0,0,0,2.164-7.62,34.6,34.6,0,0,0-1.976-16.275,31.07,31.07,0,0,0-4.139-7.526,24.035,24.035,0,0,0-6.4-5.927c-5.08-3.2-11.571-3.857-17.592-2.352a30.661,30.661,0,0,0-15.71,10.348,24.631,24.631,0,0,0-4.892,8.467,14.3,14.3,0,0,0-.658,4.892,14.815,14.815,0,0,0,1.129,4.892,33.262,33.262,0,0,0,5.644,8.467,54.153,54.153,0,0,0,7.15,7.526,16.067,16.067,0,0,0,9.5,4.045,18.621,18.621,0,0,0,10.254-2.446,28.051,28.051,0,0,0,8.09-7.15,46.34,46.34,0,0,0,5.551-9.6,49.264,49.264,0,0,0,3.857-22.2c-.282-3.763-1.223-7.714-3.575-10.818a18.2,18.2,0,0,0-9.6-6.3,33.294,33.294,0,0,0-33.02,9.031A27.685,27.685,0,0,0,258.2,49.3a27.38,27.38,0,0,0-2.634,5.55,27.014,27.014,0,0,0-1.6,12.23A23.393,23.393,0,0,0,258.2,78.653a34.847,34.847,0,0,0,9.219,8.561A35.591,35.591,0,0,0,279.084,92.2a18.236,18.236,0,0,0,6.4.094A27.522,27.522,0,0,0,291.69,90.6a47.483,47.483,0,0,0,5.833-2.822,49.56,49.56,0,0,0,5.55-3.481,22.1,22.1,0,0,0,8.09-9.972,16.612,16.612,0,0,0,1.035-6.4,11.209,11.209,0,0,0-2.164-6.115,15.421,15.421,0,0,0-4.8-4.421,23.33,23.33,0,0,0-6.115-2.54,78.48,78.48,0,0,0-13.358-1.505,49.7,49.7,0,0,0-13.452,1.035,17.748,17.748,0,0,0-6.115,2.634,11.148,11.148,0,0,0-3.857,5.362,16.107,16.107,0,0,0-.752,6.679,21.886,21.886,0,0,0,1.6,6.491A22.8,22.8,0,0,0,271.37,85.9,18.307,18.307,0,0,0,283.976,89a17.529,17.529,0,0,0,3.2-.659,12.2,12.2,0,0,0,3.01-1.317,11.819,11.819,0,0,0,4.61-4.516,7.541,7.541,0,0,0,.376-6.209,10.992,10.992,0,0,0-4.045-4.986,19.708,19.708,0,0,0-5.927-2.634c-2.07-.564-4.233-1.223-6.3-.753a4.387,4.387,0,0,0-2.54,1.693,3.2,3.2,0,0,0-.282,2.916,5.468,5.468,0,0,0,2.07,2.352,8.018,8.018,0,0,0,2.916,1.223,9.375,9.375,0,0,0,6.209-.564,5.548,5.548,0,0,0,2.352-2.07,6.4,6.4,0,0,0,1.035-2.916,7.825,7.825,0,0,0-1.882-5.833A8.058,8.058,0,0,0,283.317,62a10.55,10.55,0,0,0-10.348,5.55,6.4,6.4,0,0,0-.752,2.916,5.205,5.205,0,0,0,.752,2.916,8.986,8.986,0,0,0,4.8,3.669,19.515,19.515,0,0,0,6.115,1.129,34.263,34.263,0,0,0,6.209-.188,31.169,31.169,0,0,0,11.571-3.857,11.483,11.483,0,0,0,2.352-1.881,4.754,4.754,0,0,0,1.317-2.54,5.467,5.467,0,0,0-2.258-5.08,15.754,15.754,0,0,0-5.456-2.352c-1.976-.564-3.857-1.035-5.832-1.411a101.488,101.488,0,0,0-11.759-1.787,138.115,138.115,0,0,0-23.33-.094,26.053,26.053,0,0,0-10.912,3.1,9.749,9.749,0,0,0-3.951,3.857,5.067,5.067,0,0,0-.47,2.634,5.27,5.27,0,0,0,1.129,2.446,12.524,12.524,0,0,0,4.516,3.1,48.893,48.893,0,0,0,5.174,1.976,103.16,103.16,0,0,0,10.63,2.634,153.248,153.248,0,0,0,21.166,3.1,62.146,62.146,0,0,0,20.508-1.976,39.812,39.812,0,0,0,9.219-3.857,16.19,16.19,0,0,0,6.585-6.961,9.779,9.779,0,0,0-.188-9.125,9.215,9.215,0,0,0-3.2-3.387,17.376,17.376,0,0,0-4.233-1.976,25.115,25.115,0,0,0-9.125-.847,39.743,39.743,0,0,0-8.843,1.693,73.819,73.819,0,0,0-15.8,7.432c-2.446,1.505-4.8,3.01-7.15,4.421-2.352,1.505-4.61,3.01-6.867,4.516a64.047,64.047,0,0,0-6.115,4.986,19.367,19.367,0,0,0-4.7,6.021,5.945,5.945,0,0,0-.47,3.575,4.959,4.959,0,0,0,1.976,2.916c1.976,1.411,4.516,1.693,6.867,1.787a34.21,34.21,0,0,0,6.961-.376,51.192,51.192,0,0,0,6.585-1.411,69.664,69.664,0,0,0,11.759-4.7c3.669-1.787,7.056-3.763,10.254-5.644s6.115-3.857,8.843-5.833c5.362-4.045,9.5-8.467,11.947-12.982a14.16,14.16,0,0,0,1.693-6.773,9.974,9.974,0,0,0-1.882-5.456,6.561,6.561,0,0,0-3.763-2.446,7.685,7.685,0,0,0-3.293,0A3.536,3.536,0,0,0,309.094,46.574Z" transform="translate(-240.736 -33.464)"/>
      </g>
      <g id="Grupo_44211" data-name="Grupo 44211" transform="translate(0 104.232)">
        <path id="Trazado_14349" data-name="Trazado 14349" d="M116.074,175.53a2.633,2.633,0,0,1-.564-.094c-.376-.094-.847-.094-1.505-.282a25.432,25.432,0,0,1-5.644-1.6,10.614,10.614,0,0,1-3.481-2.54,7.5,7.5,0,0,1-2.07-4.61,5.089,5.089,0,0,1,.564-2.822,5.315,5.315,0,0,1,2.07-2.258,4.41,4.41,0,0,1,3.1-.753,3.959,3.959,0,0,1,2.822,1.882,5.6,5.6,0,0,1,.753,3.481,9.75,9.75,0,0,1-1.035,3.575,6.182,6.182,0,0,1-1.129,1.6c-.376.47-.941.941-1.411,1.411a12.794,12.794,0,0,1-3.481,1.976,14.76,14.76,0,0,1-4.045.847,10.883,10.883,0,0,1-4.233-.47,13.21,13.21,0,0,1-4.045-1.881,10.429,10.429,0,0,1-3.01-3.387,13.828,13.828,0,0,1-1.693-9.125,13.629,13.629,0,0,1,1.693-4.61,15.618,15.618,0,0,1,1.505-1.976,6.137,6.137,0,0,1,1.976-1.505,3.589,3.589,0,0,1,2.634-.282,1.873,1.873,0,0,1,1.129.753,3.1,3.1,0,0,1,.658,1.223,5,5,0,0,1,0,2.634,10.744,10.744,0,0,1-.847,2.446c-.847,1.505-1.693,3.01-2.634,4.421a26.92,26.92,0,0,1-3.293,4.045,14.069,14.069,0,0,1-4.516,2.822,8.856,8.856,0,0,1-5.174.282,10.116,10.116,0,0,1-4.421-2.634,12.848,12.848,0,0,1-2.822-4.233,26.153,26.153,0,0,1-1.693-9.6,20.472,20.472,0,0,1,.094-4.8,6.613,6.613,0,0,1,1.976-4.233,4.137,4.137,0,0,1,2.164-.941,4.554,4.554,0,0,1,2.258.282,6.07,6.07,0,0,1,3.293,3.01,8.212,8.212,0,0,1,.659,4.233,15.234,15.234,0,0,1-1.129,4.045,18.857,18.857,0,0,1-2.07,3.481,25.233,25.233,0,0,1-2.634,2.822,20.026,20.026,0,0,1-6.209,3.669,17.542,17.542,0,0,1-6.491.941,18.3,18.3,0,0,1-5.738-1.223,18.5,18.5,0,0,1-7.526-5.55,16.375,16.375,0,0,1-2.916-5.08,8.5,8.5,0,0,1-.47-1.505,2.641,2.641,0,0,1-.094-.47s.188.658.659,1.975A18.432,18.432,0,0,0,64.145,166.5a17.193,17.193,0,0,0,6.4-1.035,19.3,19.3,0,0,0,6.115-3.575,22.982,22.982,0,0,0,2.54-2.728,15.2,15.2,0,0,0,1.976-3.387,11.194,11.194,0,0,0,1.035-3.857,7.529,7.529,0,0,0-.659-4.045,5.374,5.374,0,0,0-3.01-2.728,3.977,3.977,0,0,0-4.045.658,6.524,6.524,0,0,0-1.881,3.951,26.021,26.021,0,0,0-.094,4.7,29.154,29.154,0,0,0,1.693,9.407,11.822,11.822,0,0,0,2.728,4.045,9.149,9.149,0,0,0,4.233,2.446,8.7,8.7,0,0,0,4.892-.282,12.749,12.749,0,0,0,4.327-2.634c2.54-2.352,4.233-5.456,5.833-8.372a7.661,7.661,0,0,0,.847-4.7,2.262,2.262,0,0,0-1.505-1.505,2.761,2.761,0,0,0-2.258.282,8.315,8.315,0,0,0-3.293,3.292,12.5,12.5,0,0,0-1.6,4.422,13.546,13.546,0,0,0,1.6,8.843,11.09,11.09,0,0,0,6.773,5.08,13.143,13.143,0,0,0,8.09-.376,14.867,14.867,0,0,0,3.387-1.881,11.48,11.48,0,0,0,2.446-2.822,8.846,8.846,0,0,0,1.035-3.387,5.633,5.633,0,0,0-.659-3.292,3.562,3.562,0,0,0-2.634-1.693,4.545,4.545,0,0,0-2.916.753,6.2,6.2,0,0,0-1.976,2.164,4.4,4.4,0,0,0-.47,2.634,8.265,8.265,0,0,0,1.976,4.516,11.83,11.83,0,0,0,3.387,2.54,22.085,22.085,0,0,0,5.644,1.693,14.792,14.792,0,0,1,1.505.282C115.885,175.53,116.074,175.53,116.074,175.53Z" transform="translate(-47.4 -144.262)"/>
      </g>
    </g>
    <g id="Character_00000122678510576131035980000002699679475769159600_" transform="translate(77.412 117.774)">
      <g id="Grupo_44327" data-name="Grupo 44327" transform="translate(0 0)">
        <g id="Grupo_44294" data-name="Grupo 44294" transform="translate(37.235 2.236)">
          <path id="Trazado_14350" data-name="Trazado 14350" d="M180.993,149.4c-2.634-6.491-7.808-12.324-14.675-13.829-6.962-1.6-14.111,1.505-20.038,5.268s-11.571,8.561-14.111,15.146c-2.446,6.3-.941,14.487,4.516,18.25-5.738-3.575-14.487.753-15.9,7.432-1.411,6.961,3.951,14.205,10.818,15.993,6.021,1.6,12.512-.376,17.5-4.139a14.57,14.57,0,0,0-1.505,17.121c3.763,6.021,11.665,8.749,18.532,7.244s12.606-6.961,15.522-13.358L184.1,170C184,163.042,183.627,155.893,180.993,149.4Z" transform="translate(-120.559 -126.896)" fill="#263238"/>
          <g id="Grupo_44289" data-name="Grupo 44289" transform="translate(45.194 0.313)">
            <g id="Grupo_44287" data-name="Grupo 44287">
              <g id="Grupo_44286" data-name="Grupo 44286">
                <g id="Grupo_44246" data-name="Grupo 44246">
                  <g id="Grupo_44212" data-name="Grupo 44212" transform="translate(0 38.091)">
                    <path id="Trazado_14351" data-name="Trazado 14351" d="M179.136,167.2c-6.679,2.164-8,7.526-9.407,12.041-3.01,9.69.376,23.895,5.738,32.455s11.289,12.888,21.261,14.3c.282-15.334.658-30.574.941-45.908Z" transform="translate(-168.6 -167.2)" fill="#ff725e"/>
                  </g>
                  <g id="Grupo_44245" data-name="Grupo 44245" transform="translate(3.322)">
                    <g id="Grupo_44244" data-name="Grupo 44244">
                      <g id="Grupo_44214" data-name="Grupo 44214" transform="translate(0.446)">
                        <g id="Grupo_44213" data-name="Grupo 44213">
                          <path id="Trazado_14352" data-name="Trazado 14352" d="M175.611,191.141a15.934,15.934,0,0,1,1.411-20.32c-2.916-3.669-1.881-9.313,1.129-12.888s7.338-5.644,11.571-7.62c2.352-10.724,14.3-18.156,24.929-15.616,5.55-8.184,17.31-9.407,26.811-6.679,2.352.658,4.61,1.505,7.056,1.505a33.838,33.838,0,0,0,5.268-.753c9.6-1.317,19.191,5.456,22.954,14.393a17.048,17.048,0,0,0,2.07,4.139c1.223,1.6,3.1,2.54,4.8,3.763a15.522,15.522,0,0,1,5.927,11.383c.188,3.763-1.035,7.714.564,11.1.753,1.693,2.258,3.1,2.822,4.8,1.787,5.174-3.951,10.348-2.822,15.71a21.06,21.06,0,0,0,1.035,3.2,9.349,9.349,0,0,1-.564,6.585c-.753,1.6-1.976,3.01-2.07,4.8a14.012,14.012,0,0,0,.752,3.857c.659,3.2-6.209,15.428-8.937,17.215l-82.126.753a15.205,15.205,0,0,1-11.853-13.17,5.522,5.522,0,0,0-.753-3.01,5.127,5.127,0,0,0-2.258-1.411c-5.268-2.822-5.927-10.066-5.362-16.087a7.674,7.674,0,0,0,0-2.54A20.622,20.622,0,0,0,175.611,191.141Z" transform="translate(-172.606 -126.709)" fill="#263238"/>
                        </g>
                      </g>
                      <g id="Grupo_44216" data-name="Grupo 44216" transform="translate(26.962 20.974)">
                        <g id="Grupo_44215" data-name="Grupo 44215">
                          <path id="Trazado_14353" data-name="Trazado 14353" d="M200.8,192.556c-.282-14.487,8.843-31.232,23.33-38.288,9.125-4.516,16.181-4.516,20.978-5.08a33.6,33.6,0,0,1,19.379,4.045c4.515,1.035,21.073,16.275,22.013,32.738.941,18.344,1.411,40.734-.941,54.28-4.61,27.375-25.682,30.668-25.682,30.668l1.976,45.532-40.546,33.208-15.8-52.681Z" transform="translate(-200.793 -149.004)" fill="#ffbf9d"/>
                        </g>
                      </g>
                      <g id="Grupo_44222" data-name="Grupo 44222" transform="translate(49.17 132.729)">
                        <g id="Grupo_44221" data-name="Grupo 44221">
                          <g id="Grupo_44220" data-name="Grupo 44220">
                            <g id="Grupo_44219" data-name="Grupo 44219">
                              <g id="Grupo_44218" data-name="Grupo 44218">
                                <g id="Grupo_44217" data-name="Grupo 44217">
                                  <path id="Trazado_14354" data-name="Trazado 14354" d="M261.183,277.96A69.824,69.824,0,0,1,224.4,267.8s9.6,19.473,37.065,17.215Z" transform="translate(-224.4 -267.8)" fill="#ff9a6c"/>
                                </g>
                              </g>
                            </g>
                          </g>
                        </g>
                      </g>
                      <g id="Grupo_44228" data-name="Grupo 44228" transform="translate(11.444 83.029)">
                        <g id="Grupo_44227" data-name="Grupo 44227">
                          <g id="Grupo_44226" data-name="Grupo 44226">
                            <g id="Grupo_44225" data-name="Grupo 44225">
                              <g id="Grupo_44224" data-name="Grupo 44224">
                                <g id="Grupo_44223" data-name="Grupo 44223">
                                  <path id="Trazado_14355" data-name="Trazado 14355" d="M203.961,222.524c0-2.07-2.258-6.867-4.327-7.244-5.362-.941-15.146-.564-15.334,13.076-.282,18.721,18.532,15.146,18.532,14.675C202.926,242.656,203.961,229.58,203.961,222.524Z" transform="translate(-184.297 -214.969)" fill="#ffbf9d"/>
                                </g>
                              </g>
                            </g>
                          </g>
                        </g>
                      </g>
                      <g id="Grupo_44235" data-name="Grupo 44235" transform="translate(16.809 89.431)">
                        <g id="Grupo_44234" data-name="Grupo 44234">
                          <g id="Grupo_44233" data-name="Grupo 44233">
                            <g id="Grupo_44232" data-name="Grupo 44232">
                              <g id="Grupo_44231" data-name="Grupo 44231">
                                <g id="Grupo_44230" data-name="Grupo 44230">
                                  <g id="Grupo_44229" data-name="Grupo 44229">
                                    <path id="Trazado_14356" data-name="Trazado 14356" d="M198.184,236.568c-.094-.094-.376.188-.847.47a3.114,3.114,0,0,1-2.446,0c-1.976-.753-3.575-3.951-3.575-7.338a10.387,10.387,0,0,1,1.035-4.61,3.822,3.822,0,0,1,2.54-2.446,1.576,1.576,0,0,1,1.881.941c.282.565.094.941.188.941.094.094.376-.282.282-1.035a2.182,2.182,0,0,0-.753-1.223,2.357,2.357,0,0,0-1.787-.47c-1.411.094-2.728,1.411-3.481,2.822A11.651,11.651,0,0,0,190,229.795c.094,3.763,1.882,7.338,4.61,8.184a3.361,3.361,0,0,0,3.01-.47C198.184,237.038,198.278,236.568,198.184,236.568Z" transform="translate(-190 -221.775)" fill="#ff9a6c"/>
                                  </g>
                                </g>
                              </g>
                            </g>
                          </g>
                        </g>
                      </g>
                      <path id="Trazado_14357" data-name="Trazado 14357" d="M289.82,182.579c-.565-6.773-3.293-13.264-6.585-19.191a39.951,39.951,0,0,0-8.467-11.289,47.955,47.955,0,0,0-10.066-6.115c-9.407-4.421-19.85-8.184-29.915-5.927-5.456,1.223-10.348,4.139-15.052,6.961a59.04,59.04,0,0,0-10.348,7.432,48.59,48.59,0,0,0-6.773,8.937c-4.515,7.714-7.714,16.275-8.372,25.212s-7.338,16.745-2.164,23.989c.376.564,9.69,2.446,10.348,2.728,1.505.564,3.2-1.035,3.2-2.634s-1.129-3.01-2.352-4.139c2.352-.094,3.857-2.634,3.763-4.986-.188-2.352-1.505-4.327-2.916-6.209a1.4,1.4,0,0,1-.376-.847c-.094-.753.753-1.317,1.505-1.693,3.293-1.975,3.669-7.432.659-9.878a8.473,8.473,0,0,0,5.738-10.724,2.7,2.7,0,0,1-.282-2.07c.282-.659,1.129-.847,1.787-1.035,4.892-1.505,8.278-7.056,7.15-12.041a27.078,27.078,0,0,0,7.808-.376c2.54-.659,4.986-2.07,6.115-4.421a10.1,10.1,0,0,0,17.121.847,27.525,27.525,0,0,0,12.888-1.976,12.551,12.551,0,0,0,8.184,8.749c.753.282,1.693.47,2.07,1.223a2.79,2.79,0,0,1,.188,1.505c-.094,2.634,1.6,3.763,3.1,5.927,1.411,2.164,3.951,5.456,6.491,4.7-.282,4.422,2.07,7.714,5.832,10.066Z" transform="translate(-173.199 -127.46)" fill="#263238"/>
                      <g id="Grupo_44237" data-name="Grupo 44237" transform="translate(0 0.024)">
                        <g id="Grupo_44236" data-name="Grupo 44236">
                          <path id="Trazado_14358" data-name="Trazado 14358" d="M292.61,178.442a6.9,6.9,0,0,0-1.035-1.976c-.376-.659-.941-1.317-1.505-2.258a9.453,9.453,0,0,1-1.035-3.481,38.822,38.822,0,0,1,.094-4.61,22.119,22.119,0,0,0-.094-5.55,15.658,15.658,0,0,0-4.7-8.561,23.945,23.945,0,0,0-2.916-2.258,11.753,11.753,0,0,1-2.822-2.446,18.11,18.11,0,0,1-1.787-3.575,24.53,24.53,0,0,0-4.515-7.244,22.784,22.784,0,0,0-7.244-5.644,18.606,18.606,0,0,0-4.516-1.693,17,17,0,0,0-4.892-.564,23.043,23.043,0,0,0-2.54.188,24.069,24.069,0,0,0-2.54.47,12.706,12.706,0,0,1-4.986,0c-1.693-.376-3.293-.941-5.08-1.411a32.485,32.485,0,0,0-5.268-.941,35.226,35.226,0,0,0-5.456-.094,26.483,26.483,0,0,0-5.456.941,18.539,18.539,0,0,0-9.5,6.115c-.188.282-.47.659-.658.941l.282-.094a21.188,21.188,0,0,0-16.181,3.1,20.957,20.957,0,0,0-9.125,12.7l.188-.188a54.287,54.287,0,0,0-6.585,3.387,19.912,19.912,0,0,0-5.362,4.7,12.485,12.485,0,0,0-2.446,6.4,9.171,9.171,0,0,0,1.693,6.3v-.282a15.633,15.633,0,0,0-4.421,9.6,16.171,16.171,0,0,0,1.881,9.313c.376.659.847,1.223,1.223,1.881a20.684,20.684,0,0,1,1.317,1.693,4.509,4.509,0,0,1,.659,1.882,6.976,6.976,0,0,1-.094,1.976,35.893,35.893,0,0,0,.094,7.15,14.91,14.91,0,0,0,1.787,5.456,9.343,9.343,0,0,0,2.916,3.1,19.967,19.967,0,0,0,2.258,1.223,2.16,2.16,0,0,1,.659.564,3.355,3.355,0,0,0-.659-.658c-.47-.376-1.317-.659-2.258-1.317a9.763,9.763,0,0,1-2.822-3.01,14.4,14.4,0,0,1-1.693-5.362,34.831,34.831,0,0,1-.094-7.055,13.885,13.885,0,0,0,.094-1.976,3.809,3.809,0,0,0-.659-1.976,20.67,20.67,0,0,0-1.317-1.693c-.376-.564-.847-1.129-1.223-1.787a16.277,16.277,0,0,1-1.787-9.125,15.025,15.025,0,0,1,4.327-9.313l.188-.188-.094-.188a8.383,8.383,0,0,1-1.6-6.021,12.186,12.186,0,0,1,2.446-6.209,19.186,19.186,0,0,1,5.268-4.61,53.065,53.065,0,0,1,6.491-3.387l.094-.094V150.6a21.156,21.156,0,0,1,24.647-15.428h.188l.094-.188c.188-.282.47-.564.658-.847a17.311,17.311,0,0,1,9.219-5.927,26.725,26.725,0,0,1,5.362-.941,34.04,34.04,0,0,1,5.362.094,31.359,31.359,0,0,1,5.174.941c1.693.47,3.387,1.035,5.08,1.411a11.9,11.9,0,0,0,2.634.282,11.061,11.061,0,0,0,2.54-.282c.847-.188,1.693-.282,2.446-.47a21.414,21.414,0,0,1,2.446-.188,20.884,20.884,0,0,1,4.8.564,25.2,25.2,0,0,1,4.422,1.693,23.107,23.107,0,0,1,7.056,5.55,23.783,23.783,0,0,1,4.421,7.15,18.869,18.869,0,0,0,1.787,3.669,12.309,12.309,0,0,0,2.916,2.54,23.442,23.442,0,0,1,2.916,2.164,15.168,15.168,0,0,1,2.258,2.634,14.866,14.866,0,0,1,2.352,5.738,17.827,17.827,0,0,1,.094,5.456,40.358,40.358,0,0,0-.094,4.7,8.02,8.02,0,0,0,1.129,3.575c.564.941,1.129,1.693,1.505,2.258s.659,1.129.847,1.411C292.61,178.254,292.61,178.442,292.61,178.442Z" transform="translate(-172.132 -126.734)" fill="#455a64"/>
                        </g>
                      </g>
                      <g id="Grupo_44239" data-name="Grupo 44239" transform="translate(51.334 1.642)">
                        <g id="Grupo_44238" data-name="Grupo 44238">
                          <path id="Trazado_14359" data-name="Trazado 14359" d="M226.7,130.661s.47-.282,1.411-.753a11.665,11.665,0,0,1,4.045-1.129,12.2,12.2,0,0,1,6.115.941,11.994,11.994,0,0,1,5.55,5.08,8.877,8.877,0,0,1,.941,2.164,2.327,2.327,0,0,1-.188,1.976l-.47.659.753-.188a7.41,7.41,0,0,1,5.738.753,6.8,6.8,0,0,1,3.1,3.481,9.718,9.718,0,0,1,.752,3.1v1.129a.728.728,0,0,1,.094-.282c0-.188.094-.47.094-.847a7.829,7.829,0,0,0-3.763-6.961,8.63,8.63,0,0,0-6.209-.847l.282.47a2.841,2.841,0,0,0,.282-2.446,11.508,11.508,0,0,0-.941-2.258,12.046,12.046,0,0,0-5.833-5.268,11.332,11.332,0,0,0-6.4-.847,13.348,13.348,0,0,0-4.139,1.317c-.47.282-.753.47-1.035.658A.328.328,0,0,0,226.7,130.661Z" transform="translate(-226.7 -128.454)" fill="#455a64"/>
                        </g>
                      </g>
                      <g id="Grupo_44241" data-name="Grupo 44241" transform="translate(20.854 25.102)">
                        <g id="Grupo_44240" data-name="Grupo 44240">
                          <path id="Trazado_14360" data-name="Trazado 14360" d="M194.3,153.4a3.354,3.354,0,0,0,.658.658,17.211,17.211,0,0,0,2.07,1.505,8.465,8.465,0,0,0,3.763,1.129,6.59,6.59,0,0,0,4.7-1.411l-.376-.094c.188.282.376.47.564.753a4.713,4.713,0,0,0,.659.753,11.218,11.218,0,0,0,4.61,2.916,10.986,10.986,0,0,0,4.421.564,8.925,8.925,0,0,0,2.916-.658c.659-.282,1.035-.47.941-.47a12.184,12.184,0,0,1-8.185.094,12.591,12.591,0,0,1-4.421-2.822,4.085,4.085,0,0,0-.564-.659,3.306,3.306,0,0,1-.47-.753l-.188-.282-.188.188a6.122,6.122,0,0,1-4.233,1.317,9.459,9.459,0,0,1-3.575-.941A17.593,17.593,0,0,1,194.3,153.4Z" transform="translate(-194.3 -153.393)" fill="#455a64"/>
                        </g>
                      </g>
                      <g id="Grupo_44243" data-name="Grupo 44243" transform="translate(10.788 41.007)">
                        <g id="Grupo_44242" data-name="Grupo 44242">
                          <path id="Trazado_14361" data-name="Trazado 14361" d="M183.6,171.711v.376c.094.188.188.564.376.941a5.482,5.482,0,0,0,3.01,2.07,9.934,9.934,0,0,0,5.362-.564c.941-.376,1.976-.659,2.916-1.129a4.911,4.911,0,0,0,2.634-2.352c0-.094.094-.188.094-.282l-.47.094a23.155,23.155,0,0,0,5.55,3.387,9.6,9.6,0,0,0,5.268.564,8.364,8.364,0,0,0,3.293-1.411,4.247,4.247,0,0,0,.659-.659,1.163,1.163,0,0,1,.188-.282s-.376.282-1.035.847a6.859,6.859,0,0,1-3.2,1.223,9.658,9.658,0,0,1-4.986-.659,23.581,23.581,0,0,1-5.362-3.293l-.282-.282-.188.376c0,.094-.094.188-.094.282a5.052,5.052,0,0,1-2.352,2.07,18.619,18.619,0,0,1-2.916,1.129,10.117,10.117,0,0,1-5.08.659,4.874,4.874,0,0,1-2.916-1.787C183.694,172.181,183.694,171.711,183.6,171.711Z" transform="translate(-183.6 -170.3)" fill="#455a64"/>
                        </g>
                      </g>
                    </g>
                  </g>
                </g>
                <g id="Grupo_44256" data-name="Grupo 44256" transform="translate(94.592 75.243)">
                  <g id="Grupo_44255" data-name="Grupo 44255">
                    <g id="Grupo_44254" data-name="Grupo 44254">
                      <g id="Grupo_44253" data-name="Grupo 44253">
                        <g id="Grupo_44252" data-name="Grupo 44252">
                          <g id="Grupo_44251" data-name="Grupo 44251">
                            <g id="Grupo_44250" data-name="Grupo 44250">
                              <g id="Grupo_44249" data-name="Grupo 44249">
                                <g id="Grupo_44248" data-name="Grupo 44248">
                                  <g id="Grupo_44247" data-name="Grupo 44247">
                                    <path id="Trazado_14362" data-name="Trazado 14362" d="M282.838,210.18c-.376.47-3.1-1.411-6.868-1.223-3.763.094-6.4,2.07-6.773,1.6-.188-.188.188-1.035,1.411-1.976a9.37,9.37,0,0,1,5.456-1.882,8.76,8.76,0,0,1,5.456,1.6C282.649,209.145,283.026,209.992,282.838,210.18Z" transform="translate(-269.151 -206.692)" fill="#263238"/>
                                  </g>
                                </g>
                              </g>
                            </g>
                          </g>
                        </g>
                      </g>
                    </g>
                  </g>
                </g>
                <g id="Grupo_44266" data-name="Grupo 44266" transform="translate(58.097 77.196)">
                  <g id="Grupo_44265" data-name="Grupo 44265">
                    <g id="Grupo_44264" data-name="Grupo 44264">
                      <g id="Grupo_44263" data-name="Grupo 44263">
                        <g id="Grupo_44262" data-name="Grupo 44262">
                          <g id="Grupo_44261" data-name="Grupo 44261">
                            <g id="Grupo_44260" data-name="Grupo 44260">
                              <g id="Grupo_44259" data-name="Grupo 44259">
                                <g id="Grupo_44258" data-name="Grupo 44258">
                                  <g id="Grupo_44257" data-name="Grupo 44257">
                                    <path id="Trazado_14363" data-name="Trazado 14363" d="M244.038,212.937c-.47.376-2.916-1.693-6.679-1.976-3.669-.282-6.585,1.411-6.961.941-.188-.188.282-1.035,1.6-1.787a9.516,9.516,0,0,1,5.55-1.317,8.553,8.553,0,0,1,5.268,2.164C243.944,211.9,244.226,212.749,244.038,212.937Z" transform="translate(-230.358 -208.769)" fill="#263238"/>
                                  </g>
                                </g>
                              </g>
                            </g>
                          </g>
                        </g>
                      </g>
                    </g>
                  </g>
                </g>
                <g id="Grupo_44275" data-name="Grupo 44275" transform="translate(83.506 66.78)">
                  <g id="Grupo_44274" data-name="Grupo 44274">
                    <g id="Grupo_44273" data-name="Grupo 44273">
                      <g id="Grupo_44272" data-name="Grupo 44272">
                        <g id="Grupo_44271" data-name="Grupo 44271">
                          <g id="Grupo_44270" data-name="Grupo 44270">
                            <g id="Grupo_44269" data-name="Grupo 44269">
                              <g id="Grupo_44268" data-name="Grupo 44268">
                                <g id="Grupo_44267" data-name="Grupo 44267">
                                  <path id="Trazado_14364" data-name="Trazado 14364" d="M260.126,228.744c0-.188,2.258-.659,6.021-1.317.941-.094,1.881-.376,1.976-1.035a4.682,4.682,0,0,0-.753-2.822c-.941-2.258-1.976-4.609-3.01-7.149-4.233-10.16-7.338-18.533-6.961-18.721s4.139,8,8.373,18.156c1.035,2.54,1.976,4.892,2.917,7.15.376,1.035,1.035,2.258.658,3.669a2.243,2.243,0,0,1-1.505,1.411,11.493,11.493,0,0,1-1.6.282C262.478,228.838,260.126,228.932,260.126,228.744Z" transform="translate(-257.367 -197.697)" fill="#263238"/>
                                </g>
                              </g>
                            </g>
                          </g>
                        </g>
                      </g>
                    </g>
                  </g>
                </g>
                <path id="Trazado_14365" data-name="Trazado 14365" d="M253.775,236.594c-1.411.282-4.516,2.164-5.362,3.669s-1.882,3.951-1.129,5.268c.658,1.223,5.738-.282,7.808-.659.941-.188,3.387,1.035,3.669-.188l.564-4.327c.094-2.07-1.223-2.916-2.634-3.481A5.038,5.038,0,0,0,253.775,236.594Z" transform="translate(-173.248 -133.216)" fill="#ff9a6c"/>
                <g id="Grupo_44280" data-name="Grupo 44280" transform="translate(53.143 58.363)">
                  <g id="Grupo_44279" data-name="Grupo 44279">
                    <g id="Grupo_44278" data-name="Grupo 44278">
                      <g id="Grupo_44277" data-name="Grupo 44277">
                        <g id="Grupo_44276" data-name="Grupo 44276">
                          <path id="Trazado_14366" data-name="Trazado 14366" d="M225.1,191.055c.376-1.035,4.045-.564,8.467-1.129,4.421-.47,7.9-1.787,8.467-.847.282.47-.376,1.411-1.787,2.352a13.41,13.41,0,0,1-6.3,2.258,13.966,13.966,0,0,1-6.585-.753C225.758,192.278,225.005,191.525,225.1,191.055Z" transform="translate(-225.092 -188.748)" fill="#263238"/>
                        </g>
                      </g>
                    </g>
                  </g>
                </g>
                <g id="Grupo_44285" data-name="Grupo 44285" transform="translate(92.033 54.892)">
                  <g id="Grupo_44284" data-name="Grupo 44284">
                    <g id="Grupo_44283" data-name="Grupo 44283">
                      <g id="Grupo_44282" data-name="Grupo 44282">
                        <g id="Grupo_44281" data-name="Grupo 44281">
                          <path id="Trazado_14367" data-name="Trazado 14367" d="M266.59,185.286c.846-.752,3.669.565,7.244,1.129,3.481.659,6.585.376,7.15,1.411.282.47-.376,1.223-1.788,1.881a11.345,11.345,0,0,1-6.115.47,11.744,11.744,0,0,1-5.55-2.54C266.5,186.6,266.214,185.662,266.59,185.286Z" transform="translate(-266.431 -185.059)" fill="#263238"/>
                        </g>
                      </g>
                    </g>
                  </g>
                </g>
              </g>
            </g>
            <g id="Grupo_44288" data-name="Grupo 44288" transform="translate(73.213 103.002)">
              <path id="Trazado_14368" data-name="Trazado 14368" d="M257.5,244.949c0,.188-1.6-.094-4.139.564a16.2,16.2,0,0,0-1.975.659,7.513,7.513,0,0,1-2.446.753,2.264,2.264,0,0,1-2.352-1.881,4.986,4.986,0,0,1,.188-3.1,9.749,9.749,0,0,1,1.6-2.54,8.211,8.211,0,0,1,2.164-1.881,8.79,8.79,0,0,1,4.515-1.317,6.226,6.226,0,0,1,3.1.753,4.819,4.819,0,0,1,.941.658c0,.094-.376-.094-1.035-.376a10.417,10.417,0,0,0-2.916-.47,7.264,7.264,0,0,0-4.045,1.411,10.569,10.569,0,0,0-1.882,1.693,7.035,7.035,0,0,0-1.411,2.258,3.945,3.945,0,0,0-.188,2.54,1.51,1.51,0,0,0,1.505,1.223,5.789,5.789,0,0,0,2.163-.659,9.794,9.794,0,0,1,2.07-.564C255.9,244.384,257.6,244.855,257.5,244.949Z" transform="translate(-246.426 -236.2)" fill="#263238"/>
            </g>
          </g>
          <circle id="Elipse_1403" data-name="Elipse 1403" cx="7.526" cy="7.526" r="7.526" transform="translate(66.078 103.691)" fill="#455a64"/>
          <g id="Grupo_44290" data-name="Grupo 44290" transform="translate(105.119 25.892)">
            <path id="Trazado_14369" data-name="Trazado 14369" d="M232.3,175.161a1.626,1.626,0,0,1,.188-.658,8.716,8.716,0,0,1,1.129-1.787,8.177,8.177,0,0,1,2.728-1.976,8.3,8.3,0,0,1,4.421-.753,5.248,5.248,0,0,1,2.54.941,3.057,3.057,0,0,1,.941,1.223,2.129,2.129,0,0,1-.094,1.693,3.092,3.092,0,0,1-2.822,1.6,7.6,7.6,0,0,1-3.2-.753,9.081,9.081,0,0,1-4.7-4.986,8.314,8.314,0,0,1,1.035-7.244,7.343,7.343,0,0,1,6.679-2.916,6.4,6.4,0,0,1,3.387,1.411,3.343,3.343,0,0,1,1.035,1.505,2.6,2.6,0,0,1,0,1.882,2.564,2.564,0,0,1-1.223,1.411,8.142,8.142,0,0,1-1.6.659,8.607,8.607,0,0,1-3.1,0,7.475,7.475,0,0,1-4.515-3.01,6.981,6.981,0,0,1-1.129-4.327,7.125,7.125,0,0,1,1.035-3.2,6.215,6.215,0,0,1,1.411-1.6c.376-.282.564-.376.659-.376a15.4,15.4,0,0,0-1.693,2.164,8.179,8.179,0,0,0-.847,3.01,5.591,5.591,0,0,0,1.129,3.857,6.793,6.793,0,0,0,4.139,2.634,6.662,6.662,0,0,0,2.728,0,2.686,2.686,0,0,0,2.07-1.505,2.393,2.393,0,0,0-.847-2.446,5.014,5.014,0,0,0-2.822-1.129,6.453,6.453,0,0,0-5.832,2.54,7.1,7.1,0,0,0-.941,6.4,7.85,7.85,0,0,0,4.139,4.515,10.471,10.471,0,0,0,2.822.753,2.27,2.27,0,0,0,2.07-1.035,1.539,1.539,0,0,0-.565-1.975,4.048,4.048,0,0,0-2.164-.847,8.007,8.007,0,0,0-4.045.564,8.089,8.089,0,0,0-2.634,1.787A11.7,11.7,0,0,0,232.3,175.161Z" transform="translate(-232.3 -153.9)" fill="#263238"/>
          </g>
          <g id="Grupo_44291" data-name="Grupo 44291" transform="translate(1.149)">
            <path id="Trazado_14370" data-name="Trazado 14370" d="M139.673,169.3s-.376.094-1.223.282c-.847.094-1.976.282-3.575.376a17.736,17.736,0,0,1-5.644-.47,11.24,11.24,0,0,1-3.293-1.411,8.222,8.222,0,0,1-4.139-7.15,16.742,16.742,0,0,1,.565-4.8,21.919,21.919,0,0,1,4.892-9.5,15.7,15.7,0,0,1,4.7-3.481,10.577,10.577,0,0,1,2.916-.941,11.5,11.5,0,0,1,3.1-.188,12.366,12.366,0,0,1,6.115,1.975,11.081,11.081,0,0,1,2.54,2.164,8.611,8.611,0,0,1,1.693,3.01l.376,1.129-1.129-.564a7.584,7.584,0,0,1-3.2-3.01,9.98,9.98,0,0,1-.847-8.09,9.94,9.94,0,0,1,1.693-3.293,18.586,18.586,0,0,1,5.268-4.892,25.575,25.575,0,0,1,12.7-4.045,21.2,21.2,0,0,1,11.759,2.822,18.657,18.657,0,0,1,7.244,7.62,16.289,16.289,0,0,1,.094,14.769A12.085,12.085,0,0,1,179.842,155c-.282.376-.659.565-.753.753-.188.188-.282.188-.282.188s.376-.376.941-1.035a12.375,12.375,0,0,0,2.164-3.387,15.828,15.828,0,0,0,1.505-6.209,17.026,17.026,0,0,0-1.787-8.184,19.2,19.2,0,0,0-7.056-7.244,19.721,19.721,0,0,0-11.289-2.634,24.734,24.734,0,0,0-12.23,3.951,17.9,17.9,0,0,0-4.986,4.61,9.953,9.953,0,0,0-1.882,6.491c.188,2.728,1.6,5.456,3.951,6.585l-.659.564a9.131,9.131,0,0,0-1.505-2.634,8.98,8.98,0,0,0-2.258-1.975,12.082,12.082,0,0,0-5.644-1.787c-3.951-.376-7.62,1.6-10.16,4.233a19.694,19.694,0,0,0-4.8,9.031,15.86,15.86,0,0,0-.564,4.61,7.267,7.267,0,0,0,1.129,4.045,9.139,9.139,0,0,0,2.634,2.728,11.366,11.366,0,0,0,3.1,1.411,20.183,20.183,0,0,0,5.55.564c1.505,0,2.728-.188,3.575-.188A4.031,4.031,0,0,1,139.673,169.3Z" transform="translate(-121.781 -126.377)" fill="#263238"/>
          </g>
          <g id="Grupo_44292" data-name="Grupo 44292" transform="translate(19.504 62.801)">
            <path id="Trazado_14371" data-name="Trazado 14371" d="M157.2,209.471q0,.141-1.411.564a14.371,14.371,0,0,1-4.045.47,16.1,16.1,0,0,1-5.833-1.317,9.787,9.787,0,0,1-3.01-1.976,4.628,4.628,0,0,1-1.6-3.669,6.887,6.887,0,0,1,1.6-3.669,31.237,31.237,0,0,1,2.634-2.446,21.488,21.488,0,0,1,5.174-3.01,19.839,19.839,0,0,1,3.857-1.129c.941-.188,1.505-.188,1.505-.094,0,.188-2.07.47-5.08,1.881a23.772,23.772,0,0,0-4.892,3.01,14.333,14.333,0,0,0-2.446,2.352,5.545,5.545,0,0,0-1.411,3.1,3.858,3.858,0,0,0,1.317,2.916,10.861,10.861,0,0,0,2.728,1.881,16.957,16.957,0,0,0,5.55,1.505C155.128,210.035,157.1,209.283,157.2,209.471Z" transform="translate(-141.292 -193.134)" fill="#263238"/>
          </g>
          <g id="Grupo_44293" data-name="Grupo 44293" transform="translate(99.749 85.652)">
            <path id="Trazado_14372" data-name="Trazado 14372" d="M245.791,219.565c-.094.188-1.129-.282-2.916-.658a24.225,24.225,0,0,0-3.1-.47,26.343,26.343,0,0,0-3.857,0,22.182,22.182,0,0,0-3.763.753,23.8,23.8,0,0,0-2.916,1.129c-1.6.752-2.54,1.411-2.634,1.223-.094-.094.753-.941,2.352-1.882a15.161,15.161,0,0,1,3.01-1.317,24.383,24.383,0,0,1,3.951-.847,28.978,28.978,0,0,1,4.045,0,13.34,13.34,0,0,1,3.2.752A7.029,7.029,0,0,1,245.791,219.565Z" transform="translate(-226.592 -217.425)" fill="#ff9a6c"/>
          </g>
        </g>
        <g id="Grupo_44300" data-name="Grupo 44300" transform="translate(62.015 149.482)">
          <path id="Trazado_14373" data-name="Trazado 14373" d="M318.96,472.74l-10.818-27.281,6.961-40.452,1.881-23.895c-.376-15.428-1.693-27.375-8-41.392L289.233,290.9l-24.177,6.585a35.715,35.715,0,0,0-3.1-8.937c-4.516-8.561-62.841-5.644-66.7-2.54-2.446,1.975-3.575,9.031-4.139,13.923l-20.32-.094L146.9,361.357c.753,1.693,15.522,21.355,15.522,21.355L177.1,463.8l-4.7,8.466Z" transform="translate(-146.9 -282.899)" fill="#39a900"/>
          <g id="Grupo_44295" data-name="Grupo 44295" transform="translate(52.315 1.883)">
            <path id="Trazado_14374" data-name="Trazado 14374" d="M203.912,309.359a3.678,3.678,0,0,1-.376-.941,19.992,19.992,0,0,1-.564-2.634,33.511,33.511,0,0,1-.282-8.937,33.007,33.007,0,0,1,2.164-8.655c.47-1.035.847-1.882,1.129-2.446s.47-.847.565-.847-.565,1.317-1.317,3.387a39.863,39.863,0,0,0-1.975,8.561,33.434,33.434,0,0,0,.188,8.843C203.629,308.042,204.006,309.359,203.912,309.359Z" transform="translate(-202.511 -284.9)" fill="#263238"/>
          </g>
          <g id="Grupo_44296" data-name="Grupo 44296" transform="translate(68.655 0.66)">
            <path id="Trazado_14375" data-name="Trazado 14375" d="M221.122,310.129s-.094-.376-.282-1.035-.282-1.6-.47-2.822a66.342,66.342,0,0,1-.47-9.407c0-3.669.282-6.961.376-9.407.094-1.129.188-2.069.188-2.822.094-.658.094-1.035.188-1.035s0,.376,0,1.035,0,1.693-.094,2.822c-.094,2.446-.188,5.738-.282,9.407a88.527,88.527,0,0,0,.376,9.407C220.934,308.623,221.216,310.129,221.122,310.129Z" transform="translate(-219.88 -283.6)" fill="#263238"/>
          </g>
          <g id="Grupo_44297" data-name="Grupo 44297" transform="translate(85.313 0.095)">
            <path id="Trazado_14376" data-name="Trazado 14376" d="M239.575,307.083a25.819,25.819,0,0,1,.094-3.575c.094-2.164.188-5.174,0-8.561a54.937,54.937,0,0,0-1.223-8.467c-.47-2.164-.941-3.387-.847-3.481a3.864,3.864,0,0,1,.376.847c.188.564.47,1.411.847,2.446a52.537,52.537,0,0,1,1.411,8.466,62.037,62.037,0,0,1-.094,8.561c-.094,1.129-.188,1.975-.282,2.634Z" transform="translate(-237.587 -283)" fill="#263238"/>
          </g>
          <g id="Grupo_44298" data-name="Grupo 44298" transform="translate(101.78 1.318)">
            <path id="Trazado_14377" data-name="Trazado 14377" d="M256.981,309.324c-.094,0,.376-1.411.941-3.669a29.1,29.1,0,0,0-1.317-17.874c-.847-2.164-1.6-3.387-1.505-3.481l.565.847a19.467,19.467,0,0,1,1.223,2.446,25.888,25.888,0,0,1,2.164,8.937,28.906,28.906,0,0,1-.847,9.125,14.483,14.483,0,0,1-.847,2.634A3.667,3.667,0,0,1,256.981,309.324Z" transform="translate(-255.091 -284.3)" fill="#263238"/>
          </g>
          <g id="Grupo_44299" data-name="Grupo 44299" transform="translate(115.41 6.116)">
            <path id="Trazado_14378" data-name="Trazado 14378" d="M273.55,308.309a14.759,14.759,0,0,1-.376-2.822,67.284,67.284,0,0,0-1.035-6.773c-.564-2.634-1.317-4.892-1.787-6.585a11.19,11.19,0,0,1-.753-2.728,14.506,14.506,0,0,1,1.129,2.634,52.405,52.405,0,0,1,1.976,6.585,45.832,45.832,0,0,1,.941,6.773A14.867,14.867,0,0,1,273.55,308.309Z" transform="translate(-269.581 -289.4)" fill="#263238"/>
          </g>
        </g>
        <g id="Grupo_44307" data-name="Grupo 44307" transform="translate(82.378)">
          <g id="Grupo_44302" data-name="Grupo 44302">
            <path id="Trazado_14379" data-name="Trazado 14379" d="M169.161,192.986l1.411-9.69s.376-7.244-1.411-10.912.47-5.55,4.8-2.164,4.8,6.3,4.8,6.3,6.491-18.156,8.937-22.954,8.655-13.547,8.655-13.547,9.878-15.24,10.63-15.428,2.446-.282,1.693,2.446l3.857-2.54s4.327,1.787,1.223,7.62-7.244,14.3-7.244,14.3l-.282,4.139,11.1-13.547s4.8-2.164,3.1,3.669-7.526,14.958-7.526,14.958l-2.916,14.77a36.746,36.746,0,0,1-.47,12.324c-1.411,6.773-11.1,26.623-17.027,28.5C186.753,213.023,169.161,192.986,169.161,192.986Z" transform="translate(-168.546 -124.03)" fill="#ffbf9d"/>
            <g id="Grupo_44301" data-name="Grupo 44301" transform="translate(0.014)">
              <path id="Trazado_14380" data-name="Trazado 14380" d="M169.162,192.956l.282.282a5.568,5.568,0,0,0,.753.753c.658.659,1.6,1.693,2.822,3.01s2.822,2.916,4.7,4.7a66.656,66.656,0,0,0,6.867,5.833,21.337,21.337,0,0,0,4.516,2.728,8.476,8.476,0,0,0,2.634.753,4.374,4.374,0,0,0,2.634-1.129,21.639,21.639,0,0,0,4.139-4.61,49.376,49.376,0,0,0,3.575-5.738,92.39,92.39,0,0,0,6.209-13.359,24.861,24.861,0,0,0,1.129-3.763,28.538,28.538,0,0,0,.564-3.951,34.879,34.879,0,0,0-.094-8.278h0c.941-4.7,1.882-9.6,2.916-14.77h0a87.579,87.579,0,0,0,5.55-10.16,30.411,30.411,0,0,0,2.07-5.55,3.586,3.586,0,0,0,.094-1.411,1.788,1.788,0,0,0-.47-1.223,1.427,1.427,0,0,0-1.223-.282,3.943,3.943,0,0,0-1.411.376l.094-.094c-3.575,4.327-7.338,8.937-11.1,13.546l-.47.565v-.753a4.216,4.216,0,0,1,.094-1.035c.094-1.035.094-2.07.188-3.1V146.2h0c1.882-3.763,3.857-7.526,5.738-11.195.47-.941.941-1.882,1.411-2.728.282-.47.47-.941.658-1.317a8.281,8.281,0,0,0,.47-1.411,5.7,5.7,0,0,0-.094-2.822,3.856,3.856,0,0,0-1.881-1.976h.188c-1.317.847-2.634,1.693-3.857,2.54l-.47.376.188-.564a2.376,2.376,0,0,0-.094-1.976,1.313,1.313,0,0,0-.847-.282h-.376l-.376.376c-.941,1.223-1.787,2.446-2.634,3.669-1.693,2.446-3.293,4.892-4.892,7.338-.753,1.223-1.6,2.446-2.352,3.575-.847,1.129-1.6,2.352-2.446,3.481q-2.4,3.387-4.516,6.773l-1.975,3.387c-.564,1.129-1.129,2.352-1.6,3.481-.941,2.352-1.882,4.61-2.728,6.867-1.693,4.515-3.293,8.749-4.7,12.7l-.188.564-.094-.564a10.086,10.086,0,0,0-2.164-3.763,22.125,22.125,0,0,0-3.1-2.822,5.051,5.051,0,0,0-3.481-1.317,1.162,1.162,0,0,0-.753.376,1.891,1.891,0,0,0-.376.753,3.5,3.5,0,0,0,.188,1.693c.188.564.47,1.035.659,1.6a14.53,14.53,0,0,1,.47,1.6,19.126,19.126,0,0,1,.47,3.1,35.964,35.964,0,0,1,.094,5.456h0c-.47,3.1-.847,5.55-1.035,7.15-.094.847-.188,1.411-.282,1.882a1.653,1.653,0,0,0-.282.752,3.938,3.938,0,0,1,.094-.659c.094-.47.094-1.035.282-1.881.188-1.693.564-4.045,1.035-7.244h0a37.275,37.275,0,0,0-.188-5.456,18.311,18.311,0,0,0-1.6-6.3,4.159,4.159,0,0,1-.188-1.882,1.987,1.987,0,0,1,.376-.941,2.944,2.944,0,0,1,.941-.47,5.239,5.239,0,0,1,3.763,1.411,22.191,22.191,0,0,1,3.2,2.822,9.673,9.673,0,0,1,2.258,3.951h-.282c1.411-3.951,3.01-8.279,4.7-12.7.847-2.258,1.788-4.515,2.728-6.867.47-1.129,1.035-2.352,1.6-3.575a32.622,32.622,0,0,1,1.975-3.481c1.411-2.258,2.916-4.516,4.516-6.867.753-1.129,1.6-2.258,2.446-3.481.753-1.223,1.6-2.352,2.352-3.575,1.6-2.446,3.2-4.892,4.892-7.338.847-1.223,1.693-2.446,2.634-3.669.094-.188.282-.282.376-.47a.328.328,0,0,0,.188-.094h.188a.346.346,0,0,0,.282-.094,1.482,1.482,0,0,1,1.223.376,1.686,1.686,0,0,1,.47,1.223,5.5,5.5,0,0,1-.188,1.223l-.376-.282c1.317-.847,2.54-1.693,3.857-2.54l.094-.094.094.094a4.6,4.6,0,0,1,2.164,2.258,5.829,5.829,0,0,1,.188,3.1,7.05,7.05,0,0,1-.47,1.505c-.188.47-.47.941-.658,1.411-.47.941-.941,1.787-1.411,2.728-1.881,3.669-3.763,7.432-5.644,11.195V146.2c-.094,1.035-.094,2.07-.188,3.1a3.526,3.526,0,0,1-.094,1.035l-.47-.188c3.857-4.61,7.526-9.219,11.1-13.547v-.094h.094a4.428,4.428,0,0,1,1.505-.376,1.966,1.966,0,0,1,1.6.376,2,2,0,0,1,.659,1.505,9.27,9.27,0,0,1-.188,1.6,36.608,36.608,0,0,1-2.07,5.644,98.168,98.168,0,0,1-5.644,10.254v-.094c-1.035,5.08-1.976,10.066-2.916,14.77V170.1a35.671,35.671,0,0,1,.094,8.373,30.149,30.149,0,0,1-.659,4.045c-.282,1.317-.753,2.54-1.129,3.763a92.524,92.524,0,0,1-6.3,13.358,59.559,59.559,0,0,1-3.669,5.738,25.547,25.547,0,0,1-4.233,4.7,4.647,4.647,0,0,1-2.822,1.129,6.976,6.976,0,0,1-2.822-.753,26.371,26.371,0,0,1-4.516-2.822c-2.728-2.07-4.892-4.139-6.867-5.927-1.881-1.787-3.481-3.387-4.7-4.8q-1.834-1.976-2.822-3.1c-.282-.376-.564-.659-.658-.847C169.162,193.05,169.162,192.956,169.162,192.956Z" transform="translate(-168.561 -124)" fill="#ff9a6c"/>
            </g>
          </g>
          <g id="Grupo_44303" data-name="Grupo 44303" transform="translate(24.134 3.093)">
            <path id="Trazado_14381" data-name="Trazado 14381" d="M209.628,127.3l-.847,1.411c-.658.941-1.411,2.164-2.446,3.669a97.955,97.955,0,0,0-7.15,12.512,56.963,56.963,0,0,0-4.233,13.735c-.282,1.787-.47,3.293-.564,4.327s-.188,1.6-.188,1.6v-1.6c0-1.035.188-2.54.376-4.327a49.482,49.482,0,0,1,4.139-13.829,86.564,86.564,0,0,1,7.338-12.512c1.035-1.505,1.976-2.728,2.54-3.575C209.252,127.676,209.628,127.205,209.628,127.3Z" transform="translate(-194.2 -127.288)" fill="#ff9a6c"/>
          </g>
          <g id="Grupo_44304" data-name="Grupo 44304" transform="translate(31.336 26.058)">
            <path id="Trazado_14382" data-name="Trazado 14382" d="M208.765,151.7c.094.094-.941.847-2.07,2.446a21.88,21.88,0,0,0-3.2,6.961,48.243,48.243,0,0,0-1.223,7.62,19.89,19.89,0,0,1-.376,3.2,1.933,1.933,0,0,1,0-.847c.094-.564,0-1.411.094-2.352a34.486,34.486,0,0,1,1.129-7.808,19.726,19.726,0,0,1,3.387-7.055,14.928,14.928,0,0,1,1.6-1.693C208.482,151.888,208.765,151.7,208.765,151.7Z" transform="translate(-201.856 -151.7)" fill="#ff9a6c"/>
          </g>
          <g id="Grupo_44305" data-name="Grupo 44305" transform="translate(20.243 20.038)">
            <path id="Trazado_14383" data-name="Trazado 14383" d="M195.366,145.3a16.6,16.6,0,0,1-.847,2.728c-.564,1.693-1.317,3.951-2.07,6.491s-1.317,4.892-1.693,6.679a13.917,13.917,0,0,1-.659,2.728,8.874,8.874,0,0,1,.376-2.822c.282-1.693.847-4.139,1.505-6.679a45.846,45.846,0,0,1,2.258-6.491A11.314,11.314,0,0,1,195.366,145.3Z" transform="translate(-190.064 -145.3)" fill="#ff9a6c"/>
          </g>
          <g id="Grupo_44306" data-name="Grupo 44306" transform="translate(6.695 50.894)">
            <path id="Trazado_14384" data-name="Trazado 14384" d="M179.461,178.1a7.136,7.136,0,0,1-.47,2.164c-.376,1.505-.847,3.2-1.317,5.174-.47,1.881-.941,3.669-1.317,5.174a12.082,12.082,0,0,1-.658,2.164,6.187,6.187,0,0,1,.282-2.164c.282-1.317.658-3.2,1.129-5.174a52.273,52.273,0,0,1,1.505-5.174A8.619,8.619,0,0,1,179.461,178.1Z" transform="translate(-175.663 -178.1)" fill="#ff9a6c"/>
          </g>
        </g>
        <g id="Grupo_44314" data-name="Grupo 44314" transform="translate(172.27 2.164)">
          <g id="Grupo_44309" data-name="Grupo 44309">
            <path id="Trazado_14385" data-name="Trazado 14385" d="M268.905,139.575a2.684,2.684,0,0,0-4.327,3.1l.094.094c2.728,4.516,11.947,19.285,11.947,19.285l2.258,5.08s4.892,7.714,5.739,9.972c.941,2.258,13.264,22.483,14.863,24.271s10.16,0,10.16,0l9.219-18.25-9.219-21.073s.47-3.01-1.317-2.352a13,13,0,0,0-2.728,1.317L285.18,131.485s-5.362-8.937-9.125-2.916c0,0-4.515,1.317-1.976,7.432a44.718,44.718,0,0,0,6.961,11.477l3.575,9.5Z" transform="translate(-264.108 -126.311)" fill="#ffbf9d"/>
            <g id="Grupo_44308" data-name="Grupo 44308">
              <path id="Trazado_14386" data-name="Trazado 14386" d="M268.9,139.564l.282.282.847.847q1.129,1.129,3.1,3.387c2.728,3.01,6.679,7.338,11.759,12.794l-.282.188c-1.129-2.822-2.352-6.021-3.669-9.5v.094a39.787,39.787,0,0,1-5.738-8.843c-.376-.847-.847-1.693-1.223-2.54a8.908,8.908,0,0,1-.753-2.822,5.65,5.65,0,0,1,.47-3.01,4.255,4.255,0,0,1,2.352-2.07l-.094.094a4.762,4.762,0,0,1,1.976-1.881,3.669,3.669,0,0,1,2.822,0,11.384,11.384,0,0,1,4.139,3.763c2.164,3.1,4.327,6.3,6.679,9.69,4.61,6.585,9.407,13.546,14.393,20.79l-.376-.094a12,12,0,0,1,2.916-1.411,1.033,1.033,0,0,1,1.411.941,10.254,10.254,0,0,1,.094,1.693v-.094c1.223,2.916,2.634,5.927,3.951,9.125,1.788,4.045,3.575,8.09,5.268,12.041v.094l-.094.094c-3.2,6.3-6.3,12.324-9.219,18.25l-.094.094h-.094a30.793,30.793,0,0,1-7.15.753,11.539,11.539,0,0,1-1.787-.188,2.384,2.384,0,0,1-1.6-.941c-.753-.941-1.317-1.881-1.976-2.822-2.446-3.857-4.8-7.62-6.962-11.195-1.129-1.787-2.164-3.575-3.2-5.362a47.864,47.864,0,0,1-2.822-5.268c-1.787-3.387-3.669-6.491-5.55-9.407h0c-.847-1.787-1.505-3.481-2.258-5.08h0c-4.986-8.184-9.031-14.675-11.759-19.191a3.324,3.324,0,0,1-.564-1.787,2.22,2.22,0,0,1,.659-1.505,2.789,2.789,0,0,1,2.258-1.035,2.2,2.2,0,0,1,1.411.564l.47.47a1.127,1.127,0,0,1-.376-.376,2.481,2.481,0,0,0-1.411-.47,2.786,2.786,0,0,0-2.164,1.035,2.379,2.379,0,0,0-.565,1.411,3.033,3.033,0,0,0,.565,1.693c2.822,4.516,6.867,10.912,11.947,19.1h0c.753,1.6,1.411,3.293,2.258,5.08h0c1.787,2.916,3.763,6.021,5.55,9.5a39.609,39.609,0,0,0,2.822,5.174c1.035,1.693,2.07,3.481,3.2,5.362,2.164,3.575,4.516,7.338,7.056,11.195.659.941,1.223,1.882,1.976,2.822a1.919,1.919,0,0,0,1.411.753,10.363,10.363,0,0,0,1.693.188,44.916,44.916,0,0,0,7.056-.753l-.188.094c3.01-5.833,6.021-11.947,9.219-18.25v.188c-1.693-3.951-3.481-7.9-5.268-12.041-1.317-3.1-2.728-6.209-3.951-9.125v-.188a4.048,4.048,0,0,0,0-1.505c-.094-.47-.47-.753-.847-.564a18.4,18.4,0,0,0-2.728,1.317l-.188.188-.094-.188q-7.479-10.866-14.393-20.884c-2.258-3.292-4.516-6.491-6.585-9.6a11.273,11.273,0,0,0-3.951-3.669,3.158,3.158,0,0,0-2.446-.094,4.659,4.659,0,0,0-1.787,1.787v.094h-.094a3.881,3.881,0,0,0-2.07,1.787,3.925,3.925,0,0,0-.376,2.728,17.643,17.643,0,0,0,1.881,5.268,46.71,46.71,0,0,0,5.644,8.749h0c1.317,3.387,2.54,6.585,3.575,9.5l.282.753-.47-.564c-4.986-5.55-8.937-9.878-11.665-12.888q-1.975-2.258-3.1-3.387c-.376-.376-.564-.659-.753-.847A3.367,3.367,0,0,1,268.9,139.564Z" transform="translate(-264.1 -126.3)" fill="#ff9a6c"/>
            </g>
          </g>
          <g id="Grupo_44310" data-name="Grupo 44310" transform="translate(21.627 32.553)">
            <path id="Trazado_14387" data-name="Trazado 14387" d="M292.179,167.58c-.094,0-.847-1.881-1.976-4.045-.565-1.129-1.129-2.07-1.881-2.258a1.808,1.808,0,0,0-1.223-.094c-.094,0,.47-.47,1.317-.188a2.286,2.286,0,0,1,1.317.847,8.119,8.119,0,0,1,.941,1.505A13.226,13.226,0,0,1,292.179,167.58Z" transform="translate(-287.089 -160.904)" fill="#ff9a6c"/>
          </g>
          <g id="Grupo_44311" data-name="Grupo 44311" transform="translate(12.512 2.352)">
            <path id="Trazado_14388" data-name="Trazado 14388" d="M295.744,156.928a8.079,8.079,0,0,1-.659-1.129c-.376-.753-.941-1.882-1.693-3.2-1.505-2.634-3.669-6.3-6.3-10.066-2.634-3.857-5.174-7.244-6.867-9.69-.847-1.223-1.505-2.164-2.07-2.916-.47-.658-.752-1.129-.752-1.129a8.968,8.968,0,0,1,.847,1.035c.564.753,1.317,1.693,2.164,2.822,1.882,2.446,4.422,5.832,7.056,9.6a102.892,102.892,0,0,1,6.209,10.254c.658,1.317,1.223,2.446,1.6,3.293A4.2,4.2,0,0,1,295.744,156.928Z" transform="translate(-277.4 -128.8)" fill="#ff9a6c"/>
          </g>
          <g id="Grupo_44312" data-name="Grupo 44312" transform="translate(31.699 30.832)">
            <path id="Trazado_14389" data-name="Trazado 14389" d="M301.092,165.684c-.188,0,.094-1.787-.847-3.669s-2.54-2.728-2.446-2.916c0-.094.47.094,1.035.47a5.358,5.358,0,0,1,1.787,2.164,6.719,6.719,0,0,1,.658,2.728A2.986,2.986,0,0,1,301.092,165.684Z" transform="translate(-297.796 -159.075)" fill="#ff9a6c"/>
          </g>
          <g id="Grupo_44313" data-name="Grupo 44313" transform="translate(41.19 34.149)">
            <path id="Trazado_14390" data-name="Trazado 14390" d="M314.954,175.958a8.79,8.79,0,0,1-1.129-1.882c-.752-1.317-1.6-2.916-2.634-4.7s-1.881-3.481-2.446-4.7a8.983,8.983,0,0,1-.847-2.07,8.76,8.76,0,0,1,1.129,1.882c.753,1.317,1.6,2.916,2.634,4.7s1.882,3.481,2.446,4.7A11.394,11.394,0,0,1,314.954,175.958Z" transform="translate(-307.885 -162.6)" fill="#ff9a6c"/>
          </g>
        </g>
        <g id="Grupo_44315" data-name="Grupo 44315" transform="translate(139.344 241.298)">
          <path id="Trazado_14391" data-name="Trazado 14391" d="M229.1,414.461a3.913,3.913,0,0,1,.47-.188c.376-.094.847-.282,1.505-.47.282-.094.659-.188,1.035-.282a10.6,10.6,0,0,0,1.223-.47c.847-.376,1.882-.658,3.01-1.129.564-.282,1.129-.47,1.693-.753a16.32,16.32,0,0,0,1.787-.941c1.223-.564,2.54-1.411,3.951-2.164a56.114,56.114,0,0,0,15.146-13.641c.941-1.317,1.787-2.446,2.54-3.669a16.4,16.4,0,0,0,1.035-1.693c.282-.564.659-1.129.941-1.6q.847-1.552,1.411-2.822c.188-.47.376-.847.564-1.223a7.129,7.129,0,0,0,.376-1.035,7.262,7.262,0,0,0,.564-1.411c.188-.282.188-.47.282-.47a.95.95,0,0,1-.188.47c-.094.376-.282.847-.47,1.411-.094.282-.282.659-.376,1.035-.188.376-.376.753-.565,1.223-.376.846-.846,1.881-1.411,2.916l-.847,1.693c-.282.564-.659,1.129-1.035,1.787-.753,1.223-1.6,2.446-2.54,3.763a53.116,53.116,0,0,1-15.24,13.735c-1.411.752-2.634,1.6-3.951,2.164a16.6,16.6,0,0,1-1.881.847c-.565.282-1.223.47-1.787.752-1.129.47-2.164.753-3.01,1.129a8.731,8.731,0,0,1-1.223.377c-.376.094-.753.188-1.035.282-.564.189-1.129.282-1.505.377Z" transform="translate(-229.1 -380.5)" fill="#263238"/>
        </g>
        <g id="Grupo_44319" data-name="Grupo 44319" transform="translate(0 70.587)">
          <path id="Trazado_14392" data-name="Trazado 14392" d="M172.156,199.378c-1.787.188-90.687,43.65-91.157,64.064s7.056,29.539,14.581,41.11,48.166,55.127,50.329,55.974c2.258.846,32.361-41.11,32.361-41.11l-12.418-28.41s-4.045-11.195-16.463-5.833l-10.254-9.784,55.127-52.775C194.357,222.52,204.611,195.709,172.156,199.378Z" transform="translate(-80.978 -199.033)" fill="#39a900"/>
          <g id="Grupo_44316" data-name="Grupo 44316" transform="translate(68.093 95.83)">
            <path id="Trazado_14393" data-name="Trazado 14393" d="M159.606,343.7a1.646,1.646,0,0,1,.094-.47c.094-.376.282-.753.376-1.223q.282-.847.564-1.976c.188-.752.47-1.693.659-2.634.094-.47.188-1.035.282-1.6l.282-1.694c.188-1.223.282-2.446.376-3.763a56.358,56.358,0,0,0-.376-8.749,50.716,50.716,0,0,0-2.07-8.467c-.47-1.223-.847-2.446-1.411-3.575-.282-.564-.47-1.129-.753-1.6s-.47-.941-.753-1.411a17.209,17.209,0,0,0-1.411-2.352,14.776,14.776,0,0,0-1.129-1.788c-.282-.47-.564-.752-.753-1.129-.188-.282-.282-.377-.188-.377a2.8,2.8,0,0,1,.282.377,6.872,6.872,0,0,0,.847,1.035c.376.47.753,1.035,1.223,1.693a17.217,17.217,0,0,1,1.411,2.352c.282.47.47.941.753,1.411s.47,1.035.753,1.6c.564,1.129.941,2.258,1.505,3.575a43.881,43.881,0,0,1,2.07,8.561,57.545,57.545,0,0,1,.376,8.843,25.433,25.433,0,0,1-.47,3.857c-.094.565-.188,1.223-.282,1.693-.094.564-.282,1.035-.376,1.6a14.847,14.847,0,0,1-.753,2.634c-.188.753-.47,1.411-.659,1.976a10.562,10.562,0,0,0-.47,1.223A.454.454,0,0,1,159.606,343.7Z" transform="translate(-153.361 -300.9)" fill="#263238"/>
          </g>
          <g id="Grupo_44317" data-name="Grupo 44317" transform="translate(80.078 103.826)">
            <path id="Trazado_14394" data-name="Trazado 14394" d="M166.1,381.648a2.605,2.605,0,0,1,.376-.658c.282-.47.564-1.129,1.035-1.882.188-.376.47-.847.753-1.411.282-.47.564-1.129.847-1.693a44.119,44.119,0,0,0,1.881-4.139c.282-.752.659-1.6,1.035-2.446a23.271,23.271,0,0,0,.941-2.728c.659-1.882,1.223-3.951,1.882-6.115a90.472,90.472,0,0,0,2.446-14.3,107.654,107.654,0,0,0,0-14.581c-.282-2.258-.47-4.327-.847-6.3-.188-.941-.282-1.976-.47-2.822-.188-.941-.376-1.787-.565-2.634-.376-1.693-.847-3.1-1.129-4.422-.188-.658-.376-1.223-.564-1.787a13.38,13.38,0,0,1-.47-1.505c-.282-.847-.565-1.6-.659-2.07a2.263,2.263,0,0,1-.188-.753s.094.188.282.658.47,1.223.753,2.07c.188.47.376.941.564,1.505s.376,1.129.564,1.787c.376,1.317.847,2.728,1.223,4.422.188.847.376,1.693.658,2.634l.564,2.822c.376,1.976.564,4.139.847,6.3a93.7,93.7,0,0,1,.094,14.581,89.519,89.519,0,0,1-2.54,14.393c-.658,2.164-1.223,4.233-1.882,6.115-.376.941-.658,1.881-1.035,2.728s-.753,1.693-1.035,2.446c-.658,1.6-1.411,2.917-1.975,4.139l-.847,1.693a10.274,10.274,0,0,0-.753,1.411c-.47.753-.847,1.411-1.129,1.882Z" transform="translate(-166.1 -309.4)" fill="#263238"/>
          </g>
          <g id="Grupo_44318" data-name="Grupo 44318" transform="translate(38.215 68.454)">
            <path id="Trazado_14395" data-name="Trazado 14395" d="M150.387,271.8l-1.035,1.035c-.658.659-1.6,1.505-2.916,2.634-2.446,2.164-5.927,5.08-9.972,8.09-3.951,3.01-7.714,5.644-10.442,7.432-1.317.941-2.446,1.693-3.2,2.164s-1.223.753-1.223.753a6.887,6.887,0,0,1,1.129-.847q1.27-.847,3.1-2.258c2.634-1.882,6.3-4.515,10.348-7.526,3.951-3.01,7.526-5.833,9.972-7.9a38.781,38.781,0,0,1,3.01-2.446A13.7,13.7,0,0,1,150.387,271.8Z" transform="translate(-121.6 -271.8)" fill="#263238"/>
          </g>
        </g>
        <g id="Grupo_44324" data-name="Grupo 44324" transform="translate(202.26 56.494)">
          <path id="Trazado_14396" data-name="Trazado 14396" d="M298.445,202.253s5.268-22.107,29.163-17.592c0,0,51.552,36.03,66.6,55.127s10.536,26.341,6.491,36.218-18.25,26.435-44.12,47.883l-34.431,25.964s-28.881-59.36-25.964-63.594c1.411-2.07,45.72-21.166,45.72-21.166s-1.693-2.07,1.223-5.362h0L325.444,238.1Z" transform="translate(-295.98 -184.053)" fill="#39a900"/>
          <g id="Grupo_44320" data-name="Grupo 44320" transform="translate(90.329 70.505)">
            <path id="Trazado_14397" data-name="Trazado 14397" d="M399.714,259a5,5,0,0,1,.565,2.164,7.7,7.7,0,0,1-6.021,8.09,5.24,5.24,0,0,1-2.258.188c0-.094.847-.094,2.164-.47a8.239,8.239,0,0,0,4.139-2.916,7.345,7.345,0,0,0,1.505-4.8C399.9,259.847,399.62,259,399.714,259Z" transform="translate(-392 -259)" fill="#263238"/>
          </g>
          <g id="Grupo_44321" data-name="Grupo 44321" transform="translate(8.109 121.775)">
            <path id="Trazado_14398" data-name="Trazado 14398" d="M323.038,412.465v-.282c0-.188.094-.47.094-.753.094-.753.282-1.693.47-3.01.376-2.54.941-6.3,1.411-11.007.941-9.313,1.881-22.3-.564-36.406a109.428,109.428,0,0,0-5.362-19.379l-1.693-4.233c-.564-1.317-1.223-2.634-1.787-3.857-.282-.658-.564-1.223-.847-1.881-.282-.564-.564-1.129-.847-1.787-.565-1.129-1.129-2.258-1.693-3.292-2.258-4.139-4.139-7.432-5.55-9.6-.659-1.129-1.223-1.976-1.6-2.54a5.418,5.418,0,0,1-.376-.658c-.094-.188-.094-.188-.094-.282l.188.188c.094.188.282.376.47.658.376.564.941,1.411,1.6,2.54,1.411,2.164,3.387,5.456,5.645,9.5.565,1.035,1.129,2.164,1.693,3.293a15.246,15.246,0,0,0,.941,1.693c.282.564.564,1.223.847,1.881.564,1.223,1.129,2.54,1.788,3.857q.846,1.975,1.693,4.233a108.3,108.3,0,0,1,5.362,19.473c2.352,14.205,1.411,27.282.376,36.5-.564,4.61-1.129,8.373-1.6,11.007-.188,1.223-.376,2.258-.564,3.01-.094.282-.094.565-.188.753C323.038,412.371,323.038,412.465,323.038,412.465Z" transform="translate(-304.6 -313.5)" fill="#263238"/>
          </g>
          <g id="Grupo_44322" data-name="Grupo 44322" transform="translate(45.338 79.91)">
            <path id="Trazado_14399" data-name="Trazado 14399" d="M350.972,280.759a7.994,7.994,0,0,1-1.411-1.411,21.622,21.622,0,0,1-2.822-3.951,22.475,22.475,0,0,1-2.069-4.421A5.291,5.291,0,0,1,344.2,269c.188-.094,1.129,2.916,3.01,6.115A61.214,61.214,0,0,0,350.972,280.759Z" transform="translate(-344.174 -268.998)" fill="#263238"/>
          </g>
          <g id="Grupo_44323" data-name="Grupo 44323" transform="translate(46.303 75.485)">
            <path id="Trazado_14400" data-name="Trazado 14400" d="M362.792,279.916a4.163,4.163,0,0,1-.847-.47c-.47-.282-1.223-.847-2.07-1.411-1.693-1.223-4.045-3.1-6.491-5.268a70.548,70.548,0,0,1-5.926-5.833,23.065,23.065,0,0,1-1.693-1.882c-.376-.47-.564-.752-.564-.752a23.67,23.67,0,0,1,2.446,2.446c1.505,1.505,3.575,3.575,6.021,5.738s4.7,4.045,6.4,5.362A28.632,28.632,0,0,1,362.792,279.916Z" transform="translate(-345.2 -264.294)" fill="#263238"/>
          </g>
        </g>
        <g id="Grupo_44325" data-name="Grupo 44325" transform="translate(39.061 145.814)" opacity="0.3">
          <path id="Trazado_14401" data-name="Trazado 14401" d="M122.5,293.582a17.493,17.493,0,0,0,12.888-3.2A17.865,17.865,0,0,0,142.255,279C135.953,283.045,128.427,288.972,122.5,293.582Z" transform="translate(-122.5 -279)"/>
        </g>
        <g id="Grupo_44326" data-name="Grupo 44326" transform="translate(212.439 181.468)" opacity="0.3">
          <path id="Trazado_14402" data-name="Trazado 14402" d="M323.357,334.4a35.421,35.421,0,0,0-16.463-17.5l-.094.094c8.466,12.324,14.017,26.905,17.686,41.392A36.213,36.213,0,0,0,323.357,334.4Z" transform="translate(-306.8 -316.9)"/>
        </g>
      </g>
    </g>
  </g>
</svg>
