<svg xmlns="http://www.w3.org/2000/svg" xmlns:xlink="http://www.w3.org/1999/xlink" width="108" height="108" viewBox="0 0 108 108">
  <defs>
    <filter id="Fondo" x="0" y="0" width="108" height="108" filterUnits="userSpaceOnUse">
      <feOffset dy="3" input="SourceAlpha"/>
      <feGaussianBlur stdDeviation="3" result="blur"/>
      <feFlood flood-opacity="0.161"/>
      <feComposite operator="in" in2="blur"/>
      <feComposite in="SourceGraphic"/>
    </filter>
  </defs>
  <g id="Grupo_1144251" data-name="Grupo 1144251" transform="translate(-746 -2143)">
    <g transform="matrix(1, 0, 0, 1, 746, 2143)" filter="url(#Fondo)">
      <g id="Fondo-2" data-name="Fondo" transform="translate(9 6)" fill="#e5f0f6" stroke="#1172b3" stroke-width="3">
        <circle cx="45" cy="45" r="45" stroke="none"/>
        <circle cx="45" cy="45" r="43.5" fill="none"/>
      </g>
    </g>
    <g id="Grupo_1144250" data-name="Grupo 1144250" transform="translate(774 2172)">
      <g id="Grupo_1144248" data-name="Grupo 1144248" transform="translate(0.893 0.762)">
        <path id="Trazado_979047" data-name="Trazado 979047" d="M34.439,57.515c18.4-15.9,23.608-37.277,24.535-41.818a1.627,1.627,0,0,0-.444-1.479L52.288,7.977A1.628,1.628,0,0,0,51.136,7.5H16.664a1.628,1.628,0,0,0-1.151.477L9.27,14.219A1.627,1.627,0,0,0,8.826,15.7c.927,4.541,6.13,25.919,24.535,41.818a.83.83,0,0,0,1.078,0Z" transform="translate(-8.793 -7.5)" fill="#dbd8db"/>
        <path id="Trazado_979048" data-name="Trazado 979048" d="M81.419,39.565H49.644a1.628,1.628,0,0,0-1.151.477L44.48,44.055a1.617,1.617,0,0,0-.432,1.533C45.582,51.8,50.81,68.543,64.964,81.909a.834.834,0,0,0,1.136,0C80.253,68.543,85.482,51.8,87.016,45.587a1.617,1.617,0,0,0-.432-1.533l-4.013-4.013A1.629,1.629,0,0,0,81.419,39.565Z" transform="translate(-40.425 -36.308)" fill="#eceaec"/>
        <path id="Trazado_979049" data-name="Trazado 979049" d="M107.911,66.391l-2.071-2.066a2.427,2.427,0,0,0-1.724-.713H75.035a2.46,2.46,0,0,0-1.727.715L71.237,66.4a1.637,1.637,0,0,0-.419,1.584,74.648,74.648,0,0,0,17.573,31.48,1.683,1.683,0,0,0,2.366,0,74.682,74.682,0,0,0,17.575-31.486A1.639,1.639,0,0,0,107.911,66.391Z" transform="translate(-64.467 -57.914)" fill="#fff"/>
        <circle id="Elipse_11564" data-name="Elipse 11564" cx="1.628" cy="1.628" r="1.628" transform="translate(23.478 9.77)" fill="#ffe09c"/>
        <path id="Trazado_979050" data-name="Trazado 979050" d="M215.575,296.081h-3.257a3.258,3.258,0,0,0-3.085,2.211.809.809,0,0,0,.783,1.046h7.86a.81.81,0,0,0,.783-1.046A3.258,3.258,0,0,0,215.575,296.081Z" transform="translate(-188.841 -266.772)" fill="#ffe09c"/>
        <g id="Grupo_1144247" data-name="Grupo 1144247" transform="translate(14.654 23.61)">
          <path id="Trazado_979051" data-name="Trazado 979051" d="M153.905,239.968a.81.81,0,0,0-.783,1.046,3.258,3.258,0,0,0,6.17,0,.81.81,0,0,0-.783-1.046Z" transform="translate(-153.081 -239.968)" fill="#ffd18d"/>
          <path id="Trazado_979052" data-name="Trazado 979052" d="M298.192,239.968a.809.809,0,0,0-.783,1.046,3.258,3.258,0,0,0,6.17,0,.809.809,0,0,0-.783-1.046Z" transform="translate(-282.714 -239.968)" fill="#ffd18d"/>
          <path id="Trazado_979053" data-name="Trazado 979053" d="M213.947,296.081h-1.628a3.258,3.258,0,0,0-3.085,2.211.81.81,0,0,0,.783,1.046h3.93Z" transform="translate(-203.495 -290.382)" fill="#ffd18d"/>
        </g>
        <path id="Trazado_979054" data-name="Trazado 979054" d="M16.665,7.5a1.628,1.628,0,0,0-1.151.477L9.272,14.219A1.627,1.627,0,0,0,8.828,15.7c.927,4.541,6.129,25.915,24.529,41.813a.836.836,0,0,0,1.085,0c.448-.387.881-.779,1.313-1.172l-.09-.075c-17.41-14.631-22.974-34.51-24.258-40.191a.813.813,0,0,1,.218-.756L19.444,7.5Z" transform="translate(-8.795 -7.5)" fill="#c9c5c9"/>
      </g>
      <g id="Grupo_1144249" data-name="Grupo 1144249" transform="translate(0 0)">
        <path id="Trazado_979055" data-name="Trazado 979055" d="M176.479,119.751a.762.762,0,0,0,.762.762h4.885a.762.762,0,0,0,.762-.762,4.023,4.023,0,0,0-4.018-4.018H178V100.849a2.4,2.4,0,0,0,1.5-1.5h5.877a.762.762,0,0,0,0-1.523h-5.877a2.389,2.389,0,0,0-4.53,0H169.1a.762.762,0,1,0,0,1.523h5.877a2.4,2.4,0,0,0,1.5,1.5v14.884h-.867a4.023,4.023,0,0,0-4.018,4.018.762.762,0,0,0,.762.762h1.628a.762.762,0,0,0,0-1.523h-.748a2.5,2.5,0,0,1,2.376-1.733h3.256a2.5,2.5,0,0,1,2.376,1.733h-4A.762.762,0,0,0,176.479,119.751Zm.762-22.034a.867.867,0,1,1-.867.867A.868.868,0,0,1,177.241,97.717Z" transform="translate(-151.241 -86.424)"/>
        <path id="Trazado_979056" data-name="Trazado 979056" d="M148.309,158.026a4.023,4.023,0,0,0,4.018-4.018.759.759,0,0,0-.047-.26h0l-3.256-8.955a.762.762,0,0,0-1.432,0l-3.256,8.955h0a.759.759,0,0,0-.047.26A4.023,4.023,0,0,0,148.309,158.026Zm0-1.523a2.5,2.5,0,0,1-2.376-1.733h4.752A2.5,2.5,0,0,1,148.309,156.5Zm0-9.221,2.169,5.965H146.14Z" transform="translate(-129.637 -129.637)"/>
        <path id="Trazado_979057" data-name="Trazado 979057" d="M296.618,154.008a.76.76,0,0,0-.047-.26h0l-3.256-8.955a.762.762,0,0,0-1.432,0l-3.256,8.955h0a.758.758,0,0,0-.047.26,4.018,4.018,0,0,0,8.036,0Zm-4.018-6.727,2.169,5.965h-4.338Zm-2.376,7.488h4.752a2.5,2.5,0,0,1-4.752,0Z" transform="translate(-259.273 -129.637)"/>
        <path id="Trazado_979058" data-name="Trazado 979058" d="M51.777,7.55,44.449.223A.761.761,0,0,0,43.911,0H8.089a.761.761,0,0,0-.539.223L.223,7.55a.762.762,0,0,0-.213.66A70.437,70.437,0,0,0,4.743,23.247,81.958,81.958,0,0,0,12.5,37.371,73.273,73.273,0,0,0,25.508,51.819a.762.762,0,0,0,.984,0A73.277,73.277,0,0,0,39.5,37.371a81.962,81.962,0,0,0,7.756-14.124A70.452,70.452,0,0,0,51.99,8.21a.762.762,0,0,0-.214-.66Zm-5.92,15.1a80.432,80.432,0,0,1-7.611,13.861A71.893,71.893,0,0,1,26,50.236a71.875,71.875,0,0,1-12.228-13.7A80.416,80.416,0,0,1,6.163,22.691,73.765,73.765,0,0,1,1.58,8.348L8.4,1.523H43.6l6.822,6.822a72.793,72.793,0,0,1-4.561,14.3Z" transform="translate(0 0)"/>
        <path id="Trazado_979059" data-name="Trazado 979059" d="M73.9,32.064H40.775a.761.761,0,0,0-.539.223L35.1,37.421a.762.762,0,0,0-.2.708c1.219,5.325,6.4,23.814,21.922,38.131a.762.762,0,0,0,1.033,0A76.218,76.218,0,0,0,77.595,45.573a.762.762,0,0,0-1.438-.5A74.875,74.875,0,0,1,57.337,74.659C42.907,61.056,37.818,43.831,36.479,38.2l4.611-4.611H73.583L78.194,38.2c-.218.916-.556,2.23-1.038,3.817a.762.762,0,0,0,1.458.442c.572-1.883.947-3.394,1.161-4.329a.762.762,0,0,0-.2-.708l-5.133-5.133a.762.762,0,0,0-.539-.223Z" transform="translate(-31.337 -28.808)"/>
      </g>
    </g>
  </g>
</svg>
