<svg xmlns="http://www.w3.org/2000/svg" xmlns:xlink="http://www.w3.org/1999/xlink" width="108" height="108" viewBox="0 0 108 108">
  <defs>
    <filter id="Fondo" x="0" y="0" width="108" height="108" filterUnits="userSpaceOnUse">
      <feOffset dy="3" input="SourceAlpha"/>
      <feGaussianBlur stdDeviation="3" result="blur"/>
      <feFlood flood-opacity="0.161"/>
      <feComposite operator="in" in2="blur"/>
      <feComposite in="SourceGraphic"/>
    </filter>
  </defs>
  <g id="Grupo_1144267" data-name="Grupo 1144267" transform="translate(-325 -1157)">
    <g transform="matrix(1, 0, 0, 1, 325, 1157)" filter="url(#Fondo)">
      <g id="Fondo-2" data-name="Fondo" transform="translate(9 6)" fill="#e5f0f6" stroke="#1172b3" stroke-width="3">
        <circle cx="45" cy="45" r="45" stroke="none"/>
        <circle cx="45" cy="45" r="43.5" fill="none"/>
      </g>
    </g>
    <g id="Grupo_1144266" data-name="Grupo 1144266" transform="translate(350.289 1169.118)">
      <path id="Trazado_979127" data-name="Trazado 979127" d="M193.238,64.285a1.856,1.856,0,0,1-1.857,1.856h-2.488a1.857,1.857,0,0,1,0,3.714h-1.778A1.857,1.857,0,0,1,188.97,71.8a1.891,1.891,0,0,1-1.907,1.766H173.877a13.687,13.687,0,0,1-5.235-1.04l-3.885-1.606H152.37V59.071h12.387l2.8-2.512a8.881,8.881,0,0,1,5.93-2.269h6.121a2.213,2.213,0,0,1,0,4.425h9.231a1.892,1.892,0,0,1,1.907,1.766,1.857,1.857,0,0,1-1.855,1.946h2.488a1.856,1.856,0,0,1,1.857,1.857Z" transform="translate(-134.686 -37.317)" fill="#ffe5c4"/>
      <path id="Trazado_979128" data-name="Trazado 979128" d="M160.723,95.48v10.551q0,.655-.056,1.3h-8.3V95.48Z" transform="translate(-134.686 -73.727)" fill="#fdd1a7"/>
      <path id="Trazado_979129" data-name="Trazado 979129" d="M187.059,184.44H173.877a13.709,13.709,0,0,1-5.237-1.039l-3.885-1.607H152.368V179.72h12.151a1.185,1.185,0,0,1,.453.09l3.667,1.517a13.709,13.709,0,0,0,5.237,1.039h13.184a1.932,1.932,0,0,0,1.588-.827,1.842,1.842,0,0,1,.321,1.114A1.894,1.894,0,0,1,187.059,184.44Z" transform="translate(-134.684 -148.19)" fill="#fdd1a7"/>
      <path id="Trazado_979130" data-name="Trazado 979130" d="M64.518,25.746V38.931a13.7,13.7,0,0,1-1.04,5.237l-1.606,3.885V61.139H50.021V48.052l-2.512-2.8a8.881,8.881,0,0,1-2.269-5.93V33.2a2.212,2.212,0,1,1,4.424,0v-9.23a1.892,1.892,0,0,1,1.768-1.908,1.857,1.857,0,0,1,1.946,1.855V21.427a1.856,1.856,0,1,1,3.713,0v2.488a1.857,1.857,0,0,1,3.714,0v1.778a1.857,1.857,0,0,1,1.946-1.855,1.892,1.892,0,0,1,1.766,1.907Z" transform="translate(-39.989 -6.627)" fill="#ffbc8a"/>
      <path id="Trazado_979131" data-name="Trazado 979131" d="M98.281,278.7v11.416H86.43V278.61h10.2A15,15,0,0,1,98.281,278.7Z" transform="translate(-76.399 -235.603)" fill="#f5a871"/>
      <path id="Trazado_979132" data-name="Trazado 979132" d="M175.387,58.239V71.421a13.709,13.709,0,0,1-1.039,5.237l-1.607,3.885V93.63h-2.074V80.778a1.185,1.185,0,0,1,.09-.453l1.517-3.667a13.709,13.709,0,0,0,1.039-5.237V58.237a1.932,1.932,0,0,0-.827-1.588,1.842,1.842,0,0,1,1.114-.321A1.894,1.894,0,0,1,175.387,58.239Z" transform="translate(-150.859 -39.118)" fill="#f5a871"/>
      <path id="Trazado_979133" data-name="Trazado 979133" d="M52.572,294.256v11.851H35.981l-2.8,2.512a8.881,8.881,0,0,1-5.93,2.269H21.129a2.213,2.213,0,0,1,0-4.425H11.9A1.892,1.892,0,0,1,9.991,304.7a1.857,1.857,0,0,1,1.855-1.946H9.357a1.856,1.856,0,1,1,0-3.713h2.488a1.857,1.857,0,0,1,0-3.714h1.778a1.857,1.857,0,0,1-1.855-1.946,1.891,1.891,0,0,1,1.907-1.766H26.861a13.688,13.688,0,0,1,5.235,1.04l3.885,1.606Z" transform="translate(-6.63 -247.094)" fill="#fdd1a7"/>
      <path id="Trazado_979134" data-name="Trazado 979134" d="M300.217,314.41v11.851h-8.132V325.1a3.793,3.793,0,0,1-.7.066,3.719,3.719,0,0,1-3.721-3.721v-6.121q0-.458.041-.911Z" transform="translate(-254.274 -267.248)" fill="#ffbc8a"/>
      <path id="Trazado_979135" data-name="Trazado 979135" d="M46.166,291.61H59.348a13.709,13.709,0,0,1,5.237,1.039l3.885,1.607H85.06v2.074H68.705a1.185,1.185,0,0,1-.453-.09l-3.667-1.517a13.71,13.71,0,0,0-5.237-1.039H46.164a1.932,1.932,0,0,0-1.588.827,1.842,1.842,0,0,1-.321-1.114,1.894,1.894,0,0,1,1.911-1.787Z" transform="translate(-39.118 -247.094)" fill="#ffbc8a"/>
      <path id="Trazado_979136" data-name="Trazado 979136" d="M319.938,232.6v13.186a1.892,1.892,0,0,1-1.766,1.907,1.857,1.857,0,0,1-1.946-1.855v1.778a1.857,1.857,0,0,1-3.714,0v2.488a1.856,1.856,0,1,1-3.713,0v-2.488a1.857,1.857,0,0,1-1.946,1.855,1.892,1.892,0,0,1-1.768-1.908v-9.23a2.212,2.212,0,1,1-4.424,0v-6.121a8.881,8.881,0,0,1,2.269-5.93l2.512-2.8V220.39h11.851v3.091l1.606,3.885A13.7,13.7,0,0,1,319.938,232.6Z" transform="translate(-265.765 -184.14)" fill="#e89a5e"/>
      <path id="Trazado_979137" data-name="Trazado 979137" d="M341.85,220.39H353.7V221.9H341.85Z" transform="translate(-302.175 -184.14)" fill="#d68a5a"/>
      <path id="Trazado_979138" data-name="Trazado 979138" d="M430.807,245.784V232.6a13.709,13.709,0,0,0-1.039-5.237l-1.607-3.885v-3.091h-2.074v2.856a1.185,1.185,0,0,0,.09.453l1.517,3.667a13.709,13.709,0,0,1,1.039,5.237v13.184a1.932,1.932,0,0,1-.827,1.588,1.842,1.842,0,0,0,1.114.321A1.894,1.894,0,0,0,430.807,245.784Z" transform="translate(-376.635 -184.139)" fill="#d68a5a"/>
      <path id="Trazado_979139" data-name="Trazado 979139" d="M59.423,26.967a2.73,2.73,0,0,0-2.671-2.727,2.732,2.732,0,0,0-2.6-3.714H52.769a.87.87,0,1,0,0,1.741h1.386a1.025,1.025,0,0,1,1.037.937.986.986,0,0,1-.985,1.035H45.24a.87.87,0,1,0,0,1.741H56.7a.986.986,0,0,1,0,1.972H45.24a.87.87,0,1,0,0,1.741h8.967a.986.986,0,0,1,0,1.972H45.24a.87.87,0,0,0,0,1.741h7.19a.986.986,0,0,1,.985,1.035,1.025,1.025,0,0,1-1.037.937H39.192a12.769,12.769,0,0,1-4.9-.974L30.4,32.8a.87.87,0,0,0-.333-.066H25.392c0-.143.007-.286.007-.43V28.468a.87.87,0,0,0-1.741,0V32.3a12.768,12.768,0,0,1-.974,4.9l-1.607,3.885a.87.87,0,0,0-.066.333v2.241c-.259-.014-.519-.021-.78-.021H10.9v-2.22a.871.871,0,0,0-.222-.581l-2.512-2.8a8,8,0,0,1-2.046-5.348V26.572a1.342,1.342,0,1,1,2.683,0v4.01a.87.87,0,1,0,1.741,0V17.341a1.025,1.025,0,0,1,.937-1.037.986.986,0,0,1,1.035.985v8.967a.87.87,0,1,0,1.741,0V14.8a.986.986,0,1,1,1.972,0V26.256a.87.87,0,0,0,1.741,0V17.289a.986.986,0,0,1,1.972,0v8.967a.87.87,0,1,0,1.741,0v-7.19a.986.986,0,0,1,1.035-.985,1.025,1.025,0,0,1,.937,1.037v5.4a.87.87,0,0,0,1.741,0v-1.9h4.672a.871.871,0,0,0,.581-.222l2.8-2.512A8,8,0,0,1,38.8,17.844h6.122a1.342,1.342,0,1,1,0,2.684h-4.01a.87.87,0,1,0,0,1.741h7.908a.87.87,0,1,0,0-1.741H47.7A3.082,3.082,0,0,0,44.924,16.1H38.8a9.741,9.741,0,0,0-6.51,2.491l-2.554,2.289H25.4V19.119a2.731,2.731,0,0,0-3.812-2.557,2.728,2.728,0,0,0-3.616-1.816,2.727,2.727,0,0,0-5.453,0,2.732,2.732,0,0,0-3.714,2.6V23.8A3.082,3.082,0,0,0,4.38,26.572v6.122A9.741,9.741,0,0,0,6.871,39.2L9.16,41.758v1.887H7.046a2.75,2.75,0,0,0-2.777,2.6,2.721,2.721,0,0,0,.22,1.215,2.728,2.728,0,0,0-1.816,3.615,2.727,2.727,0,0,0,0,5.453,2.732,2.732,0,0,0,2.6,3.714h6.456A3.082,3.082,0,0,0,14.5,64.664h6.122a9.74,9.74,0,0,0,6.51-2.491l2.554-2.289h2.889a.87.87,0,0,0,0-1.741H29.352a.87.87,0,0,0-.581.222l-2.8,2.512a8,8,0,0,1-5.348,2.046H14.5a1.342,1.342,0,0,1,0-2.684h4.01a.87.87,0,1,0,0-1.741H5.268a1.025,1.025,0,0,1-1.037-.937.986.986,0,0,1,.985-1.035h8.967a.87.87,0,1,0,0-1.741H2.727a.986.986,0,0,1,0-1.972H14.183a.87.87,0,1,0,0-1.741H5.216a.986.986,0,0,1,0-1.972h8.967a.87.87,0,1,0,0-1.741H6.993a.986.986,0,0,1-.985-1.035,1.025,1.025,0,0,1,1.037-.937H20.231a12.768,12.768,0,0,1,4.9.974l3.885,1.607a.87.87,0,0,0,.333.066h4.673c0,.013,0,.027,0,.04v6.122a3.082,3.082,0,0,0,4.424,2.775v1.173H36.52a.87.87,0,0,0,0,1.741h1.928v3.541a2.732,2.732,0,0,0,3.714,2.6,2.727,2.727,0,0,0,5.453,0A2.728,2.728,0,0,0,51.231,64.2a2.721,2.721,0,0,0,1.215.22,2.75,2.75,0,0,0,2.6-2.776V48.462a14.5,14.5,0,0,0-1.106-5.569L52.4,39.168V37.121a2.73,2.73,0,0,0,2.538-3.811,2.728,2.728,0,0,0,1.816-3.616,2.73,2.73,0,0,0,2.673-2.727Zm-29.9,19.324L25.8,44.751a14.536,14.536,0,0,0-3.048-.888V41.6l1.54-3.725a14.516,14.516,0,0,0,.945-3.4H29.9l3.725,1.54a14.49,14.49,0,0,0,5.182,1.1v1.892l-2.289,2.554a9.74,9.74,0,0,0-2.327,4.73ZM53.3,48.462V61.648a1.025,1.025,0,0,1-.937,1.037A.986.986,0,0,1,51.33,61.7v-7.19a.87.87,0,1,0-1.741,0v8.967a.986.986,0,0,1-1.972,0V54.511a.87.87,0,1,0-1.741,0V65.966a.986.986,0,1,1-1.972,0V54.51a.87.87,0,1,0-1.741,0v8.967a.986.986,0,0,1-1.035.985,1.025,1.025,0,0,1-.937-1.037V50.185a.87.87,0,0,0-1.741,0v4.01a1.342,1.342,0,0,1-2.684,0V48.073a8,8,0,0,1,2.046-5.349l2.512-2.8a.871.871,0,0,0,.222-.581v-2.22h10.11v2.22a.87.87,0,0,0,.066.333l1.607,3.885a12.765,12.765,0,0,1,.974,4.9Z"/>
    </g>
  </g>
</svg>
