<svg xmlns="http://www.w3.org/2000/svg" xmlns:xlink="http://www.w3.org/1999/xlink" width="108" height="108" viewBox="0 0 108 108">
  <defs>
    <filter id="Fondo" x="0" y="0" width="108" height="108" filterUnits="userSpaceOnUse">
      <feOffset dy="3" input="SourceAlpha"/>
      <feGaussianBlur stdDeviation="3" result="blur"/>
      <feFlood flood-opacity="0.161"/>
      <feComposite operator="in" in2="blur"/>
      <feComposite in="SourceGraphic"/>
    </filter>
  </defs>
  <g id="Grupo_1144225" data-name="Grupo 1144225" transform="translate(-325 -1227)">
    <g transform="matrix(1, 0, 0, 1, 325, 1227)" filter="url(#Fondo)">
      <g id="Fondo-2" data-name="Fondo" transform="translate(9 6)" fill="#fcfaeb">
        <path d="M 45 88.5 C 39.12687683105469 88.5 33.43022537231445 87.35007476806641 28.06830024719238 85.08217620849609 C 22.88852500915527 82.89131164550781 18.23629951477051 79.75458526611328 14.2408504486084 75.75914764404297 C 10.24541282653809 71.76370239257812 7.108687400817871 67.11147308349609 4.917825222015381 61.93170166015625 C 2.649924993515015 56.56977462768555 1.5 50.87312316894531 1.5 45 C 1.5 39.12687683105469 2.649924993515015 33.43022537231445 4.917825222015381 28.06830024719238 C 7.108687400817871 22.88852500915527 10.24541282653809 18.23629951477051 14.2408504486084 14.2408504486084 C 18.23629951477051 10.24541282653809 22.88852500915527 7.108687400817871 28.06830024719238 4.917825222015381 C 33.43022537231445 2.649924993515015 39.12687683105469 1.5 45 1.5 C 50.87312316894531 1.5 56.56977462768555 2.649924993515015 61.93170166015625 4.917825222015381 C 67.11147308349609 7.108687400817871 71.76370239257812 10.24541282653809 75.75914764404297 14.2408504486084 C 79.75458526611328 18.23629951477051 82.89131164550781 22.88852500915527 85.08217620849609 28.06830024719238 C 87.35007476806641 33.43022537231445 88.5 39.12687683105469 88.5 45 C 88.5 50.87312316894531 87.35007476806641 56.56977462768555 85.08217620849609 61.93170166015625 C 82.89131164550781 67.11147308349609 79.75458526611328 71.76370239257812 75.75914764404297 75.75914764404297 C 71.76370239257812 79.75458526611328 67.11147308349609 82.89131164550781 61.93170166015625 85.08217620849609 C 56.56977462768555 87.35007476806641 50.87312316894531 88.5 45 88.5 Z" stroke="none"/>
        <path d="M 45 3 C 39.32871246337891 3 33.82865524291992 4.110054016113281 28.65262985229492 6.299339294433594 C 23.65165710449219 8.414573669433594 19.15968322753906 11.44334411621094 15.301513671875 15.301513671875 C 11.44334411621094 19.15968322753906 8.414573669433594 23.65165710449219 6.299339294433594 28.65262985229492 C 4.110054016113281 33.82865524291992 3 39.32871246337891 3 45 C 3 50.67128753662109 4.110054016113281 56.17134475708008 6.299339294433594 61.34737396240234 C 8.414573669433594 66.34834289550781 11.44334411621094 70.84031677246094 15.301513671875 74.698486328125 C 19.15968322753906 78.55665588378906 23.65165710449219 81.58542633056641 28.65262985229492 83.70066070556641 C 33.82865524291992 85.88994598388672 39.32871246337891 87 45 87 C 50.67128753662109 87 56.17134475708008 85.88994598388672 61.34737396240234 83.70066070556641 C 66.34834289550781 81.58542633056641 70.84031677246094 78.55665588378906 74.698486328125 74.698486328125 C 78.55665588378906 70.84031677246094 81.58542633056641 66.34834289550781 83.70066070556641 61.34737396240234 C 85.88994598388672 56.17134475708008 87 50.67128753662109 87 45 C 87 39.32871246337891 85.88994598388672 33.82865524291992 83.70066070556641 28.65262985229492 C 81.58542633056641 23.65165710449219 78.55665588378906 19.15968322753906 74.698486328125 15.301513671875 C 70.84031677246094 11.44334411621094 66.34834289550781 8.414573669433594 61.34737396240234 6.299339294433594 C 56.17134475708008 4.110054016113281 50.67128753662109 3 45 3 M 45 0 C 69.85281372070312 0 90 20.14718627929688 90 45 C 90 69.85281372070312 69.85281372070312 90 45 90 C 20.14718627929688 90 0 69.85281372070312 0 45 C 0 20.14718627929688 20.14718627929688 0 45 0 Z" stroke="none" fill="#bca724"/>
      </g>
    </g>
    <g id="Grupo_1144224" data-name="Grupo 1144224" transform="translate(348 1246)">
      <g id="Grupo_1144222" data-name="Grupo 1144222">
        <g id="Grupo_1144201" data-name="Grupo 1144201">
          <path id="Trazado_979003" data-name="Trazado 979003" d="M29,37l1.76,4.38v.01A17.2,17.2,0,0,1,28,45a17.2,17.2,0,0,1-2.76-3.61v-.01L27,37Z" fill="#e6e9ed"/>
        </g>
        <g id="Grupo_1144202" data-name="Grupo 1144202">
          <path id="Trazado_979004" data-name="Trazado 979004" d="M30.5,34,29,37H27l-1.5-3L28,33Z" fill="#ccd1d9"/>
        </g>
        <g id="Grupo_1144203" data-name="Grupo 1144203">
          <path id="Trazado_979005" data-name="Trazado 979005" d="M25.5,34,27,37l-1.76,4.38A16.867,16.867,0,0,1,23.6,37.4c-.04-.13-.07-.26-.1-.4a15.743,15.743,0,0,1-.38-2.05Z" fill="#ff826e"/>
        </g>
        <g id="Grupo_1144204" data-name="Grupo 1144204">
          <path id="Trazado_979006" data-name="Trazado 979006" d="M30.5,34l2.38.95A15.743,15.743,0,0,1,32.5,37c-.03.14-.06.27-.1.4a16.867,16.867,0,0,1-1.64,3.98L29,37Z" fill="#ff826e"/>
        </g>
        <g id="Grupo_1144205" data-name="Grupo 1144205">
          <path id="Trazado_979007" data-name="Trazado 979007" d="M33,31.17v1.76a16.981,16.981,0,0,1-.12,2.02L30.5,34,28,33l4-2C32.34,31.05,32.67,31.1,33,31.17Z" fill="#fc6e51"/>
        </g>
        <g id="Grupo_1144206" data-name="Grupo 1144206">
          <path id="Trazado_979008" data-name="Trazado 979008" d="M28,33l-2.5,1-2.38.95A16.856,16.856,0,0,1,23,32.93V31.18c.33-.07.66-.13,1-.18Z" fill="#fc6e51"/>
        </g>
        <g id="Grupo_1144207" data-name="Grupo 1144207">
          <path id="Trazado_979009" data-name="Trazado 979009" d="M24,54v4H17a7,7,0,0,1-7-7V47.14A16.3,16.3,0,0,1,18.2,33l.8,4h4.5c.03.14.06.27.1.4L20,41a11.615,11.615,0,0,0,7.11,6.7L28,48v6.54A3.989,3.989,0,0,0,26,54Z" fill="#fcd770"/>
        </g>
        <g id="Grupo_1144208" data-name="Grupo 1144208">
          <path id="Trazado_979010" data-name="Trazado 979010" d="M46.07,40.28,48,30h6V45.87a6.128,6.128,0,0,1-10.84,3.92L40,46V62H36V59a1,1,0,0,0-1-1H30a3.98,3.98,0,0,0-2-3.46V48l.89-.3A11.668,11.668,0,0,0,36,41l-3.6-3.6c.04-.13.07-.26.1-.4H37l.84-4.21A19.716,19.716,0,0,1,46.07,40.28Z" fill="#fcd770"/>
        </g>
        <g id="Grupo_1144209" data-name="Grupo 1144209">
          <path id="Trazado_979011" data-name="Trazado 979011" d="M23.12,34.95A15.743,15.743,0,0,0,23.5,37H19l-.8-4v-.01A16.044,16.044,0,0,1,23,31.18v1.75A16.856,16.856,0,0,0,23.12,34.95Z" fill="#ffc729"/>
        </g>
        <g id="Grupo_1144210" data-name="Grupo 1144210">
          <path id="Trazado_979012" data-name="Trazado 979012" d="M28,45v3l-.89-.3A11.615,11.615,0,0,1,20,41l3.6-3.6a16.867,16.867,0,0,0,1.64,3.98v.01A17.2,17.2,0,0,0,28,45Z" fill="#ffc729"/>
        </g>
        <g id="Grupo_1144211" data-name="Grupo 1144211">
          <path id="Trazado_979013" data-name="Trazado 979013" d="M32.4,37.4,36,41a11.668,11.668,0,0,1-7.11,6.7L28,48V45a17.2,17.2,0,0,0,2.76-3.61v-.01A16.867,16.867,0,0,0,32.4,37.4Z" fill="#ffc729"/>
        </g>
        <g id="Grupo_1144212" data-name="Grupo 1144212">
          <path id="Trazado_979014" data-name="Trazado 979014" d="M32.88,34.95A16.98,16.98,0,0,0,33,32.93V31.17a19.418,19.418,0,0,1,4.84,1.62L37,37H32.5a15.744,15.744,0,0,0,.38-2.05Z" fill="#ffc729"/>
        </g>
        <g id="Grupo_1144213" data-name="Grupo 1144213">
          <path id="Trazado_979015" data-name="Trazado 979015" d="M28,60a2.006,2.006,0,0,0,2,2H16a2.015,2.015,0,0,1-2-2,2.006,2.006,0,0,1,2-2H30a2.015,2.015,0,0,0-2,2Z" fill="#cf9e76"/>
        </g>
        <g id="Grupo_1144214" data-name="Grupo 1144214">
          <path id="Trazado_979016" data-name="Trazado 979016" d="M36,59v3H30a2.006,2.006,0,0,1-2-2,2.015,2.015,0,0,1,2-2h5A1,1,0,0,1,36,59Z" fill="#e6e9ed"/>
        </g>
        <g id="Grupo_1144215" data-name="Grupo 1144215">
          <path id="Trazado_979017" data-name="Trazado 979017" d="M40,12.32a10.368,10.368,0,0,1-.53,3.27l-.41,1.23A3.008,3.008,0,0,0,37,16H36V13a3,3,0,0,0-3-3H23a3,3,0,0,0-3,3v3H19a3.006,3.006,0,0,0-2.04.8l-1.85-1.75a3.551,3.551,0,0,1-.07-5.09L16,9l-.96-.96A3.54,3.54,0,0,1,17.54,2H29.68A10.319,10.319,0,0,1,40,12.32Z" fill="#656d78"/>
        </g>
        <g id="Grupo_1144216" data-name="Grupo 1144216">
          <path id="Trazado_979018" data-name="Trazado 979018" d="M39.06,16.82A3,3,0,0,1,37,22H36V16h1a3.008,3.008,0,0,1,2.06.82Z" fill="#f0d0b4"/>
        </g>
        <g id="Grupo_1144217" data-name="Grupo 1144217">
          <path id="Trazado_979019" data-name="Trazado 979019" d="M31.22,27.88,32,31l-4,2-4-2,.78-3.12A6.082,6.082,0,0,0,26,28h4a6.082,6.082,0,0,0,1.22-.12Z" fill="#f0d0b4"/>
        </g>
        <g id="Grupo_1144218" data-name="Grupo 1144218">
          <path id="Trazado_979020" data-name="Trazado 979020" d="M20,16v6H19a3,3,0,1,1,0-6Z" fill="#f0d0b4"/>
        </g>
        <g id="Grupo_1144219" data-name="Grupo 1144219">
          <path id="Trazado_979021" data-name="Trazado 979021" d="M36,16v6a6.015,6.015,0,0,1-4.78,5.88A6.082,6.082,0,0,1,30,28H26a6.082,6.082,0,0,1-1.22-.12A6.015,6.015,0,0,1,20,22V13a3,3,0,0,1,3-3H33a3,3,0,0,1,3,3Z" fill="#f0d0b4"/>
        </g>
        <g id="Grupo_1144220" data-name="Grupo 1144220">
          <path id="Trazado_979022" data-name="Trazado 979022" d="M28,54.54A3.98,3.98,0,0,1,30,58H24V54h2A3.989,3.989,0,0,1,28,54.54Z" fill="#f0d0b4"/>
        </g>
        <g id="Grupo_1144221" data-name="Grupo 1144221">
          <path id="Trazado_979023" data-name="Trazado 979023" d="M48,22V21a3,3,0,0,1,6,0v9H48l-.83-.83A4,4,0,0,1,46,26.34V24a2.015,2.015,0,0,1,2-2Z" fill="#f0d0b4"/>
        </g>
      </g>
      <g id="Grupo_1144223" data-name="Grupo 1144223">
        <circle id="Elipse_11562" data-name="Elipse 11562" cx="1" cy="1" r="1" transform="translate(23 15)"/>
        <circle id="Elipse_11563" data-name="Elipse 11563" cx="1" cy="1" r="1" transform="translate(31 15)"/>
        <path id="Trazado_979024" data-name="Trazado 979024" d="M33,21H31a2,2,0,0,1-2,2H25v2h4A4,4,0,0,0,33,21Z"/>
        <path id="Trazado_979025" data-name="Trazado 979025" d="M28.707,12.293A5.791,5.791,0,0,1,27,8.171V7H25V8.171a7.777,7.777,0,0,0,2.293,5.536Z"/>
        <path id="Trazado_979026" data-name="Trazado 979026" d="M32.707,12.293A5.791,5.791,0,0,1,31,8.171V7H29V8.171a7.777,7.777,0,0,0,2.293,5.536Z"/>
        <path id="Trazado_979027" data-name="Trazado 979027" d="M51,17a4,4,0,0,0-4,4v.184A3,3,0,0,0,45,24v2.343a4.968,4.968,0,0,0,1.465,3.535l.455.456-1.39,7.414a20.64,20.64,0,0,0-12.718-7.623L32.42,28.56A7.009,7.009,0,0,0,36.92,23H37a4,4,0,0,0,4-4,3.956,3.956,0,0,0-.815-2.393l.233-.7A11.323,11.323,0,0,0,29.676,1H17.535a4.537,4.537,0,0,0-3.207,7.744L14.586,9l-.253.253A4.522,4.522,0,0,0,13,12.471a4.572,4.572,0,0,0,1.423,3.306L15.611,16.9A3.962,3.962,0,0,0,15,19a4,4,0,0,0,4,4h.08a7.011,7.011,0,0,0,4.5,5.56l-.4,1.579A17.382,17.382,0,0,0,9,47.142V51a8,8,0,0,0,4.593,7.227A2.973,2.973,0,0,0,13,60a3,3,0,0,0,3,3H41V48.762l1.394,1.672A7.129,7.129,0,0,0,55,45.871V21a4,4,0,0,0-4-4Zm-4,7a1,1,0,0,1,2,0v1h2V24a3,3,0,0,0-2-2.816V21a2,2,0,0,1,4,0v8H48.414l-.535-.536A3.017,3.017,0,0,1,47,26.343ZM25,57V55h1a3,3,0,0,1,2.816,2Zm3-13.487a16.11,16.11,0,0,1-1.639-2.223L27.677,38h.645l1.316,3.29A16.021,16.021,0,0,1,28,43.513Zm-3.766-7.93.783-.313.888,1.775-.748,1.871A15.845,15.845,0,0,1,24.234,35.583Zm4.886-1.058L28.382,36h-.763l-.738-1.475L28,34.077Zm1.724,4.391L30.1,37.045l.888-1.775.783.313A15.966,15.966,0,0,1,30.844,38.916ZM32,32.118v.811c0,.2-.021.388-.028.583L30.439,32.9Zm-7.972,1.394c-.007-.195-.028-.387-.028-.583v-.811l1.561.781ZM22.276,36H19.819l-.491-2.455A15.218,15.218,0,0,1,22,32.472v.457A18.2,18.2,0,0,0,22.276,36ZM27,45.384v1.2a10.582,10.582,0,0,1-5.812-5.363l1.967-1.967A17.981,17.981,0,0,0,27,45.384Zm2,.024a17.991,17.991,0,0,0,3.848-6.146l1.964,1.964A10.582,10.582,0,0,1,29,46.589Zm5-12.479v-.5a18.727,18.727,0,0,1,2.7.962L36.18,36H33.727A18.2,18.2,0,0,0,34,32.929ZM37,21V17a2,2,0,0,1,0,4ZM17,19a2,2,0,0,1,2-2v4A2,2,0,0,1,17,19Zm4,3V13a2,2,0,0,1,2-2V9a4,4,0,0,0-4,4v2a3.941,3.941,0,0,0-1.936.522l-1.266-1.2a2.564,2.564,0,0,1-.8-1.854,2.537,2.537,0,0,1,.747-1.8L17.414,9,15.742,7.329A2.536,2.536,0,0,1,17.535,3H29.676a9.324,9.324,0,0,1,8.845,12.274l-.009.027A3.99,3.99,0,0,0,37,15V13a4,4,0,0,0-4-4v2a2,2,0,0,1,2,2v9a5.006,5.006,0,0,1-5,5H26A5.006,5.006,0,0,1,21,22Zm5,7h4c.156,0,.309-.013.463-.023l.372,1.488L28,31.882l-2.835-1.417.372-1.488C25.691,28.987,25.844,29,26,29ZM11,51V47.142A15.359,15.359,0,0,1,17.51,34.65L18.18,38h3.405l-2.76,2.759.245.612a12.591,12.591,0,0,0,7.721,7.28l.209.07V53.1a5,5,0,0,0-1-.1H25a2,2,0,0,0-2-2H20a3,3,0,0,1-3-3V41H15v7a5.006,5.006,0,0,0,5,5h3v4H17a6.006,6.006,0,0,1-6-6Zm4,9a1,1,0,0,1,1-1H27.184a2.809,2.809,0,0,0,0,2H16A1,1,0,0,1,15,60Zm20,1H30a1,1,0,1,1,0-2h5ZM47.871,51a5.115,5.115,0,0,1-3.94-1.846L41,45.638V41H39V61H37V59a2,2,0,0,0-2-2H30.9A4.988,4.988,0,0,0,29,54.026v-5.3l.208-.069a12.594,12.594,0,0,0,7.721-7.28l.245-.612L34.414,38H37.82l.734-3.676A18.668,18.668,0,0,1,45.013,40.5l-1,5.311,1.965.368L48.83,31H53V45.871A5.135,5.135,0,0,1,47.871,51Z"/>
      </g>
    </g>
  </g>
</svg>
