<svg xmlns="http://www.w3.org/2000/svg" xmlns:xlink="http://www.w3.org/1999/xlink" width="108" height="108" viewBox="0 0 108 108">
  <defs>
    <filter id="Fondo" x="0" y="0" width="108" height="108" filterUnits="userSpaceOnUse">
      <feOffset dy="3" input="SourceAlpha"/>
      <feGaussianBlur stdDeviation="3" result="blur"/>
      <feFlood flood-opacity="0.161"/>
      <feComposite operator="in" in2="blur"/>
      <feComposite in="SourceGraphic"/>
    </filter>
  </defs>
  <g id="Grupo_1144253" data-name="Grupo 1144253" transform="translate(-325 -2143)">
    <g transform="matrix(1, 0, 0, 1, 325, 2143)" filter="url(#Fondo)">
      <g id="Fondo-2" data-name="Fondo" transform="translate(9 6)" fill="#e5f0f6" stroke="#1172b3" stroke-width="3">
        <circle cx="45" cy="45" r="45" stroke="none"/>
        <circle cx="45" cy="45" r="43.5" fill="none"/>
      </g>
    </g>
    <g id="Grupo_1144252" data-name="Grupo 1144252" transform="translate(349.836 2160.837)">
      <path id="Trazado_979060" data-name="Trazado 979060" d="M51,51h9.054v9.054H51Z" transform="translate(-4.634 -4.634)" fill="#f43b3b"/>
      <ellipse id="Elipse_11565" data-name="Elipse 11565" cx="5" cy="4.5" rx="5" ry="4.5" transform="translate(24.164 46.163)" fill="#efaf22"/>
      <path id="Trazado_979061" data-name="Trazado 979061" d="M7.527,51,3,60.054h9.054Z" transform="translate(-0.094 -4.634)" fill="#41b737"/>
      <path id="Trazado_979062" data-name="Trazado 979062" d="M34.207,13.56l9.145,2.209V27.54H18V15.769l9.145-2.209" transform="translate(-1.513 -1.093)" fill="#8c93ba"/>
      <path id="Trazado_979063" data-name="Trazado 979063" d="M44.676,15.769,35.531,13.56H32V27.54H44.676Z" transform="translate(-2.837 -1.093)" fill="#72769b"/>
      <ellipse id="Elipse_11566" data-name="Elipse 11566" cx="5" cy="5.5" rx="5" ry="5.5" transform="translate(24.164 3.163)" fill="#f7c23c"/>
      <path id="Trazado_979064" data-name="Trazado 979064" d="M17,14.676V26.447a.905.905,0,0,0,.905.905H43.258a.905.905,0,0,0,.905-.905V14.676a.905.905,0,0,0-.7-.905L35.788,11.96A6.266,6.266,0,0,0,36.92,8.338a6.338,6.338,0,1,0-12.676,0,6.266,6.266,0,0,0,1.132,3.622L17.7,13.771A.905.905,0,0,0,17,14.676ZM30.581,3.811a4.527,4.527,0,1,1-4.527,4.527A4.527,4.527,0,0,1,30.581,3.811ZM18.811,15.391l8.031-1.947a6.338,6.338,0,0,0,7.479,0l8.031,1.947v10.15H36.92V19.2H35.109v6.338H26.054V19.2H24.243v6.338H18.811Z" transform="translate(-1.418 0)"/>
      <path id="Trazado_979065" data-name="Trazado 979065" d="M7,39.243v7.243H8.811V40.149H28.73v6.338h1.811V40.149h19.92v6.338h1.811V39.243a.905.905,0,0,0-.905-.905H30.541V32H28.73v6.338H7.905A.905.905,0,0,0,7,39.243Z" transform="translate(-0.473 -2.837)"/>
      <path id="Trazado_979066" data-name="Trazado 979066" d="M59.96,50H50.905a.905.905,0,0,0-.905.905V59.96a.905.905,0,0,0,.905.905H59.96a.905.905,0,0,0,.905-.905V50.905A.905.905,0,0,0,59.96,50Zm-.905,9.054H51.811V51.811h7.243Z" transform="translate(-4.539 -4.539)"/>
      <path id="Trazado_979067" data-name="Trazado 979067" d="M2.136,60.44a.905.905,0,0,0,.77.426H11.96a.905.905,0,0,0,.806-1.313L8.239,50.5a.905.905,0,0,0-1.612,0L2.1,59.553a.905.905,0,0,0,.036.887Zm5.3-7.506,3.06,6.121H4.372Z" transform="translate(0 -4.54)"/>
      <path id="Trazado_979068" data-name="Trazado 979068" d="M36.865,55.433a5.433,5.433,0,1,0-5.433,5.433,5.433,5.433,0,0,0,5.433-5.433Zm-9.054,0a3.622,3.622,0,1,1,3.622,3.622A3.622,3.622,0,0,1,27.811,55.433Z" transform="translate(-2.269 -4.539)"/>
    </g>
  </g>
</svg>
